%TF.GenerationSoftware,KiCad,Pcbnew,10.0.3*%
%TF.CreationDate,2026-06-07T22:22:34+02:00*%
%TF.ProjectId,TYWE1S-ESP12_board,54595745-3153-42d4-9553-5031325f626f,rev?*%
%TF.SameCoordinates,Original*%
%TF.FileFunction,Copper,L1,Top*%
%TF.FilePolarity,Positive*%
%FSLAX46Y46*%
G04 Gerber Fmt 4.6, Leading zero omitted, Abs format (unit mm)*
G04 Created by KiCad (PCBNEW 10.0.3) date 2026-06-07 22:22:34*
%MOMM*%
%LPD*%
G01*
G04 APERTURE LIST*
%TA.AperFunction,SMDPad,CuDef*%
%ADD10R,2.000000X0.900000*%
%TD*%
%TA.AperFunction,ViaPad*%
%ADD11C,0.800000*%
%TD*%
%TA.AperFunction,Conductor*%
%ADD12C,0.500000*%
%TD*%
G04 APERTURE END LIST*
D10*
%TO.P,U2,18,GND_18*%
%TO.N,VCC*%
X153625000Y-99240000D03*
%TO.P,U2,17,TOUT_17*%
%TO.N,TX1*%
X153625000Y-100740000D03*
%TO.P,U2,16,RESET_16*%
%TO.N,RX1*%
X153625000Y-102240000D03*
%TO.P,U2,15,GND_15*%
%TO.N,VCC*%
X153625000Y-103740000D03*
%TO.P,U2,14,GND_14*%
%TO.N,GND*%
X153625000Y-105240000D03*
%TO.P,U2,13,IO4_13*%
%TO.N,IO14*%
X153625000Y-106740000D03*
%TO.P,U2,12,IO1_12*%
%TO.N,IO12*%
X153625000Y-108240000D03*
%TO.P,U2,11,U0RX_11*%
%TO.N,TX*%
X153625000Y-109740000D03*
%TO.P,U2,10,IO5_10*%
%TO.N,IO0*%
X153625000Y-111240000D03*
%TO.P,U2,9,IO0_9*%
%TO.N,IO5*%
X135845000Y-111240000D03*
%TO.P,U2,8,U0TX_8*%
%TO.N,RX*%
X135845000Y-109740000D03*
%TO.P,U2,7,IO12_7*%
%TO.N,IO1*%
X135845000Y-108240000D03*
%TO.P,U2,6,IO14_6*%
%TO.N,IO4*%
X135845000Y-106740000D03*
%TO.P,U2,5,GND_5*%
%TO.N,GND*%
X135845000Y-105240000D03*
%TO.P,U2,4,3V3_4*%
X135845000Y-103740000D03*
%TO.P,U2,3,U1RX_3*%
%TO.N,RST*%
X135845000Y-102240000D03*
%TO.P,U2,2,U1TX_2*%
%TO.N,TOUT*%
X135845000Y-100740000D03*
%TO.P,U2,1,VCC_1*%
%TO.N,GND*%
X135845000Y-99240000D03*
%TD*%
D11*
%TO.N,GND*%
X147560000Y-108540000D03*
X144890000Y-106540000D03*
X145020000Y-108880000D03*
X149910000Y-106330000D03*
X148120000Y-103530000D03*
X135190000Y-105260000D03*
X135250000Y-103750000D03*
X151810000Y-112110000D03*
X154270000Y-95590000D03*
X154270000Y-97590000D03*
X135200000Y-96790000D03*
X135170000Y-95510000D03*
X137610000Y-112100000D03*
X141600000Y-108910000D03*
X145600000Y-105430000D03*
X145000000Y-107790000D03*
X145600000Y-103640000D03*
X145600000Y-101760000D03*
X148960000Y-98940000D03*
X147950000Y-99440000D03*
X147130000Y-98900000D03*
X145990000Y-99440000D03*
X149480000Y-96680000D03*
X146910000Y-96700000D03*
X140620000Y-95540000D03*
X141770000Y-95670000D03*
X143170000Y-96290000D03*
X141810000Y-97120000D03*
%TO.N,IO14*%
X154410000Y-106580000D03*
%TO.N,VCC*%
X150050000Y-99780000D03*
X150410000Y-104220000D03*
%TO.N,IO12*%
X147900000Y-107430000D03*
%TO.N,RX1*%
X150320000Y-107380000D03*
%TO.N,TX1*%
X143480000Y-102490000D03*
%TO.N,RST*%
X145660000Y-95650000D03*
X143700000Y-100890000D03*
%TO.N,TX*%
X142235000Y-99425000D03*
%TO.N,IO0*%
X142640000Y-104930000D03*
%TO.N,IO5*%
X141700000Y-100270000D03*
%TO.N,RX*%
X139130000Y-97560000D03*
%TO.N,IO1*%
X139350000Y-106050000D03*
%TO.N,IO4*%
X139840000Y-101780000D03*
%TO.N,RST*%
X139260000Y-102670000D03*
%TO.N,TOUT*%
X139350000Y-100760000D03*
%TD*%
%TO.N,IO12*%
D12*
X148880000Y-108240000D02*
X153625000Y-108240000D01*
X147900000Y-107430000D02*
X148070000Y-107430000D01*
X148070000Y-107430000D02*
X148880000Y-108240000D01*
%TO.N,TX*%
X153625000Y-109740000D02*
X153035000Y-110330000D01*
X153035000Y-110330000D02*
X144430000Y-110330000D01*
X144430000Y-110330000D02*
X143570000Y-109470000D01*
X143570000Y-109470000D02*
X143570000Y-104490000D01*
X143570000Y-104490000D02*
X142500000Y-103420000D01*
X142500000Y-103420000D02*
X142550000Y-103370000D01*
X142550000Y-103370000D02*
X142550000Y-99740000D01*
X142550000Y-99740000D02*
X142235000Y-99425000D01*
%TO.N,RX1*%
X153625000Y-102240000D02*
X147960000Y-102240000D01*
X147960000Y-102240000D02*
X147150000Y-103050000D01*
X147150000Y-103050000D02*
X147150000Y-105320000D01*
X147150000Y-105320000D02*
X148580000Y-106750000D01*
X148580000Y-106750000D02*
X148592082Y-106750000D01*
X148592082Y-106750000D02*
X149090000Y-107247918D01*
X149090000Y-107247918D02*
X149090000Y-107250000D01*
X149090000Y-107250000D02*
X149120000Y-107280000D01*
X149120000Y-107280000D02*
X150220000Y-107280000D01*
X150220000Y-107280000D02*
X150320000Y-107380000D01*
%TO.N,GND*%
X135210000Y-105240000D02*
X135190000Y-105260000D01*
X135845000Y-105240000D02*
X135210000Y-105240000D01*
X135260000Y-103740000D02*
X135250000Y-103750000D01*
X135845000Y-103740000D02*
X135260000Y-103740000D01*
%TO.N,IO14*%
X154410000Y-106580000D02*
X153785000Y-106580000D01*
X153785000Y-106580000D02*
X153625000Y-106740000D01*
%TO.N,VCC*%
X150050000Y-99780000D02*
X150010000Y-99820000D01*
X153625000Y-103740000D02*
X150890000Y-103740000D01*
X150890000Y-103740000D02*
X150410000Y-104220000D01*
%TO.N,RX1*%
X150320000Y-107380000D02*
X150410000Y-107470000D01*
%TO.N,TX1*%
X145230000Y-100740000D02*
X143480000Y-102490000D01*
X153625000Y-100740000D02*
X145230000Y-100740000D01*
%TO.N,VCC*%
X150590000Y-99240000D02*
X150050000Y-99780000D01*
X153625000Y-99240000D02*
X150590000Y-99240000D01*
%TO.N,RST*%
X143700000Y-97610000D02*
X145660000Y-95650000D01*
X143700000Y-100890000D02*
X143700000Y-97610000D01*
%TO.N,IO0*%
X142640000Y-110400000D02*
X143530000Y-111290000D01*
X142640000Y-104930000D02*
X142640000Y-110400000D01*
X143530000Y-111290000D02*
X143580000Y-111240000D01*
X143580000Y-111240000D02*
X153625000Y-111240000D01*
%TO.N,IO5*%
X139500000Y-109530000D02*
X141700000Y-107330000D01*
X141700000Y-107330000D02*
X141700000Y-100270000D01*
X137790000Y-111240000D02*
X139500000Y-109530000D01*
%TO.N,RX*%
X140810000Y-99240000D02*
X139130000Y-97560000D01*
X140810000Y-106760000D02*
X140810000Y-99240000D01*
X137830000Y-109740000D02*
X140810000Y-106760000D01*
X135845000Y-109740000D02*
X137830000Y-109740000D01*
%TO.N,IO1*%
X139350000Y-107230050D02*
X139350000Y-106050000D01*
X138340050Y-108240000D02*
X139350000Y-107230050D01*
X135845000Y-108240000D02*
X138340050Y-108240000D01*
%TO.N,IO4*%
X140110000Y-103975000D02*
X140110000Y-102050000D01*
X137345000Y-106740000D02*
X140110000Y-103975000D01*
X140110000Y-102050000D02*
X139840000Y-101780000D01*
X135845000Y-106740000D02*
X137345000Y-106740000D01*
%TO.N,RST*%
X138830000Y-102240000D02*
X139260000Y-102670000D01*
X135845000Y-102240000D02*
X138830000Y-102240000D01*
%TO.N,TOUT*%
X135865000Y-100760000D02*
X139350000Y-100760000D01*
X135845000Y-100740000D02*
X135865000Y-100760000D01*
%TO.N,IO5*%
X135845000Y-111240000D02*
X137790000Y-111240000D01*
%TD*%
%TA.AperFunction,Conductor*%
%TO.N,GND*%
G36*
X141808834Y-108385048D02*
G01*
X141864767Y-108426920D01*
X141889184Y-108492384D01*
X141889500Y-108501230D01*
X141889500Y-110473918D01*
X141889500Y-110473920D01*
X141889499Y-110473920D01*
X141918340Y-110618907D01*
X141918342Y-110618913D01*
X141974916Y-110755494D01*
X141974918Y-110755499D01*
X141978986Y-110761586D01*
X141978989Y-110761590D01*
X142057051Y-110878420D01*
X143051578Y-111872947D01*
X143051581Y-111872949D01*
X143051584Y-111872952D01*
X143174506Y-111955084D01*
X143311087Y-112011658D01*
X143311091Y-112011658D01*
X143311092Y-112011659D01*
X143456080Y-112040500D01*
X143456083Y-112040500D01*
X143603919Y-112040500D01*
X143701461Y-112021096D01*
X143748912Y-112011658D01*
X143763371Y-112005668D01*
X143777205Y-111999939D01*
X143824657Y-111990500D01*
X152162680Y-111990500D01*
X152229719Y-112010185D01*
X152261948Y-112040191D01*
X152267454Y-112047546D01*
X152267457Y-112047548D01*
X152382664Y-112133793D01*
X152382671Y-112133797D01*
X152517517Y-112184091D01*
X152517516Y-112184091D01*
X152524444Y-112184835D01*
X152577127Y-112190500D01*
X154535500Y-112190499D01*
X154544185Y-112193049D01*
X154553147Y-112191761D01*
X154577187Y-112202739D01*
X154602539Y-112210184D01*
X154608466Y-112217024D01*
X154616703Y-112220786D01*
X154630990Y-112243018D01*
X154648294Y-112262987D01*
X154650581Y-112273502D01*
X154654477Y-112279564D01*
X154659500Y-112314499D01*
X154659500Y-112365500D01*
X154639815Y-112432539D01*
X154587011Y-112478294D01*
X154535500Y-112489500D01*
X134904500Y-112489500D01*
X134837461Y-112469815D01*
X134791706Y-112417011D01*
X134780500Y-112365500D01*
X134780500Y-112314499D01*
X134800185Y-112247460D01*
X134852989Y-112201705D01*
X134904495Y-112190499D01*
X136892872Y-112190499D01*
X136952483Y-112184091D01*
X137087331Y-112133796D01*
X137202546Y-112047546D01*
X137208052Y-112040191D01*
X137263985Y-111998319D01*
X137307320Y-111990500D01*
X137863920Y-111990500D01*
X137961462Y-111971096D01*
X138008913Y-111961658D01*
X138145495Y-111905084D01*
X138194729Y-111872186D01*
X138268416Y-111822952D01*
X139968206Y-110123159D01*
X139968211Y-110123156D01*
X139978414Y-110112952D01*
X139978416Y-110112952D01*
X141677819Y-108413549D01*
X141739142Y-108380064D01*
X141808834Y-108385048D01*
G37*
%TD.AperFunction*%
%TA.AperFunction,Conductor*%
G36*
X147415808Y-101510185D02*
G01*
X147461563Y-101562989D01*
X147471507Y-101632147D01*
X147442482Y-101695703D01*
X147436450Y-101702181D01*
X146567052Y-102571578D01*
X146567049Y-102571581D01*
X146526043Y-102632951D01*
X146526044Y-102632952D01*
X146484914Y-102694508D01*
X146428343Y-102831082D01*
X146428340Y-102831092D01*
X146399500Y-102976079D01*
X146399500Y-102976082D01*
X146399500Y-105393918D01*
X146399500Y-105393920D01*
X146399499Y-105393920D01*
X146428340Y-105538907D01*
X146428343Y-105538917D01*
X146484913Y-105675489D01*
X146484914Y-105675491D01*
X146484916Y-105675495D01*
X146497617Y-105694504D01*
X146497618Y-105694507D01*
X146567046Y-105798414D01*
X146567052Y-105798421D01*
X147324884Y-106556253D01*
X147358369Y-106617576D01*
X147353385Y-106687268D01*
X147324885Y-106731615D01*
X147200534Y-106855965D01*
X147101990Y-107003446D01*
X147101983Y-107003459D01*
X147034106Y-107167332D01*
X147034103Y-107167341D01*
X146999500Y-107341304D01*
X146999500Y-107518695D01*
X147034103Y-107692658D01*
X147034106Y-107692667D01*
X147101983Y-107856540D01*
X147101990Y-107856553D01*
X147200535Y-108004034D01*
X147200538Y-108004038D01*
X147325961Y-108129461D01*
X147325965Y-108129464D01*
X147473446Y-108228009D01*
X147473459Y-108228016D01*
X147596363Y-108278923D01*
X147637334Y-108295894D01*
X147637336Y-108295894D01*
X147637341Y-108295896D01*
X147811304Y-108330499D01*
X147811307Y-108330500D01*
X147811309Y-108330500D01*
X147857770Y-108330500D01*
X147924809Y-108350185D01*
X147945451Y-108366819D01*
X148401578Y-108822947D01*
X148401585Y-108822953D01*
X148464384Y-108864913D01*
X148464386Y-108864914D01*
X148464389Y-108864916D01*
X148524505Y-108905084D01*
X148661087Y-108961658D01*
X148661091Y-108961658D01*
X148661092Y-108961659D01*
X148806079Y-108990500D01*
X148806082Y-108990500D01*
X148806083Y-108990500D01*
X148953917Y-108990500D01*
X152023933Y-108990500D01*
X152090972Y-109010185D01*
X152136727Y-109062989D01*
X152146671Y-109132147D01*
X152140115Y-109157832D01*
X152130909Y-109182514D01*
X152130908Y-109182516D01*
X152124501Y-109242116D01*
X152124500Y-109242135D01*
X152124500Y-109455500D01*
X152104815Y-109522539D01*
X152052011Y-109568294D01*
X152000500Y-109579500D01*
X144792229Y-109579500D01*
X144725190Y-109559815D01*
X144704548Y-109543181D01*
X144356819Y-109195451D01*
X144323334Y-109134128D01*
X144320500Y-109107770D01*
X144320500Y-104416081D01*
X144318973Y-104408410D01*
X144306768Y-104347049D01*
X144291659Y-104271088D01*
X144258518Y-104191080D01*
X144256301Y-104185728D01*
X144256300Y-104185724D01*
X144235085Y-104134506D01*
X144235083Y-104134503D01*
X144152954Y-104011588D01*
X144152953Y-104011587D01*
X144152951Y-104011584D01*
X144048416Y-103907049D01*
X143700361Y-103558993D01*
X143666877Y-103497672D01*
X143671861Y-103427980D01*
X143713733Y-103372047D01*
X143740591Y-103356753D01*
X143742663Y-103355894D01*
X143742666Y-103355894D01*
X143906547Y-103288013D01*
X144054035Y-103189464D01*
X144179464Y-103064035D01*
X144278013Y-102916547D01*
X144345894Y-102752666D01*
X144355239Y-102705680D01*
X144387622Y-102643772D01*
X144389118Y-102642248D01*
X145504549Y-101526819D01*
X145565872Y-101493334D01*
X145592230Y-101490500D01*
X147348769Y-101490500D01*
X147415808Y-101510185D01*
G37*
%TD.AperFunction*%
%TA.AperFunction,Conductor*%
G36*
X150345809Y-103010185D02*
G01*
X150391564Y-103062989D01*
X150401508Y-103132147D01*
X150372483Y-103195703D01*
X150366450Y-103202182D01*
X150257806Y-103310824D01*
X150196483Y-103344308D01*
X150194319Y-103344759D01*
X150147337Y-103354104D01*
X150147331Y-103354106D01*
X149983459Y-103421983D01*
X149983446Y-103421990D01*
X149835965Y-103520535D01*
X149835961Y-103520538D01*
X149710538Y-103645961D01*
X149710535Y-103645965D01*
X149611990Y-103793446D01*
X149611983Y-103793459D01*
X149544106Y-103957332D01*
X149544103Y-103957341D01*
X149509500Y-104131304D01*
X149509500Y-104308695D01*
X149544103Y-104482658D01*
X149544106Y-104482667D01*
X149611983Y-104646540D01*
X149611990Y-104646553D01*
X149710535Y-104794034D01*
X149710538Y-104794038D01*
X149835961Y-104919461D01*
X149835965Y-104919464D01*
X149983446Y-105018009D01*
X149983459Y-105018016D01*
X150090829Y-105062489D01*
X150147334Y-105085894D01*
X150147336Y-105085894D01*
X150147341Y-105085896D01*
X150321304Y-105120499D01*
X150321307Y-105120500D01*
X150321309Y-105120500D01*
X150498693Y-105120500D01*
X150498694Y-105120499D01*
X150556682Y-105108964D01*
X150672658Y-105085896D01*
X150672661Y-105085894D01*
X150672666Y-105085894D01*
X150836547Y-105018013D01*
X150984035Y-104919464D01*
X151109464Y-104794035D01*
X151208013Y-104646547D01*
X151240942Y-104567047D01*
X151284782Y-104512645D01*
X151351076Y-104490579D01*
X151355503Y-104490500D01*
X152024466Y-104490500D01*
X152091505Y-104510185D01*
X152137260Y-104562989D01*
X152147204Y-104632147D01*
X152140648Y-104657832D01*
X152131403Y-104682617D01*
X152131401Y-104682627D01*
X152125000Y-104742155D01*
X152125000Y-104990000D01*
X153501000Y-104990000D01*
X153568039Y-105009685D01*
X153613794Y-105062489D01*
X153625000Y-105114000D01*
X153625000Y-105366000D01*
X153605315Y-105433039D01*
X153552511Y-105478794D01*
X153501000Y-105490000D01*
X152125000Y-105490000D01*
X152125000Y-105737844D01*
X152131401Y-105797372D01*
X152131403Y-105797379D01*
X152184746Y-105940399D01*
X152182930Y-105941076D01*
X152195383Y-105998316D01*
X152183428Y-106039033D01*
X152184303Y-106039359D01*
X152130908Y-106182517D01*
X152124501Y-106242116D01*
X152124500Y-106242135D01*
X152124500Y-107237870D01*
X152124501Y-107237876D01*
X152130909Y-107297485D01*
X152140115Y-107322168D01*
X152145099Y-107391860D01*
X152111613Y-107453182D01*
X152050289Y-107486667D01*
X152023933Y-107489500D01*
X151344500Y-107489500D01*
X151277461Y-107469815D01*
X151231706Y-107417011D01*
X151220500Y-107365500D01*
X151220500Y-107291306D01*
X151220499Y-107291304D01*
X151185896Y-107117341D01*
X151185893Y-107117332D01*
X151118016Y-106953459D01*
X151118009Y-106953446D01*
X151019464Y-106805965D01*
X151019461Y-106805961D01*
X150894038Y-106680538D01*
X150894034Y-106680535D01*
X150746553Y-106581990D01*
X150746540Y-106581983D01*
X150582667Y-106514106D01*
X150582658Y-106514103D01*
X150408694Y-106479500D01*
X150408691Y-106479500D01*
X150231309Y-106479500D01*
X150231306Y-106479500D01*
X150057341Y-106514103D01*
X150057337Y-106514105D01*
X150057335Y-106514105D01*
X150057334Y-106514106D01*
X150042953Y-106520062D01*
X149995505Y-106529500D01*
X149484311Y-106529500D01*
X149417272Y-106509815D01*
X149396634Y-106493185D01*
X149070498Y-106167048D01*
X149044237Y-106149501D01*
X149025447Y-106134080D01*
X147936819Y-105045451D01*
X147903334Y-104984128D01*
X147900500Y-104957770D01*
X147900500Y-103412230D01*
X147920185Y-103345191D01*
X147936819Y-103324549D01*
X148234549Y-103026819D01*
X148295872Y-102993334D01*
X148322230Y-102990500D01*
X150278770Y-102990500D01*
X150345809Y-103010185D01*
G37*
%TD.AperFunction*%
%TA.AperFunction,Conductor*%
G36*
X138402246Y-103010185D02*
G01*
X138448001Y-103062989D01*
X138449769Y-103067049D01*
X138461986Y-103096545D01*
X138560535Y-103244034D01*
X138560538Y-103244038D01*
X138685961Y-103369461D01*
X138685965Y-103369464D01*
X138833446Y-103468009D01*
X138833459Y-103468016D01*
X138956363Y-103518923D01*
X138997334Y-103535894D01*
X138997336Y-103535894D01*
X138997341Y-103535896D01*
X139177283Y-103571689D01*
X139176810Y-103574064D01*
X139231690Y-103596194D01*
X139272077Y-103653209D01*
X139275227Y-103723007D01*
X139242477Y-103781154D01*
X137526996Y-105496634D01*
X137465673Y-105530119D01*
X137395981Y-105525135D01*
X137351634Y-105496634D01*
X137345000Y-105490000D01*
X135969000Y-105490000D01*
X135901961Y-105470315D01*
X135856206Y-105417511D01*
X135845000Y-105366000D01*
X135845000Y-105240000D01*
X135719000Y-105240000D01*
X135651961Y-105220315D01*
X135606206Y-105167511D01*
X135595000Y-105116000D01*
X135595000Y-104990000D01*
X136095000Y-104990000D01*
X137345000Y-104990000D01*
X137345000Y-104742172D01*
X137344999Y-104742155D01*
X137338598Y-104682627D01*
X137338597Y-104682623D01*
X137285253Y-104539602D01*
X137286909Y-104538984D01*
X137274327Y-104481160D01*
X137286193Y-104440748D01*
X137285253Y-104440398D01*
X137338597Y-104297376D01*
X137338598Y-104297372D01*
X137344999Y-104237844D01*
X137345000Y-104237827D01*
X137345000Y-103990000D01*
X136095000Y-103990000D01*
X136095000Y-104990000D01*
X135595000Y-104990000D01*
X135595000Y-103864000D01*
X135614685Y-103796961D01*
X135667489Y-103751206D01*
X135719000Y-103740000D01*
X135845000Y-103740000D01*
X135845000Y-103614000D01*
X135864685Y-103546961D01*
X135917489Y-103501206D01*
X135969000Y-103490000D01*
X137345000Y-103490000D01*
X137345000Y-103242172D01*
X137344999Y-103242155D01*
X137338598Y-103182627D01*
X137338596Y-103182617D01*
X137329352Y-103157832D01*
X137324368Y-103088141D01*
X137357854Y-103026818D01*
X137419177Y-102993334D01*
X137445534Y-102990500D01*
X138335207Y-102990500D01*
X138402246Y-103010185D01*
G37*
%TD.AperFunction*%
%TA.AperFunction,Conductor*%
G36*
X154602539Y-94830185D02*
G01*
X154648294Y-94882989D01*
X154659500Y-94934500D01*
X154659500Y-98165500D01*
X154639815Y-98232539D01*
X154587011Y-98278294D01*
X154535500Y-98289500D01*
X152577129Y-98289500D01*
X152577123Y-98289501D01*
X152517516Y-98295908D01*
X152382671Y-98346202D01*
X152382664Y-98346206D01*
X152267457Y-98432451D01*
X152267451Y-98432457D01*
X152261948Y-98439809D01*
X152206015Y-98481681D01*
X152162680Y-98489500D01*
X150516080Y-98489500D01*
X150371092Y-98518340D01*
X150371082Y-98518343D01*
X150234511Y-98574912D01*
X150234498Y-98574919D01*
X150111587Y-98657046D01*
X150111582Y-98657050D01*
X149897805Y-98870824D01*
X149836482Y-98904308D01*
X149834318Y-98904759D01*
X149787338Y-98914104D01*
X149787331Y-98914106D01*
X149623459Y-98981983D01*
X149623446Y-98981990D01*
X149475965Y-99080535D01*
X149475961Y-99080538D01*
X149350538Y-99205961D01*
X149350535Y-99205965D01*
X149251990Y-99353446D01*
X149251983Y-99353459D01*
X149184106Y-99517332D01*
X149184103Y-99517341D01*
X149149500Y-99691304D01*
X149149500Y-99865500D01*
X149129815Y-99932539D01*
X149077011Y-99978294D01*
X149025500Y-99989500D01*
X145156076Y-99989500D01*
X145127242Y-99995234D01*
X145127243Y-99995235D01*
X145011093Y-100018339D01*
X145011089Y-100018340D01*
X144978460Y-100031856D01*
X144940582Y-100047546D01*
X144874505Y-100074916D01*
X144844573Y-100094916D01*
X144838141Y-100099213D01*
X144838140Y-100099214D01*
X144751584Y-100157048D01*
X144662181Y-100246451D01*
X144600857Y-100279935D01*
X144531166Y-100274951D01*
X144475232Y-100233079D01*
X144450816Y-100167614D01*
X144450500Y-100158769D01*
X144450500Y-97972228D01*
X144470185Y-97905189D01*
X144486814Y-97884552D01*
X145812192Y-96559173D01*
X145873513Y-96525690D01*
X145875545Y-96525266D01*
X145922666Y-96515894D01*
X146086547Y-96448013D01*
X146234035Y-96349464D01*
X146359464Y-96224035D01*
X146458013Y-96076547D01*
X146525894Y-95912666D01*
X146560500Y-95738691D01*
X146560500Y-95561309D01*
X146560500Y-95561306D01*
X146560499Y-95561304D01*
X146525896Y-95387341D01*
X146525893Y-95387332D01*
X146458016Y-95223459D01*
X146458009Y-95223446D01*
X146359464Y-95075965D01*
X146359461Y-95075961D01*
X146305681Y-95022181D01*
X146272196Y-94960858D01*
X146277180Y-94891166D01*
X146319052Y-94835233D01*
X146384516Y-94810816D01*
X146393362Y-94810500D01*
X154535500Y-94810500D01*
X154602539Y-94830185D01*
G37*
%TD.AperFunction*%
%TA.AperFunction,Conductor*%
G36*
X144993677Y-94830185D02*
G01*
X145039432Y-94882989D01*
X145049376Y-94952147D01*
X145020351Y-95015703D01*
X145014319Y-95022181D01*
X144960538Y-95075961D01*
X144960535Y-95075965D01*
X144861990Y-95223446D01*
X144861983Y-95223459D01*
X144794106Y-95387331D01*
X144794104Y-95387337D01*
X144784759Y-95434320D01*
X144752373Y-95496230D01*
X144750823Y-95497808D01*
X143117047Y-97131584D01*
X143117043Y-97131589D01*
X143068326Y-97204503D01*
X143068325Y-97204505D01*
X143051620Y-97229505D01*
X143034916Y-97254504D01*
X143034912Y-97254511D01*
X142978343Y-97391082D01*
X142978340Y-97391092D01*
X142949500Y-97536079D01*
X142949500Y-98587403D01*
X142929815Y-98654442D01*
X142877011Y-98700197D01*
X142807853Y-98710141D01*
X142756609Y-98690505D01*
X142661553Y-98626990D01*
X142661540Y-98626983D01*
X142497667Y-98559106D01*
X142497658Y-98559103D01*
X142323694Y-98524500D01*
X142323691Y-98524500D01*
X142146309Y-98524500D01*
X142146306Y-98524500D01*
X141972341Y-98559103D01*
X141972332Y-98559106D01*
X141808459Y-98626983D01*
X141808446Y-98626990D01*
X141660965Y-98725535D01*
X141592703Y-98793797D01*
X141531379Y-98827281D01*
X141461688Y-98822296D01*
X141405754Y-98780425D01*
X141401917Y-98775002D01*
X141392952Y-98761584D01*
X140039175Y-97407807D01*
X140005690Y-97346484D01*
X140005262Y-97344432D01*
X139995894Y-97297334D01*
X139957444Y-97204506D01*
X139928016Y-97133459D01*
X139928009Y-97133446D01*
X139829464Y-96985965D01*
X139829461Y-96985961D01*
X139704038Y-96860538D01*
X139704034Y-96860535D01*
X139556553Y-96761990D01*
X139556540Y-96761983D01*
X139392667Y-96694106D01*
X139392658Y-96694103D01*
X139218694Y-96659500D01*
X139218691Y-96659500D01*
X139041309Y-96659500D01*
X139041306Y-96659500D01*
X138867341Y-96694103D01*
X138867332Y-96694106D01*
X138703459Y-96761983D01*
X138703446Y-96761990D01*
X138555965Y-96860535D01*
X138555961Y-96860538D01*
X138430538Y-96985961D01*
X138430535Y-96985965D01*
X138331990Y-97133446D01*
X138331983Y-97133459D01*
X138264106Y-97297332D01*
X138264103Y-97297341D01*
X138229500Y-97471304D01*
X138229500Y-97648695D01*
X138264103Y-97822658D01*
X138264106Y-97822667D01*
X138331983Y-97986540D01*
X138331990Y-97986553D01*
X138430535Y-98134034D01*
X138430538Y-98134038D01*
X138555961Y-98259461D01*
X138555965Y-98259464D01*
X138703446Y-98358009D01*
X138703459Y-98358016D01*
X138780106Y-98389763D01*
X138867334Y-98425894D01*
X138914318Y-98435239D01*
X138976227Y-98467622D01*
X138977807Y-98469175D01*
X140023181Y-99514549D01*
X140056666Y-99575872D01*
X140059500Y-99602230D01*
X140059500Y-99919062D01*
X140039815Y-99986101D01*
X139987011Y-100031856D01*
X139917853Y-100041800D01*
X139866609Y-100022164D01*
X139776553Y-99961990D01*
X139776540Y-99961983D01*
X139612667Y-99894106D01*
X139612658Y-99894103D01*
X139438694Y-99859500D01*
X139438691Y-99859500D01*
X139261309Y-99859500D01*
X139261306Y-99859500D01*
X139087341Y-99894103D01*
X139087332Y-99894106D01*
X138923452Y-99961987D01*
X138923447Y-99961989D01*
X138883622Y-99988601D01*
X138816945Y-100009480D01*
X138814730Y-100009500D01*
X137438074Y-100009500D01*
X137371035Y-99989815D01*
X137325280Y-99937011D01*
X137315336Y-99867853D01*
X137321892Y-99842166D01*
X137338597Y-99797376D01*
X137338598Y-99797372D01*
X137344999Y-99737844D01*
X137345000Y-99737827D01*
X137345000Y-99490000D01*
X135969000Y-99490000D01*
X135901961Y-99470315D01*
X135856206Y-99417511D01*
X135845000Y-99366000D01*
X135845000Y-99240000D01*
X135719000Y-99240000D01*
X135651961Y-99220315D01*
X135606206Y-99167511D01*
X135595000Y-99116000D01*
X135595000Y-98990000D01*
X136095000Y-98990000D01*
X137345000Y-98990000D01*
X137345000Y-98742172D01*
X137344999Y-98742155D01*
X137338598Y-98682627D01*
X137338596Y-98682620D01*
X137288354Y-98547913D01*
X137288350Y-98547906D01*
X137202190Y-98432812D01*
X137202187Y-98432809D01*
X137087093Y-98346649D01*
X137087086Y-98346645D01*
X136952379Y-98296403D01*
X136952372Y-98296401D01*
X136892844Y-98290000D01*
X136095000Y-98290000D01*
X136095000Y-98990000D01*
X135595000Y-98990000D01*
X135595000Y-98290000D01*
X134904500Y-98290000D01*
X134837461Y-98270315D01*
X134791706Y-98217511D01*
X134780500Y-98166000D01*
X134780500Y-94934500D01*
X134800185Y-94867461D01*
X134852989Y-94821706D01*
X134904500Y-94810500D01*
X144926638Y-94810500D01*
X144993677Y-94830185D01*
G37*
%TD.AperFunction*%
%TD*%
M02*
