%TF.GenerationSoftware,KiCad,Pcbnew,10.0.3*%
%TF.CreationDate,2026-06-07T22:22:34+02:00*%
%TF.ProjectId,TYWE1S-ESP12_board,54595745-3153-42d4-9553-5031325f626f,rev?*%
%TF.SameCoordinates,Original*%
%TF.FileFunction,Copper,L2,Bot*%
%TF.FilePolarity,Positive*%
%FSLAX46Y46*%
G04 Gerber Fmt 4.6, Leading zero omitted, Abs format (unit mm)*
G04 Created by KiCad (PCBNEW 10.0.3) date 2026-06-07 22:22:34*
%MOMM*%
%LPD*%
G01*
G04 APERTURE LIST*
%TA.AperFunction,SMDPad,CuDef*%
%ADD10R,2.500000X1.400000*%
%TD*%
%TA.AperFunction,SMDPad,CuDef*%
%ADD11R,1.400000X1.700000*%
%TD*%
%TA.AperFunction,ViaPad*%
%ADD12C,0.800000*%
%TD*%
%TA.AperFunction,Conductor*%
%ADD13C,0.500000*%
%TD*%
G04 APERTURE END LIST*
D10*
%TO.P,U1,16,TXD0_16*%
%TO.N,TX*%
X137217500Y-95467500D03*
%TO.P,U1,15,RXD0_15*%
%TO.N,RX*%
X137217500Y-97467500D03*
%TO.P,U1,14,GPIO5_14*%
%TO.N,IO5*%
X137217500Y-99467500D03*
%TO.P,U1,13,GPIO4_13*%
%TO.N,IO4*%
X137217500Y-101467500D03*
%TO.P,U1,12,GPIO0_12*%
%TO.N,IO0*%
X137217500Y-103467500D03*
%TO.P,U1,11,GPIO2_11*%
%TO.N,IO1*%
X137217500Y-105467500D03*
%TO.P,U1,10,GPIO15_10*%
%TO.N,TX1*%
X137217500Y-107467500D03*
%TO.P,U1,9,GND_9*%
%TO.N,GND*%
X137217500Y-109467500D03*
D11*
%TO.P,U1,22,SCLK_22*%
%TO.N,unconnected-(U1-SCLK-Pad22)*%
X139767500Y-110767500D03*
%TO.P,U1,21,MOSI_21*%
%TO.N,unconnected-(U1-MOSI-Pad21)*%
X141767500Y-110767500D03*
%TO.P,U1,20,GPIO10_20*%
%TO.N,unconnected-(U1-GPIO10-Pad20)*%
X143767500Y-110767500D03*
%TO.P,U1,19,GPIO9_19*%
%TO.N,unconnected-(U1-GPIO9-Pad19)*%
X145767500Y-110767500D03*
%TO.P,U1,18,MISO_18*%
%TO.N,unconnected-(U1-MISO-Pad18)*%
X147767500Y-110767500D03*
%TO.P,U1,17,CS0_17*%
%TO.N,unconnected-(U1-CS0-Pad17)*%
X149767500Y-110767500D03*
D10*
%TO.P,U1,8,VCC_8*%
%TO.N,VCC*%
X152317500Y-109467500D03*
%TO.P,U1,7,GPIO13_7*%
%TO.N,RX1*%
X152317500Y-107467500D03*
%TO.P,U1,6,GPIO12_6*%
%TO.N,IO12*%
X152317500Y-105467500D03*
%TO.P,U1,5,GPIO14_5*%
%TO.N,IO14*%
X152317500Y-103467500D03*
%TO.P,U1,4,GPIO16_4*%
%TO.N,unconnected-(U1-GPIO16-Pad4)*%
X152317500Y-101467500D03*
%TO.P,U1,3,EN_3*%
%TO.N,unconnected-(U1-EN-Pad3)*%
X152317500Y-99467500D03*
%TO.P,U1,2,ADC_2*%
%TO.N,TOUT*%
X152317500Y-97467500D03*
%TO.P,U1,1,RST_1*%
%TO.N,RST*%
X152317500Y-95467500D03*
%TD*%
D12*
%TO.N,GND*%
X147560000Y-108540000D03*
X144890000Y-106540000D03*
X145020000Y-108880000D03*
X149910000Y-106330000D03*
X148120000Y-103530000D03*
X135190000Y-105260000D03*
X135250000Y-103750000D03*
X151810000Y-112110000D03*
X154270000Y-95590000D03*
X154270000Y-97590000D03*
X135200000Y-96790000D03*
X135170000Y-95510000D03*
X137610000Y-112100000D03*
X141600000Y-108910000D03*
X145600000Y-105430000D03*
X145000000Y-107790000D03*
X145600000Y-103640000D03*
X145600000Y-101760000D03*
X148960000Y-98940000D03*
X147950000Y-99440000D03*
X147130000Y-98900000D03*
X145990000Y-99440000D03*
X149480000Y-96680000D03*
X146910000Y-96700000D03*
X140620000Y-95540000D03*
X141770000Y-95670000D03*
X143170000Y-96290000D03*
X141810000Y-97120000D03*
%TO.N,IO14*%
X154410000Y-106580000D03*
%TO.N,VCC*%
X150050000Y-99780000D03*
X150410000Y-104220000D03*
%TO.N,IO12*%
X147900000Y-107430000D03*
%TO.N,RX1*%
X150320000Y-107380000D03*
%TO.N,TX1*%
X143480000Y-102490000D03*
%TO.N,RST*%
X145660000Y-95650000D03*
X143700000Y-100890000D03*
%TO.N,TX*%
X142235000Y-99425000D03*
%TO.N,IO0*%
X142640000Y-104930000D03*
%TO.N,IO5*%
X141700000Y-100270000D03*
%TO.N,RX*%
X139130000Y-97560000D03*
%TO.N,IO1*%
X139350000Y-106050000D03*
%TO.N,IO4*%
X139840000Y-101780000D03*
%TO.N,RST*%
X139260000Y-102670000D03*
%TO.N,TOUT*%
X139350000Y-100760000D03*
%TD*%
%TO.N,TX1*%
D13*
X143480000Y-102490000D02*
X143490000Y-102500000D01*
X143490000Y-102500000D02*
X143490000Y-105282082D01*
X143490000Y-105282082D02*
X142992082Y-105780000D01*
X142992082Y-105780000D02*
X140860000Y-105780000D01*
X140860000Y-105780000D02*
X139172500Y-107467500D01*
X139172500Y-107467500D02*
X137217500Y-107467500D01*
%TO.N,IO12*%
X147900000Y-107430000D02*
X148240000Y-107090000D01*
X148240000Y-107090000D02*
X148240000Y-106400000D01*
X148240000Y-106400000D02*
X149172500Y-105467500D01*
X149172500Y-105467500D02*
X152317500Y-105467500D01*
%TO.N,VCC*%
X146927500Y-109467500D02*
X146230000Y-108770000D01*
X146230000Y-108770000D02*
X146230000Y-107680000D01*
X146230000Y-107680000D02*
X147390000Y-106520000D01*
X147390000Y-106520000D02*
X147390000Y-106260051D01*
X152317500Y-109467500D02*
X146927500Y-109467500D01*
X147390000Y-106260051D02*
X149430051Y-104220000D01*
%TO.N,TOUT*%
X142850000Y-100750050D02*
X142850000Y-100537918D01*
X140987918Y-100760000D02*
X141347918Y-101120000D01*
X141347918Y-101120000D02*
X142480050Y-101120000D01*
X139350000Y-100760000D02*
X140987918Y-100760000D01*
X142480050Y-101120000D02*
X142850000Y-100750050D01*
X144050000Y-100040000D02*
X146110000Y-97980000D01*
X146110000Y-97980000D02*
X151805000Y-97980000D01*
X142850000Y-100537918D02*
X143347918Y-100040000D01*
X143347918Y-100040000D02*
X144050000Y-100040000D01*
X151805000Y-97980000D02*
X152317500Y-97467500D01*
%TO.N,VCC*%
X150050000Y-99780000D02*
X149430051Y-100399949D01*
X149430051Y-100399949D02*
X149430051Y-104220000D01*
%TO.N,IO14*%
X154410000Y-103810000D02*
X154410000Y-106580000D01*
X154067500Y-103467500D02*
X154410000Y-103810000D01*
X152317500Y-103467500D02*
X154067500Y-103467500D01*
%TO.N,VCC*%
X149430051Y-104220000D02*
X150410000Y-104220000D01*
%TO.N,RX1*%
X150320000Y-107380000D02*
X152230000Y-107380000D01*
X152230000Y-107380000D02*
X152317500Y-107467500D01*
%TO.N,RST*%
X145660000Y-95650000D02*
X145842500Y-95467500D01*
X145842500Y-95467500D02*
X152317500Y-95467500D01*
X142667918Y-101922082D02*
X143700000Y-100890000D01*
X140900000Y-101922082D02*
X142667918Y-101922082D01*
%TO.N,TX*%
X142235000Y-99425000D02*
X142370000Y-99560000D01*
X138277500Y-95467500D02*
X142235000Y-99425000D01*
X137217500Y-95467500D02*
X138277500Y-95467500D01*
%TO.N,IO0*%
X137270000Y-103520000D02*
X141230000Y-103520000D01*
X141230000Y-103520000D02*
X142640000Y-104930000D01*
X137217500Y-103467500D02*
X137270000Y-103520000D01*
%TO.N,IO5*%
X141700000Y-100270000D02*
X140897500Y-99467500D01*
X140897500Y-99467500D02*
X137217500Y-99467500D01*
%TO.N,RX*%
X139130000Y-97560000D02*
X137310000Y-97560000D01*
X137310000Y-97560000D02*
X137217500Y-97467500D01*
%TO.N,IO1*%
X139350000Y-106050000D02*
X138767500Y-105467500D01*
X138767500Y-105467500D02*
X137217500Y-105467500D01*
%TO.N,RST*%
X140152082Y-102670000D02*
X140900000Y-101922082D01*
X139260000Y-102670000D02*
X140152082Y-102670000D01*
%TO.N,IO4*%
X139840000Y-101780000D02*
X137530000Y-101780000D01*
X137530000Y-101780000D02*
X137217500Y-101467500D01*
%TD*%
%TA.AperFunction,Conductor*%
%TO.N,GND*%
G36*
X135410039Y-94830185D02*
G01*
X135455794Y-94882989D01*
X135467000Y-94934500D01*
X135467000Y-96215370D01*
X135467001Y-96215376D01*
X135473408Y-96274983D01*
X135526803Y-96418141D01*
X135525075Y-96418785D01*
X135537595Y-96476353D01*
X135525810Y-96516488D01*
X135526803Y-96516859D01*
X135473408Y-96660017D01*
X135467001Y-96719616D01*
X135467001Y-96719623D01*
X135467000Y-96719635D01*
X135467000Y-98215370D01*
X135467001Y-98215376D01*
X135473408Y-98274983D01*
X135526803Y-98418141D01*
X135525075Y-98418785D01*
X135537595Y-98476353D01*
X135525810Y-98516488D01*
X135526803Y-98516859D01*
X135473408Y-98660017D01*
X135467953Y-98710762D01*
X135467001Y-98719623D01*
X135467000Y-98719635D01*
X135467000Y-100215370D01*
X135467001Y-100215376D01*
X135473408Y-100274983D01*
X135526803Y-100418141D01*
X135525075Y-100418785D01*
X135537595Y-100476353D01*
X135525810Y-100516488D01*
X135526803Y-100516859D01*
X135473408Y-100660017D01*
X135467947Y-100710816D01*
X135467001Y-100719623D01*
X135467000Y-100719635D01*
X135467000Y-102215370D01*
X135467001Y-102215376D01*
X135473408Y-102274983D01*
X135526803Y-102418141D01*
X135525075Y-102418785D01*
X135537595Y-102476353D01*
X135525810Y-102516488D01*
X135526803Y-102516859D01*
X135473408Y-102660017D01*
X135467001Y-102719616D01*
X135467000Y-102719635D01*
X135467000Y-104215370D01*
X135467001Y-104215376D01*
X135473408Y-104274983D01*
X135526803Y-104418141D01*
X135525075Y-104418785D01*
X135537595Y-104476353D01*
X135525810Y-104516488D01*
X135526803Y-104516859D01*
X135473408Y-104660017D01*
X135467001Y-104719616D01*
X135467000Y-104719635D01*
X135467000Y-106215370D01*
X135467001Y-106215376D01*
X135473408Y-106274983D01*
X135526803Y-106418141D01*
X135525075Y-106418785D01*
X135537595Y-106476353D01*
X135525810Y-106516488D01*
X135526803Y-106516859D01*
X135473408Y-106660017D01*
X135467001Y-106719616D01*
X135467000Y-106719635D01*
X135467000Y-108215370D01*
X135467001Y-108215376D01*
X135473408Y-108274983D01*
X135526803Y-108418141D01*
X135525233Y-108418726D01*
X135537883Y-108476867D01*
X135526187Y-108516706D01*
X135527246Y-108517101D01*
X135473903Y-108660120D01*
X135473901Y-108660127D01*
X135467500Y-108719655D01*
X135467500Y-109217500D01*
X137093500Y-109217500D01*
X137160539Y-109237185D01*
X137206294Y-109289989D01*
X137217500Y-109341500D01*
X137217500Y-109467500D01*
X137343500Y-109467500D01*
X137410539Y-109487185D01*
X137456294Y-109539989D01*
X137467500Y-109591500D01*
X137467500Y-110667500D01*
X138443000Y-110667500D01*
X138510039Y-110687185D01*
X138555794Y-110739989D01*
X138567000Y-110791500D01*
X138567000Y-111665370D01*
X138567001Y-111665376D01*
X138573408Y-111724983D01*
X138623702Y-111859828D01*
X138623706Y-111859835D01*
X138709952Y-111975044D01*
X138709955Y-111975047D01*
X138825164Y-112061293D01*
X138825171Y-112061297D01*
X138960017Y-112111591D01*
X138960016Y-112111591D01*
X138966944Y-112112335D01*
X139019627Y-112118000D01*
X140515372Y-112117999D01*
X140574983Y-112111591D01*
X140709831Y-112061296D01*
X140709833Y-112061294D01*
X140718140Y-112058196D01*
X140718785Y-112059926D01*
X140776337Y-112047402D01*
X140816488Y-112059191D01*
X140816860Y-112058196D01*
X140825166Y-112061294D01*
X140825169Y-112061296D01*
X140960017Y-112111591D01*
X141019627Y-112118000D01*
X142515372Y-112117999D01*
X142574983Y-112111591D01*
X142709831Y-112061296D01*
X142709833Y-112061294D01*
X142718140Y-112058196D01*
X142718785Y-112059926D01*
X142776337Y-112047402D01*
X142816488Y-112059191D01*
X142816860Y-112058196D01*
X142825166Y-112061294D01*
X142825169Y-112061296D01*
X142960017Y-112111591D01*
X143019627Y-112118000D01*
X144515372Y-112117999D01*
X144574983Y-112111591D01*
X144709831Y-112061296D01*
X144709833Y-112061294D01*
X144718140Y-112058196D01*
X144718785Y-112059926D01*
X144776337Y-112047402D01*
X144816488Y-112059191D01*
X144816860Y-112058196D01*
X144825166Y-112061294D01*
X144825169Y-112061296D01*
X144960017Y-112111591D01*
X145019627Y-112118000D01*
X146515372Y-112117999D01*
X146574983Y-112111591D01*
X146709831Y-112061296D01*
X146709833Y-112061294D01*
X146718140Y-112058196D01*
X146718785Y-112059926D01*
X146776337Y-112047402D01*
X146816488Y-112059191D01*
X146816860Y-112058196D01*
X146825166Y-112061294D01*
X146825169Y-112061296D01*
X146960017Y-112111591D01*
X147019627Y-112118000D01*
X148515372Y-112117999D01*
X148574983Y-112111591D01*
X148709831Y-112061296D01*
X148709833Y-112061294D01*
X148718140Y-112058196D01*
X148718785Y-112059926D01*
X148776337Y-112047402D01*
X148816488Y-112059191D01*
X148816860Y-112058196D01*
X148825166Y-112061294D01*
X148825169Y-112061296D01*
X148960017Y-112111591D01*
X149019627Y-112118000D01*
X150515372Y-112117999D01*
X150574983Y-112111591D01*
X150709831Y-112061296D01*
X150825046Y-111975046D01*
X150911296Y-111859831D01*
X150961591Y-111724983D01*
X150968000Y-111665373D01*
X150967999Y-110791998D01*
X150987683Y-110724960D01*
X151040487Y-110679205D01*
X151091994Y-110667999D01*
X153615372Y-110667999D01*
X153674983Y-110661591D01*
X153809831Y-110611296D01*
X153925046Y-110525046D01*
X154011296Y-110409831D01*
X154061591Y-110274983D01*
X154068000Y-110215373D01*
X154067999Y-108719628D01*
X154061591Y-108660017D01*
X154011296Y-108525169D01*
X154011294Y-108525166D01*
X154008196Y-108516860D01*
X154009926Y-108516214D01*
X153997402Y-108458663D01*
X154009191Y-108418511D01*
X154008196Y-108418140D01*
X154011294Y-108409833D01*
X154011296Y-108409831D01*
X154061591Y-108274983D01*
X154068000Y-108215373D01*
X154067999Y-107581207D01*
X154087683Y-107514169D01*
X154140487Y-107468414D01*
X154209646Y-107458470D01*
X154216190Y-107459591D01*
X154321304Y-107480499D01*
X154321307Y-107480500D01*
X154321309Y-107480500D01*
X154498692Y-107480500D01*
X154511304Y-107477991D01*
X154580895Y-107484215D01*
X154636075Y-107527076D01*
X154659322Y-107592965D01*
X154659500Y-107599607D01*
X154659500Y-112365500D01*
X154639815Y-112432539D01*
X154587011Y-112478294D01*
X154535500Y-112489500D01*
X134904500Y-112489500D01*
X134837461Y-112469815D01*
X134791706Y-112417011D01*
X134780500Y-112365500D01*
X134780500Y-110215344D01*
X135467500Y-110215344D01*
X135473901Y-110274872D01*
X135473903Y-110274879D01*
X135524145Y-110409586D01*
X135524149Y-110409593D01*
X135610309Y-110524687D01*
X135610312Y-110524690D01*
X135725406Y-110610850D01*
X135725413Y-110610854D01*
X135860120Y-110661096D01*
X135860127Y-110661098D01*
X135919655Y-110667499D01*
X135919672Y-110667500D01*
X136967500Y-110667500D01*
X136967500Y-109717500D01*
X135467500Y-109717500D01*
X135467500Y-110215344D01*
X134780500Y-110215344D01*
X134780500Y-94934500D01*
X134800185Y-94867461D01*
X134852989Y-94821706D01*
X134904500Y-94810500D01*
X135343000Y-94810500D01*
X135410039Y-94830185D01*
G37*
%TD.AperFunction*%
%TA.AperFunction,Conductor*%
G36*
X149618017Y-98733674D02*
G01*
X149629223Y-98732470D01*
X149650944Y-98743343D01*
X149674245Y-98750185D01*
X149681623Y-98758699D01*
X149691702Y-98763745D01*
X149704097Y-98784636D01*
X149720000Y-98802989D01*
X149721603Y-98814142D01*
X149727354Y-98823834D01*
X149726487Y-98848105D01*
X149729944Y-98872147D01*
X149725262Y-98882398D01*
X149724860Y-98893660D01*
X149711008Y-98913609D01*
X149700919Y-98935703D01*
X149690405Y-98943284D01*
X149685012Y-98951052D01*
X149654658Y-98969061D01*
X149623459Y-98981983D01*
X149623446Y-98981990D01*
X149475965Y-99080535D01*
X149475961Y-99080538D01*
X149350538Y-99205961D01*
X149350535Y-99205965D01*
X149251990Y-99353446D01*
X149251983Y-99353459D01*
X149184106Y-99517331D01*
X149184104Y-99517337D01*
X149174759Y-99564319D01*
X149142373Y-99626230D01*
X149140824Y-99627807D01*
X148847094Y-99921538D01*
X148801687Y-99989498D01*
X148801686Y-99989500D01*
X148764970Y-100044448D01*
X148764963Y-100044460D01*
X148708394Y-100181031D01*
X148708391Y-100181041D01*
X148679551Y-100326028D01*
X148679551Y-103857769D01*
X148659866Y-103924808D01*
X148643232Y-103945450D01*
X146807052Y-105781629D01*
X146807049Y-105781632D01*
X146774005Y-105831086D01*
X146774006Y-105831087D01*
X146724913Y-105904559D01*
X146668343Y-106041133D01*
X146668341Y-106041142D01*
X146641126Y-106177953D01*
X146608740Y-106239863D01*
X146607190Y-106241441D01*
X145647045Y-107201586D01*
X145615644Y-107248585D01*
X145615642Y-107248588D01*
X145564919Y-107324498D01*
X145564912Y-107324511D01*
X145508343Y-107461082D01*
X145508340Y-107461092D01*
X145479500Y-107606079D01*
X145479500Y-107606082D01*
X145479500Y-108843918D01*
X145479500Y-108843920D01*
X145479499Y-108843920D01*
X145508340Y-108988907D01*
X145508343Y-108988917D01*
X145564914Y-109125492D01*
X145597812Y-109174727D01*
X145597813Y-109174729D01*
X145630808Y-109224110D01*
X145630808Y-109224111D01*
X145651685Y-109290788D01*
X145648897Y-109300949D01*
X145633200Y-109358167D01*
X145633199Y-109358167D01*
X145633199Y-109358168D01*
X145581220Y-109404858D01*
X145581208Y-109404859D01*
X145527705Y-109417000D01*
X145019629Y-109417000D01*
X145019623Y-109417001D01*
X144960016Y-109423408D01*
X144816859Y-109476803D01*
X144816214Y-109475075D01*
X144758647Y-109487595D01*
X144718511Y-109475810D01*
X144718141Y-109476803D01*
X144574982Y-109423408D01*
X144574983Y-109423408D01*
X144515383Y-109417001D01*
X144515381Y-109417000D01*
X144515373Y-109417000D01*
X144515364Y-109417000D01*
X143019629Y-109417000D01*
X143019623Y-109417001D01*
X142960016Y-109423408D01*
X142816859Y-109476803D01*
X142816214Y-109475075D01*
X142758647Y-109487595D01*
X142718511Y-109475810D01*
X142718141Y-109476803D01*
X142574982Y-109423408D01*
X142574983Y-109423408D01*
X142515383Y-109417001D01*
X142515381Y-109417000D01*
X142515373Y-109417000D01*
X142515364Y-109417000D01*
X141019629Y-109417000D01*
X141019623Y-109417001D01*
X140960016Y-109423408D01*
X140816859Y-109476803D01*
X140816214Y-109475075D01*
X140758647Y-109487595D01*
X140718511Y-109475810D01*
X140718141Y-109476803D01*
X140574982Y-109423408D01*
X140574983Y-109423408D01*
X140515383Y-109417001D01*
X140515381Y-109417000D01*
X140515373Y-109417000D01*
X140515365Y-109417000D01*
X139091500Y-109417000D01*
X139024461Y-109397315D01*
X138978706Y-109344511D01*
X138967500Y-109293000D01*
X138967500Y-108719672D01*
X138967499Y-108719655D01*
X138961098Y-108660127D01*
X138961097Y-108660123D01*
X138907753Y-108517102D01*
X138909388Y-108516491D01*
X138904441Y-108492856D01*
X138897116Y-108459174D01*
X138897257Y-108458534D01*
X138897189Y-108458205D01*
X138897743Y-108456345D01*
X138904963Y-108423778D01*
X138909242Y-108412573D01*
X138911296Y-108409831D01*
X138952921Y-108298226D01*
X138953103Y-108297752D01*
X138974033Y-108270247D01*
X138994630Y-108242733D01*
X138995105Y-108242555D01*
X138995414Y-108242150D01*
X139027846Y-108230343D01*
X139060094Y-108218316D01*
X139060974Y-108218284D01*
X139061069Y-108218250D01*
X139061188Y-108218276D01*
X139068940Y-108218000D01*
X139246420Y-108218000D01*
X139343962Y-108198596D01*
X139391413Y-108189158D01*
X139527995Y-108132584D01*
X139607495Y-108079464D01*
X139650916Y-108050452D01*
X141134548Y-106566818D01*
X141195871Y-106533334D01*
X141222229Y-106530500D01*
X143066002Y-106530500D01*
X143163544Y-106511096D01*
X143210995Y-106501658D01*
X143302049Y-106463942D01*
X143347575Y-106445085D01*
X143347575Y-106445084D01*
X143347577Y-106445084D01*
X143406828Y-106405494D01*
X143406828Y-106405493D01*
X143406830Y-106405493D01*
X143438663Y-106384223D01*
X143470498Y-106362952D01*
X144072951Y-105760498D01*
X144155084Y-105637577D01*
X144211658Y-105500995D01*
X144240500Y-105356000D01*
X144240500Y-105208165D01*
X144240500Y-103010303D01*
X144260185Y-102943264D01*
X144261346Y-102941489D01*
X144278013Y-102916547D01*
X144345894Y-102752666D01*
X144346598Y-102749130D01*
X144380499Y-102578695D01*
X144380500Y-102578693D01*
X144380500Y-102401306D01*
X144380499Y-102401304D01*
X144345896Y-102227341D01*
X144345893Y-102227332D01*
X144278016Y-102063459D01*
X144278009Y-102063446D01*
X144179464Y-101915965D01*
X144179461Y-101915961D01*
X144128461Y-101864961D01*
X144094976Y-101803638D01*
X144099960Y-101733946D01*
X144141832Y-101678013D01*
X144147252Y-101674178D01*
X144274035Y-101589464D01*
X144399464Y-101464035D01*
X144498013Y-101316547D01*
X144565894Y-101152666D01*
X144600500Y-100978691D01*
X144600500Y-100801309D01*
X144600500Y-100801306D01*
X144579445Y-100695458D01*
X144571879Y-100657422D01*
X144578106Y-100587832D01*
X144605813Y-100545553D01*
X146384549Y-98766819D01*
X146445872Y-98733334D01*
X146472230Y-98730500D01*
X149607206Y-98730500D01*
X149618017Y-98733674D01*
G37*
%TD.AperFunction*%
%TA.AperFunction,Conductor*%
G36*
X150533099Y-106237685D02*
G01*
X150578854Y-106290489D01*
X150582242Y-106298667D01*
X150591299Y-106322950D01*
X150596283Y-106392641D01*
X150562798Y-106453965D01*
X150501475Y-106487449D01*
X150450927Y-106487901D01*
X150408691Y-106479500D01*
X150231309Y-106479500D01*
X150231306Y-106479500D01*
X150057341Y-106514103D01*
X150057332Y-106514106D01*
X149893459Y-106581983D01*
X149893446Y-106581990D01*
X149745965Y-106680535D01*
X149745961Y-106680538D01*
X149620538Y-106805961D01*
X149620535Y-106805965D01*
X149521990Y-106953446D01*
X149521983Y-106953459D01*
X149454106Y-107117332D01*
X149454103Y-107117341D01*
X149419500Y-107291304D01*
X149419500Y-107468695D01*
X149454103Y-107642658D01*
X149454106Y-107642667D01*
X149521983Y-107806540D01*
X149521990Y-107806553D01*
X149620535Y-107954034D01*
X149620538Y-107954038D01*
X149745960Y-108079460D01*
X149745965Y-108079464D01*
X149893446Y-108178009D01*
X149893459Y-108178016D01*
X149990677Y-108218284D01*
X150057334Y-108245894D01*
X150057336Y-108245894D01*
X150057341Y-108245896D01*
X150231304Y-108280499D01*
X150231307Y-108280500D01*
X150231309Y-108280500D01*
X150408692Y-108280500D01*
X150427006Y-108276856D01*
X150460450Y-108270204D01*
X150493482Y-108273159D01*
X150526574Y-108275126D01*
X150528125Y-108276258D01*
X150530040Y-108276430D01*
X150556212Y-108296761D01*
X150583008Y-108316321D01*
X150584228Y-108318524D01*
X150585218Y-108319293D01*
X150600294Y-108347092D01*
X150600571Y-108347809D01*
X150623704Y-108409831D01*
X150625471Y-108412192D01*
X150629563Y-108422771D01*
X150631825Y-108449823D01*
X150637595Y-108476353D01*
X150634831Y-108485765D01*
X150635386Y-108492398D01*
X150629782Y-108502960D01*
X150625810Y-108516488D01*
X150626803Y-108516859D01*
X150582242Y-108636333D01*
X150540371Y-108692267D01*
X150474907Y-108716684D01*
X150466060Y-108717000D01*
X147289730Y-108717000D01*
X147222691Y-108697315D01*
X147202049Y-108680681D01*
X147016819Y-108495451D01*
X146983334Y-108434128D01*
X146980500Y-108407770D01*
X146980500Y-108082477D01*
X147000185Y-108015438D01*
X147052989Y-107969683D01*
X147122147Y-107959739D01*
X147185703Y-107988764D01*
X147200359Y-108003819D01*
X147200541Y-108004041D01*
X147325961Y-108129461D01*
X147325965Y-108129464D01*
X147473446Y-108228009D01*
X147473459Y-108228016D01*
X147575312Y-108270204D01*
X147637334Y-108295894D01*
X147637336Y-108295894D01*
X147637341Y-108295896D01*
X147811304Y-108330499D01*
X147811307Y-108330500D01*
X147811309Y-108330500D01*
X147988693Y-108330500D01*
X147988694Y-108330499D01*
X148059973Y-108316321D01*
X148162658Y-108295896D01*
X148162661Y-108295894D01*
X148162666Y-108295894D01*
X148326547Y-108228013D01*
X148474035Y-108129464D01*
X148599464Y-108004035D01*
X148698013Y-107856547D01*
X148765894Y-107692666D01*
X148775240Y-107645679D01*
X148807622Y-107583771D01*
X148809087Y-107582278D01*
X148822952Y-107568415D01*
X148881694Y-107480500D01*
X148883371Y-107477991D01*
X148889582Y-107468695D01*
X148905084Y-107445495D01*
X148942120Y-107356082D01*
X148961659Y-107308912D01*
X148990500Y-107163917D01*
X148990500Y-107016082D01*
X148990500Y-106762229D01*
X149010185Y-106695190D01*
X149026819Y-106674548D01*
X149447048Y-106254319D01*
X149508371Y-106220834D01*
X149534729Y-106218000D01*
X150466060Y-106218000D01*
X150533099Y-106237685D01*
G37*
%TD.AperFunction*%
%TA.AperFunction,Conductor*%
G36*
X154602539Y-94830185D02*
G01*
X154648294Y-94882989D01*
X154659500Y-94934500D01*
X154659500Y-102728455D01*
X154639815Y-102795494D01*
X154587011Y-102841249D01*
X154517853Y-102851193D01*
X154466611Y-102831558D01*
X154422995Y-102802415D01*
X154422993Y-102802414D01*
X154286417Y-102745843D01*
X154286408Y-102745841D01*
X154145973Y-102717905D01*
X154137358Y-102713398D01*
X154127658Y-102712774D01*
X154106908Y-102697469D01*
X154084063Y-102685519D01*
X154077754Y-102675966D01*
X154071429Y-102671301D01*
X154055150Y-102641740D01*
X154054295Y-102640445D01*
X154054112Y-102639966D01*
X154011296Y-102525169D01*
X154009400Y-102522636D01*
X154005216Y-102511657D01*
X154003111Y-102484898D01*
X153997402Y-102458663D01*
X154000277Y-102448870D01*
X153999737Y-102442002D01*
X154005381Y-102431489D01*
X154009191Y-102418511D01*
X154008196Y-102418140D01*
X154011294Y-102409833D01*
X154011296Y-102409831D01*
X154061591Y-102274983D01*
X154068000Y-102215373D01*
X154067999Y-100719628D01*
X154061591Y-100660017D01*
X154011296Y-100525169D01*
X154011294Y-100525166D01*
X154008196Y-100516860D01*
X154009926Y-100516214D01*
X153997402Y-100458663D01*
X154009191Y-100418511D01*
X154008196Y-100418140D01*
X154011294Y-100409833D01*
X154011296Y-100409831D01*
X154061591Y-100274983D01*
X154068000Y-100215373D01*
X154067999Y-98719628D01*
X154061591Y-98660017D01*
X154011296Y-98525169D01*
X154011294Y-98525166D01*
X154008196Y-98516860D01*
X154009926Y-98516214D01*
X153997402Y-98458663D01*
X154009191Y-98418511D01*
X154008196Y-98418140D01*
X154011294Y-98409833D01*
X154011296Y-98409831D01*
X154061591Y-98274983D01*
X154068000Y-98215373D01*
X154067999Y-96719628D01*
X154061591Y-96660017D01*
X154011296Y-96525169D01*
X154011294Y-96525166D01*
X154008196Y-96516860D01*
X154009926Y-96516214D01*
X153997402Y-96458663D01*
X154009191Y-96418511D01*
X154008196Y-96418140D01*
X154011294Y-96409833D01*
X154011296Y-96409831D01*
X154061591Y-96274983D01*
X154068000Y-96215373D01*
X154067999Y-94934499D01*
X154087684Y-94867461D01*
X154140487Y-94821706D01*
X154191999Y-94810500D01*
X154535500Y-94810500D01*
X154602539Y-94830185D01*
G37*
%TD.AperFunction*%
%TA.AperFunction,Conductor*%
G36*
X144993677Y-94830185D02*
G01*
X145039432Y-94882989D01*
X145049376Y-94952147D01*
X145020351Y-95015703D01*
X145014319Y-95022181D01*
X144960538Y-95075961D01*
X144960535Y-95075965D01*
X144861990Y-95223446D01*
X144861983Y-95223459D01*
X144794106Y-95387332D01*
X144794103Y-95387341D01*
X144759500Y-95561304D01*
X144759500Y-95738695D01*
X144794103Y-95912658D01*
X144794106Y-95912667D01*
X144861983Y-96076540D01*
X144861990Y-96076553D01*
X144960535Y-96224034D01*
X144960538Y-96224038D01*
X145085961Y-96349461D01*
X145085965Y-96349464D01*
X145233446Y-96448009D01*
X145233459Y-96448016D01*
X145325462Y-96486124D01*
X145397334Y-96515894D01*
X145397336Y-96515894D01*
X145397341Y-96515896D01*
X145571304Y-96550499D01*
X145571307Y-96550500D01*
X145571309Y-96550500D01*
X145748693Y-96550500D01*
X145748694Y-96550499D01*
X145806682Y-96538964D01*
X145922658Y-96515896D01*
X145922661Y-96515894D01*
X145922666Y-96515894D01*
X146086547Y-96448013D01*
X146234035Y-96349464D01*
X146234038Y-96349461D01*
X146329181Y-96254319D01*
X146390504Y-96220834D01*
X146416862Y-96218000D01*
X150466060Y-96218000D01*
X150486885Y-96224115D01*
X150508548Y-96225506D01*
X150519749Y-96233765D01*
X150533099Y-96237685D01*
X150547311Y-96254087D01*
X150564784Y-96266970D01*
X150575790Y-96286953D01*
X150578854Y-96290489D01*
X150581924Y-96297823D01*
X150582096Y-96298275D01*
X150623704Y-96409831D01*
X150625592Y-96412353D01*
X150629775Y-96423323D01*
X150631886Y-96450102D01*
X150637595Y-96476353D01*
X150634725Y-96486124D01*
X150635266Y-96492977D01*
X150629630Y-96503478D01*
X150625810Y-96516488D01*
X150626803Y-96516859D01*
X150573408Y-96660017D01*
X150567001Y-96719616D01*
X150567001Y-96719623D01*
X150567000Y-96719635D01*
X150567000Y-97105500D01*
X150547315Y-97172539D01*
X150494511Y-97218294D01*
X150443000Y-97229500D01*
X146036080Y-97229500D01*
X145891092Y-97258340D01*
X145891082Y-97258343D01*
X145754508Y-97314914D01*
X145754505Y-97314915D01*
X145754505Y-97314916D01*
X145715337Y-97341087D01*
X145715336Y-97341086D01*
X145631585Y-97397046D01*
X145631578Y-97397052D01*
X143775451Y-99253181D01*
X143714128Y-99286666D01*
X143687770Y-99289500D01*
X143273998Y-99289500D01*
X143253428Y-99293591D01*
X143183837Y-99287362D01*
X143128660Y-99244497D01*
X143107623Y-99196166D01*
X143100894Y-99162334D01*
X143051227Y-99042426D01*
X143033016Y-98998459D01*
X143033009Y-98998446D01*
X142934464Y-98850965D01*
X142934461Y-98850961D01*
X142809038Y-98725538D01*
X142809034Y-98725535D01*
X142661553Y-98626990D01*
X142661540Y-98626983D01*
X142497670Y-98559107D01*
X142497660Y-98559104D01*
X142450679Y-98549759D01*
X142388768Y-98517374D01*
X142387190Y-98515823D01*
X139004318Y-95132950D01*
X138989614Y-95106022D01*
X138973022Y-95080204D01*
X138972130Y-95074003D01*
X138970833Y-95071627D01*
X138967999Y-95045269D01*
X138967999Y-94934500D01*
X138987684Y-94867461D01*
X139040488Y-94821706D01*
X139091999Y-94810500D01*
X144926638Y-94810500D01*
X144993677Y-94830185D01*
G37*
%TD.AperFunction*%
%TD*%
M02*
