M48
; DRILL file KiCad 10.0.3 date 2026-06-07T22:22:29
; FORMAT={-:-/ absolute / metric / decimal}
; #@! TF.CreationDate,2026-06-07T22:22:29+02:00
; #@! TF.GenerationSoftware,Kicad,Pcbnew,10.0.3
; #@! TF.FileFunction,Plated,1,2,PTH
FMAT,2
METRIC
; #@! TA.AperFunction,Plated,PTH,ViaDrill
T1C0.500
%
G90
G05
T1
X135.17Y-95.51
X135.19Y-105.26
X135.2Y-96.79
X135.25Y-103.75
X137.61Y-112.1
X139.13Y-97.56
X139.26Y-102.67
X139.35Y-100.76
X139.35Y-106.05
X139.84Y-101.78
X140.62Y-95.54
X141.6Y-108.91
X141.7Y-100.27
X141.77Y-95.67
X141.81Y-97.12
X142.235Y-99.425
X142.64Y-104.93
X143.17Y-96.29
X143.48Y-102.49
X143.7Y-100.89
X144.89Y-106.54
X145.0Y-107.79
X145.02Y-108.88
X145.6Y-101.76
X145.6Y-103.64
X145.6Y-105.43
X145.66Y-95.65
X145.99Y-99.44
X146.91Y-96.7
X147.13Y-98.9
X147.56Y-108.54
X147.9Y-107.43
X147.95Y-99.44
X148.12Y-103.53
X148.96Y-98.94
X149.48Y-96.68
X149.91Y-106.33
X150.05Y-99.78
X150.32Y-107.38
X150.41Y-104.22
X151.81Y-112.11
X154.27Y-95.59
X154.27Y-97.59
X154.41Y-106.58
M30
