%TF.GenerationSoftware,KiCad,Pcbnew,10.0.3*%
%TF.CreationDate,2026-06-07T22:22:34+02:00*%
%TF.ProjectId,TYWE1S-ESP12_board,54595745-3153-42d4-9553-5031325f626f,rev?*%
%TF.SameCoordinates,Original*%
%TF.FileFunction,Legend,Top*%
%TF.FilePolarity,Positive*%
%FSLAX46Y46*%
G04 Gerber Fmt 4.6, Leading zero omitted, Abs format (unit mm)*
G04 Created by KiCad (PCBNEW 10.0.3) date 2026-06-07 22:22:34*
%MOMM*%
%LPD*%
G01*
G04 APERTURE LIST*
%ADD10C,0.100000*%
%ADD11C,0.150000*%
%ADD12C,0.410000*%
%ADD13C,0.250000*%
%ADD14C,0.060000*%
%ADD15C,0.400000*%
G04 APERTURE END LIST*
D10*
X142431027Y-96272419D02*
X143002455Y-96272419D01*
X142716741Y-97272419D02*
X142716741Y-96272419D01*
X143526265Y-96796228D02*
X143526265Y-97272419D01*
X143192932Y-96272419D02*
X143526265Y-96796228D01*
X143526265Y-96796228D02*
X143859598Y-96272419D01*
X144097694Y-96272419D02*
X144335789Y-97272419D01*
X144335789Y-97272419D02*
X144526265Y-96558133D01*
X144526265Y-96558133D02*
X144716741Y-97272419D01*
X144716741Y-97272419D02*
X144954837Y-96272419D01*
X145335789Y-96748609D02*
X145669122Y-96748609D01*
X145811979Y-97272419D02*
X145335789Y-97272419D01*
X145335789Y-97272419D02*
X145335789Y-96272419D01*
X145335789Y-96272419D02*
X145811979Y-96272419D01*
X146764360Y-97272419D02*
X146192932Y-97272419D01*
X146478646Y-97272419D02*
X146478646Y-96272419D01*
X146478646Y-96272419D02*
X146383408Y-96415276D01*
X146383408Y-96415276D02*
X146288170Y-96510514D01*
X146288170Y-96510514D02*
X146192932Y-96558133D01*
X147145313Y-97224800D02*
X147288170Y-97272419D01*
X147288170Y-97272419D02*
X147526265Y-97272419D01*
X147526265Y-97272419D02*
X147621503Y-97224800D01*
X147621503Y-97224800D02*
X147669122Y-97177180D01*
X147669122Y-97177180D02*
X147716741Y-97081942D01*
X147716741Y-97081942D02*
X147716741Y-96986704D01*
X147716741Y-96986704D02*
X147669122Y-96891466D01*
X147669122Y-96891466D02*
X147621503Y-96843847D01*
X147621503Y-96843847D02*
X147526265Y-96796228D01*
X147526265Y-96796228D02*
X147335789Y-96748609D01*
X147335789Y-96748609D02*
X147240551Y-96700990D01*
X147240551Y-96700990D02*
X147192932Y-96653371D01*
X147192932Y-96653371D02*
X147145313Y-96558133D01*
X147145313Y-96558133D02*
X147145313Y-96462895D01*
X147145313Y-96462895D02*
X147192932Y-96367657D01*
X147192932Y-96367657D02*
X147240551Y-96320038D01*
X147240551Y-96320038D02*
X147335789Y-96272419D01*
X147335789Y-96272419D02*
X147573884Y-96272419D01*
X147573884Y-96272419D02*
X147716741Y-96320038D01*
D11*
X143973095Y-94694819D02*
X143973095Y-95504342D01*
X143973095Y-95504342D02*
X144020714Y-95599580D01*
X144020714Y-95599580D02*
X144068333Y-95647200D01*
X144068333Y-95647200D02*
X144163571Y-95694819D01*
X144163571Y-95694819D02*
X144354047Y-95694819D01*
X144354047Y-95694819D02*
X144449285Y-95647200D01*
X144449285Y-95647200D02*
X144496904Y-95599580D01*
X144496904Y-95599580D02*
X144544523Y-95504342D01*
X144544523Y-95504342D02*
X144544523Y-94694819D01*
X144973095Y-94790057D02*
X145020714Y-94742438D01*
X145020714Y-94742438D02*
X145115952Y-94694819D01*
X145115952Y-94694819D02*
X145354047Y-94694819D01*
X145354047Y-94694819D02*
X145449285Y-94742438D01*
X145449285Y-94742438D02*
X145496904Y-94790057D01*
X145496904Y-94790057D02*
X145544523Y-94885295D01*
X145544523Y-94885295D02*
X145544523Y-94980533D01*
X145544523Y-94980533D02*
X145496904Y-95123390D01*
X145496904Y-95123390D02*
X144925476Y-95694819D01*
X144925476Y-95694819D02*
X145544523Y-95694819D01*
%TO.C,U2*%
D12*
X149065000Y-89520000D02*
X149065000Y-94600000D01*
X137965000Y-93330000D02*
X137965000Y-89520000D01*
X137965000Y-89520000D02*
X140195000Y-89520000D01*
X140195000Y-89520000D02*
X140195000Y-92060000D01*
X140195000Y-92060000D02*
X142405000Y-92060000D01*
X142405000Y-92060000D02*
X142405000Y-89520000D01*
X142405000Y-89520000D02*
X144645000Y-89520000D01*
X144645000Y-89520000D02*
X144645000Y-92060000D01*
X144645000Y-92060000D02*
X146855000Y-92060000D01*
X146855000Y-92060000D02*
X146855000Y-89520000D01*
X146855000Y-89520000D02*
X149065000Y-89520000D01*
X149065000Y-89520000D02*
X151295000Y-89520000D01*
X151295000Y-89520000D02*
X151295000Y-94600000D01*
D13*
X153875000Y-111940000D02*
X153875000Y-112360000D01*
X153875000Y-112360000D02*
X135595000Y-112360000D01*
X135595000Y-112360000D02*
X135595000Y-111940000D01*
X153875000Y-110410000D02*
X153875000Y-110570000D01*
X153875000Y-108910000D02*
X153875000Y-109050000D01*
X153875000Y-107410000D02*
X153875000Y-107550000D01*
X153875000Y-105920000D02*
X153875000Y-106050000D01*
X153875000Y-104420000D02*
X153875000Y-104550000D01*
X153875000Y-102920000D02*
X153875000Y-103050000D01*
X153875000Y-101420000D02*
X153875000Y-101560000D01*
X153875000Y-99920000D02*
X153875000Y-100060000D01*
X135715000Y-98520000D02*
X135715000Y-88480000D01*
X135715000Y-88480000D02*
X153875000Y-88480000D01*
X153875000Y-88480000D02*
X153875000Y-98560000D01*
X135715000Y-95090000D02*
X153735000Y-95090000D01*
X153735000Y-95090000D02*
X153765000Y-95120000D01*
D14*
X135765000Y-88660000D02*
G75*
G02*
X135705000Y-88660000I-30000J0D01*
G01*
X135705000Y-88660000D02*
G75*
G02*
X135765000Y-88660000I30000J0D01*
G01*
D15*
X135155000Y-97880000D02*
G75*
G02*
X134755000Y-97880000I-200000J0D01*
G01*
X134755000Y-97880000D02*
G75*
G02*
X135155000Y-97880000I200000J0D01*
G01*
%TD*%
M02*
