M48
; DRILL file KiCad 10.0.1 date 2026-05-04T16:09:39
; FORMAT={-:-/ absolute / metric / decimal}
; #@! TF.CreationDate,2026-05-04T16:09:39+02:00
; #@! TF.GenerationSoftware,Kicad,Pcbnew,10.0.1
; #@! TF.FileFunction,Plated,1,2,PTH
FMAT,2
METRIC
; #@! TA.AperFunction,Plated,PTH,ViaDrill
T1C0.500
%
G90
G05
T1
X136.5Y-82.4
X136.6Y-94.35
X137.45Y-83.1
X138.25Y-78.3
X138.3Y-79.85
X138.35Y-91.05
X138.65Y-73.8
X138.8Y-74.75
X139.15Y-66.55
X139.25Y-86.15
X139.4Y-79.8
X139.4Y-83.9
X139.95Y-88.5
X140.05Y-67.9
X140.05Y-75.25
X140.15Y-90.45
X140.2Y-94.6
X140.35Y-93.15
X140.55Y-84.25
X140.6Y-66.2
X140.6Y-76.35
X140.6Y-79.8
X141.2Y-87.3
X141.3Y-69.85
X141.5Y-93.15
X141.6Y-85.25
X141.65Y-79.75
X141.75Y-88.5
X142.0Y-68.1
X142.35Y-66.3
X142.6Y-90.45
X142.65Y-87.45
X142.75Y-79.7
X143.05Y-71.2
X143.15Y-67.6
X143.15Y-69.25
X143.3Y-93.1
X143.35Y-85.65
X143.4Y-83.5
X143.632Y-89.483
X143.85Y-79.75
X144.05Y-66.15
X144.6Y-68.6
X144.9Y-79.75
X144.95Y-89.85
X145.55Y-67.3
X145.55Y-94.25
X146.0Y-89.55
X146.05Y-79.9
X146.5Y-83.4
X146.5Y-85.7
X146.5Y-86.75
X146.8Y-66.4
X147.05Y-80.0
X147.15Y-72.2
X148.05Y-71.45
X148.05Y-79.8
X148.2Y-91.7
X148.55Y-89.65
X149.0Y-70.4
X149.0Y-75.75
X149.0Y-93.85
X149.05Y-77.5
X149.075Y-79.675
X150.2Y-94.4
X150.3Y-81.8
M30
