%TF.GenerationSoftware,KiCad,Pcbnew,10.0.1*%
%TF.CreationDate,2026-05-04T16:09:43+02:00*%
%TF.ProjectId,T1UHL-ESP12_board,54315548-4c2d-4455-9350-31325f626f61,rev?*%
%TF.SameCoordinates,Original*%
%TF.FileFunction,Paste,Top*%
%TF.FilePolarity,Positive*%
%FSLAX46Y46*%
G04 Gerber Fmt 4.6, Leading zero omitted, Abs format (unit mm)*
G04 Created by KiCad (PCBNEW 10.0.1) date 2026-05-04 16:09:43*
%MOMM*%
%LPD*%
G01*
G04 APERTURE LIST*
%ADD10R,2.500000X1.400000*%
%ADD11R,1.400000X1.700000*%
%ADD12R,2.000000X1.000000*%
%ADD13R,1.000000X3.200000*%
G04 APERTURE END LIST*
D10*
%TO.C,U1*%
X136072500Y-66387500D03*
X136072500Y-68387500D03*
X136072500Y-70387500D03*
X136072500Y-72387500D03*
X136072500Y-74387500D03*
X136072500Y-76387500D03*
X136072500Y-78387500D03*
X136072500Y-80387500D03*
X151172500Y-80387500D03*
X151172500Y-78387500D03*
X151172500Y-76387500D03*
X151172500Y-74387500D03*
X151172500Y-72387500D03*
X151172500Y-70387500D03*
X151172500Y-68387500D03*
X151172500Y-66387500D03*
D11*
X138622500Y-81687500D03*
X140622500Y-81687500D03*
X142622500Y-81687500D03*
X144622500Y-81687500D03*
X146622500Y-81687500D03*
X148622500Y-81687500D03*
%TD*%
D12*
%TO.C,U2*%
X136665000Y-84365000D03*
X136665000Y-85765000D03*
X136665000Y-87165000D03*
X136665000Y-88565000D03*
X136665000Y-89965000D03*
X136665000Y-91365000D03*
X136665000Y-92765000D03*
D13*
X138065000Y-96815000D03*
X139865000Y-96815000D03*
X141665000Y-96815000D03*
X143465000Y-96815000D03*
X145265000Y-96815000D03*
X147065000Y-96815000D03*
X148865000Y-96815000D03*
D12*
X150265000Y-92765000D03*
X150265000Y-91365000D03*
X150265000Y-89965000D03*
X150265000Y-88565000D03*
X150265000Y-87165000D03*
X150265000Y-85765000D03*
X150265000Y-84365000D03*
%TD*%
M02*
