%TF.GenerationSoftware,KiCad,Pcbnew,10.0.1*%
%TF.CreationDate,2026-05-04T16:09:43+02:00*%
%TF.ProjectId,T1UHL-ESP12_board,54315548-4c2d-4455-9350-31325f626f61,rev?*%
%TF.SameCoordinates,Original*%
%TF.FileFunction,Copper,L1,Top*%
%TF.FilePolarity,Positive*%
%FSLAX46Y46*%
G04 Gerber Fmt 4.6, Leading zero omitted, Abs format (unit mm)*
G04 Created by KiCad (PCBNEW 10.0.1) date 2026-05-04 16:09:43*
%MOMM*%
%LPD*%
G01*
G04 APERTURE LIST*
%TA.AperFunction,SMDPad,CuDef*%
%ADD10R,2.500000X1.400000*%
%TD*%
%TA.AperFunction,SMDPad,CuDef*%
%ADD11R,1.400000X1.700000*%
%TD*%
%TA.AperFunction,SMDPad,CuDef*%
%ADD12R,2.000000X1.000000*%
%TD*%
%TA.AperFunction,SMDPad,CuDef*%
%ADD13R,1.000000X3.200000*%
%TD*%
%TA.AperFunction,ViaPad*%
%ADD14C,0.800000*%
%TD*%
%TA.AperFunction,Conductor*%
%ADD15C,0.500000*%
%TD*%
G04 APERTURE END LIST*
D10*
%TO.P,U1,1,RST_1*%
%TO.N,unconnected-(U1-RST-Pad1)*%
X136072500Y-66387500D03*
%TO.P,U1,2,ADC_2*%
%TO.N,ADC*%
X136072500Y-68387500D03*
%TO.P,U1,3,EN_3*%
%TO.N,EN*%
X136072500Y-70387500D03*
%TO.P,U1,4,GPIO16_4*%
%TO.N,P22*%
X136072500Y-72387500D03*
%TO.P,U1,5,GPIO14_5*%
%TO.N,P16*%
X136072500Y-74387500D03*
%TO.P,U1,6,GPIO12_6*%
%TO.N,P14*%
X136072500Y-76387500D03*
%TO.P,U1,7,GPIO13_7*%
%TO.N,RX2*%
X136072500Y-78387500D03*
%TO.P,U1,8,VCC_8*%
%TO.N,VCC*%
X136072500Y-80387500D03*
%TO.P,U1,9,GND_9*%
%TO.N,GND*%
X151172500Y-80387500D03*
%TO.P,U1,10,GPIO15_10*%
%TO.N,TX2*%
X151172500Y-78387500D03*
%TO.P,U1,11,GPIO2_11*%
%TO.N,unconnected-(U1-GPIO2-Pad11)*%
X151172500Y-76387500D03*
%TO.P,U1,12,GPIO0_12*%
%TO.N,unconnected-(U1-GPIO0-Pad12)*%
X151172500Y-74387500D03*
%TO.P,U1,13,GPIO4_13*%
%TO.N,P24*%
X151172500Y-72387500D03*
%TO.P,U1,14,GPIO5_14*%
%TO.N,P26*%
X151172500Y-70387500D03*
%TO.P,U1,15,RXD0_15*%
%TO.N,RX*%
X151172500Y-68387500D03*
%TO.P,U1,16,TXD0_16*%
%TO.N,TX*%
X151172500Y-66387500D03*
D11*
%TO.P,U1,17,CS0_17*%
%TO.N,unconnected-(U1-CS0-Pad17)*%
X138622500Y-81687500D03*
%TO.P,U1,18,MISO_18*%
%TO.N,unconnected-(U1-MISO-Pad18)*%
X140622500Y-81687500D03*
%TO.P,U1,19,GPIO9_19*%
%TO.N,unconnected-(U1-GPIO9-Pad19)*%
X142622500Y-81687500D03*
%TO.P,U1,20,GPIO10_20*%
%TO.N,unconnected-(U1-GPIO10-Pad20)*%
X144622500Y-81687500D03*
%TO.P,U1,21,MOSI_21*%
%TO.N,unconnected-(U1-MOSI-Pad21)*%
X146622500Y-81687500D03*
%TO.P,U1,22,SCLK_22*%
%TO.N,unconnected-(U1-SCLK-Pad22)*%
X148622500Y-81687500D03*
%TD*%
D12*
%TO.P,U2,1,P14_1*%
%TO.N,P14*%
X136665000Y-84365000D03*
%TO.P,U2,2,P16_2*%
%TO.N,P16*%
X136665000Y-85765000D03*
%TO.P,U2,3,P23_3*%
%TO.N,unconnected-(U2-P23-Pad3)*%
X136665000Y-87165000D03*
%TO.P,U2,4,P22_4*%
%TO.N,P22*%
X136665000Y-88565000D03*
%TO.P,U2,5,ADC_5*%
%TO.N,ADC*%
X136665000Y-89965000D03*
%TO.P,U2,6,RX2_6*%
%TO.N,RX2*%
X136665000Y-91365000D03*
%TO.P,U2,7,TX2_7*%
%TO.N,TX2*%
X136665000Y-92765000D03*
D13*
%TO.P,U2,8,P24_8*%
%TO.N,P24*%
X138065000Y-96815000D03*
%TO.P,U2,9,P9_9*%
%TO.N,unconnected-(U2-P9-Pad9)*%
X139865000Y-96815000D03*
%TO.P,U2,10,P26_10*%
%TO.N,P26*%
X141665000Y-96815000D03*
%TO.P,U2,11,P6_11*%
%TO.N,unconnected-(U2-P6-Pad11)*%
X143465000Y-96815000D03*
%TO.P,U2,12,P8_12*%
%TO.N,unconnected-(U2-P8-Pad12)*%
X145265000Y-96815000D03*
%TO.P,U2,13,GND_13*%
%TO.N,GND*%
X147065000Y-96815000D03*
%TO.P,U2,14,3V3_14*%
%TO.N,VCC*%
X148865000Y-96815000D03*
D12*
%TO.P,U2,15,TX1_15*%
%TO.N,TX*%
X150265000Y-92765000D03*
%TO.P,U2,16,RX1_16*%
%TO.N,RX*%
X150265000Y-91365000D03*
%TO.P,U2,17,P28_17*%
%TO.N,unconnected-(U2-P28-Pad17)*%
X150265000Y-89965000D03*
%TO.P,U2,18,CEN_18*%
%TO.N,EN*%
X150265000Y-88565000D03*
%TO.P,U2,19,P21_19*%
%TO.N,unconnected-(U2-P21-Pad19)*%
X150265000Y-87165000D03*
%TO.P,U2,20,P17_20*%
%TO.N,unconnected-(U2-P17-Pad20)*%
X150265000Y-85765000D03*
%TO.P,U2,21,P15_21*%
%TO.N,unconnected-(U2-P15-Pad21)*%
X150265000Y-84365000D03*
%TD*%
D14*
%TO.N,GND*%
X148550000Y-89650000D03*
X146500000Y-86750000D03*
X146500000Y-85700000D03*
X146500000Y-83400000D03*
X143350000Y-85650000D03*
X143400000Y-83500000D03*
X143150000Y-69250000D03*
X142000000Y-68100000D03*
X145550000Y-67300000D03*
X144050000Y-66150000D03*
X142350000Y-66300000D03*
X140600000Y-66200000D03*
X149000000Y-70400000D03*
X147150000Y-72200000D03*
X140600000Y-76350000D03*
X140050000Y-75250000D03*
X138800000Y-74750000D03*
X138650000Y-73800000D03*
X141750000Y-88500000D03*
X139950000Y-88500000D03*
X138250000Y-78300000D03*
X149050000Y-77500000D03*
X149000000Y-75750000D03*
X148050000Y-71450000D03*
X143150000Y-67600000D03*
X144600000Y-68600000D03*
X146800000Y-66400000D03*
X139150000Y-66550000D03*
X140050000Y-67900000D03*
X141300000Y-69850000D03*
X143050000Y-71200000D03*
X148200000Y-91700000D03*
X142600000Y-90450000D03*
X140150000Y-90450000D03*
X139250000Y-86150000D03*
X137450000Y-83100000D03*
X150300000Y-81800000D03*
X141200000Y-87300000D03*
X150200000Y-94400000D03*
X141500000Y-93150000D03*
X140350000Y-93150000D03*
X145550000Y-94250000D03*
%TO.N,VCC*%
X136500000Y-82400000D03*
%TO.N,RX2*%
X138350000Y-91050000D03*
%TO.N,P24*%
X140200000Y-94600000D03*
%TO.N,P26*%
X143300000Y-93100000D03*
%TO.N,VCC*%
X136600000Y-94350000D03*
%TO.N,TX2*%
X149000000Y-93850000D03*
%TO.N,ADC*%
X143632500Y-89482500D03*
%TO.N,RX*%
X146000000Y-89550000D03*
%TO.N,TX*%
X144950000Y-89850000D03*
%TO.N,EN*%
X142650000Y-87450000D03*
%TO.N,P22*%
X141600000Y-85250000D03*
%TO.N,P16*%
X140550000Y-84250000D03*
%TO.N,P14*%
X139400000Y-83900000D03*
%TO.N,TX2*%
X149075000Y-79675000D03*
%TO.N,P24*%
X148050000Y-79800000D03*
%TO.N,P26*%
X147050000Y-80000000D03*
%TO.N,RX*%
X146050000Y-79900000D03*
%TO.N,TX*%
X144900000Y-79750000D03*
%TO.N,ADC*%
X143850000Y-79750000D03*
%TO.N,EN*%
X142750000Y-79700000D03*
%TO.N,P22*%
X141650000Y-79750000D03*
%TO.N,P16*%
X140600000Y-79800000D03*
%TO.N,P14*%
X139400000Y-79800000D03*
%TO.N,RX2*%
X138300000Y-79850000D03*
%TD*%
%TO.N,P16*%
D15*
X140250000Y-84252082D02*
X140250000Y-84250000D01*
X140250000Y-84250000D02*
X140550000Y-84250000D01*
X139437082Y-85065000D02*
X140250000Y-84252082D01*
X138535000Y-85065000D02*
X139437082Y-85065000D01*
X137835000Y-85765000D02*
X138535000Y-85065000D01*
X136665000Y-85765000D02*
X137835000Y-85765000D01*
%TO.N,TX*%
X144900000Y-71900000D02*
X144900000Y-79750000D01*
X150412500Y-66387500D02*
X144900000Y-71900000D01*
X151172500Y-66387500D02*
X150412500Y-66387500D01*
%TO.N,P24*%
X148050000Y-73900000D02*
X148050000Y-79800000D01*
X149562500Y-72387500D02*
X148050000Y-73900000D01*
X151172500Y-72387500D02*
X149562500Y-72387500D01*
%TO.N,P26*%
X147050000Y-73825000D02*
X147050000Y-80000000D01*
X150487500Y-70387500D02*
X147050000Y-73825000D01*
X151172500Y-70387500D02*
X150487500Y-70387500D01*
%TO.N,ADC*%
X143850000Y-75300000D02*
X143850000Y-79750000D01*
X136937500Y-68387500D02*
X143850000Y-75300000D01*
X136072500Y-68387500D02*
X136937500Y-68387500D01*
%TO.N,P22*%
X141650000Y-75400000D02*
X141650000Y-79750000D01*
X138637500Y-72387500D02*
X141650000Y-75400000D01*
X136072500Y-72387500D02*
X138637500Y-72387500D01*
%TO.N,P16*%
X140600000Y-78050000D02*
X140600000Y-79800000D01*
X136937500Y-74387500D02*
X140600000Y-78050000D01*
X136072500Y-74387500D02*
X136937500Y-74387500D01*
%TO.N,RX*%
X148815000Y-90700000D02*
X147150000Y-90700000D01*
X147150000Y-90700000D02*
X146000000Y-89550000D01*
X148815000Y-90915000D02*
X148815000Y-90700000D01*
X149815000Y-90915000D02*
X148815000Y-90915000D01*
X150265000Y-91365000D02*
X149815000Y-90915000D01*
%TO.N,ADC*%
X143565000Y-89550000D02*
X143632500Y-89482500D01*
X137080000Y-89550000D02*
X143565000Y-89550000D01*
X136665000Y-89965000D02*
X137080000Y-89550000D01*
%TO.N,TX2*%
X148865000Y-93715000D02*
X149000000Y-93850000D01*
X148135000Y-93715000D02*
X148865000Y-93715000D01*
X145410050Y-91300000D02*
X147575050Y-93465000D01*
X139650000Y-91300000D02*
X145410050Y-91300000D01*
X147575050Y-93465000D02*
X147715000Y-93465000D01*
X148050000Y-93800000D02*
X148135000Y-93715000D01*
X138150000Y-92800000D02*
X139650000Y-91300000D01*
X136665000Y-92765000D02*
X136700000Y-92800000D01*
X136700000Y-92800000D02*
X138150000Y-92800000D01*
X147715000Y-93465000D02*
X148050000Y-93800000D01*
%TO.N,VCC*%
X137115000Y-94865000D02*
X136600000Y-94350000D01*
X137115000Y-94765000D02*
X137115000Y-94865000D01*
X138900000Y-93039950D02*
X138900000Y-93500000D01*
X139889950Y-92050000D02*
X138900000Y-93039950D01*
X137635000Y-94765000D02*
X137115000Y-94765000D01*
X145170100Y-92050000D02*
X139889950Y-92050000D01*
X148300000Y-95150000D02*
X147315000Y-94165000D01*
X147285100Y-94165000D02*
X145170100Y-92050000D01*
X148400000Y-95150000D02*
X148300000Y-95150000D01*
X138900000Y-93500000D02*
X137635000Y-94765000D01*
X147315000Y-94165000D02*
X147285100Y-94165000D01*
X148865000Y-95615000D02*
X148400000Y-95150000D01*
X148865000Y-96815000D02*
X148865000Y-95615000D01*
X136500000Y-82400000D02*
X136500000Y-82550000D01*
X136500000Y-80815000D02*
X136500000Y-82400000D01*
X136072500Y-80387500D02*
X136500000Y-80815000D01*
%TO.N,P26*%
X143300000Y-93150000D02*
X143300000Y-93100000D01*
X141665000Y-94785000D02*
X143300000Y-93150000D01*
X141665000Y-96815000D02*
X141665000Y-94785000D01*
%TO.N,P24*%
X139080000Y-94600000D02*
X140200000Y-94600000D01*
X138065000Y-95615000D02*
X139080000Y-94600000D01*
X138065000Y-96815000D02*
X138065000Y-95615000D01*
%TO.N,RX2*%
X138035000Y-91365000D02*
X138350000Y-91050000D01*
X136665000Y-91365000D02*
X138035000Y-91365000D01*
%TO.N,P22*%
X138285000Y-88565000D02*
X141600000Y-85250000D01*
X136665000Y-88565000D02*
X138285000Y-88565000D01*
%TO.N,P14*%
X138935000Y-84365000D02*
X139400000Y-83900000D01*
X136665000Y-84365000D02*
X138935000Y-84365000D01*
%TO.N,TX*%
X147865000Y-92765000D02*
X144950000Y-89850000D01*
X150265000Y-92765000D02*
X147865000Y-92765000D01*
%TO.N,EN*%
X143765000Y-88565000D02*
X142650000Y-87450000D01*
X150265000Y-88565000D02*
X143765000Y-88565000D01*
%TO.N,RX*%
X146050000Y-71760000D02*
X146050000Y-79900000D01*
X149422500Y-68387500D02*
X146050000Y-71760000D01*
X151172500Y-68387500D02*
X149422500Y-68387500D01*
%TO.N,TX2*%
X150362500Y-78387500D02*
X149075000Y-79675000D01*
X151172500Y-78387500D02*
X150362500Y-78387500D01*
%TO.N,EN*%
X142750000Y-75315000D02*
X142750000Y-79700000D01*
X137822500Y-70387500D02*
X142750000Y-75315000D01*
X136072500Y-70387500D02*
X137822500Y-70387500D01*
%TO.N,P14*%
X137822500Y-76387500D02*
X139400000Y-77965000D01*
X139400000Y-77965000D02*
X139400000Y-79800000D01*
X136072500Y-76387500D02*
X137822500Y-76387500D01*
%TO.N,RX2*%
X136837500Y-78387500D02*
X138300000Y-79850000D01*
X136072500Y-78387500D02*
X136837500Y-78387500D01*
%TD*%
%TA.AperFunction,Conductor*%
%TO.N,GND*%
G36*
X142719866Y-92570185D02*
G01*
X142765621Y-92622989D01*
X142775565Y-92692147D01*
X142755929Y-92743391D01*
X142723538Y-92791866D01*
X142723533Y-92791875D01*
X142674499Y-92910255D01*
X142674497Y-92910261D01*
X142649500Y-93035928D01*
X142649500Y-93041324D01*
X142629815Y-93108363D01*
X142613181Y-93129005D01*
X141264502Y-94477683D01*
X141264500Y-94477686D01*
X141198608Y-94591812D01*
X141164500Y-94719108D01*
X141164500Y-94857927D01*
X141144815Y-94924966D01*
X141106333Y-94963008D01*
X141087029Y-94975101D01*
X141067260Y-94979034D01*
X140984399Y-95034399D01*
X140978652Y-95042999D01*
X140959100Y-95055249D01*
X140938447Y-95061055D01*
X140931292Y-95064961D01*
X140933107Y-95069458D01*
X140930509Y-95083134D01*
X140931319Y-95105770D01*
X140914500Y-95190327D01*
X140914500Y-97825500D01*
X140911949Y-97834185D01*
X140913238Y-97843147D01*
X140902259Y-97867187D01*
X140894815Y-97892539D01*
X140887974Y-97898466D01*
X140884213Y-97906703D01*
X140861978Y-97920992D01*
X140842011Y-97938294D01*
X140831496Y-97940581D01*
X140825435Y-97944477D01*
X140790500Y-97949500D01*
X140739500Y-97949500D01*
X140672461Y-97929815D01*
X140626706Y-97877011D01*
X140615500Y-97825500D01*
X140615500Y-95190326D01*
X140614182Y-95183701D01*
X140614741Y-95177448D01*
X140612393Y-95171628D01*
X140617817Y-95143069D01*
X140620408Y-95114109D01*
X140624554Y-95107594D01*
X140625430Y-95102986D01*
X140641799Y-95080503D01*
X140645824Y-95074181D01*
X140646925Y-95073019D01*
X140705276Y-95014669D01*
X140712465Y-95003908D01*
X140719726Y-94996253D01*
X140741171Y-94983793D01*
X140760200Y-94967888D01*
X140770854Y-94966548D01*
X140772120Y-94965813D01*
X140769583Y-94959009D01*
X140772251Y-94942545D01*
X140770741Y-94931108D01*
X140775870Y-94920209D01*
X140778705Y-94902717D01*
X140825501Y-94789744D01*
X140839552Y-94719108D01*
X140850500Y-94664071D01*
X140850500Y-94535928D01*
X140825502Y-94410261D01*
X140825501Y-94410260D01*
X140825501Y-94410256D01*
X140776465Y-94291873D01*
X140776464Y-94291872D01*
X140776461Y-94291866D01*
X140705276Y-94185331D01*
X140705273Y-94185327D01*
X140614672Y-94094726D01*
X140614668Y-94094723D01*
X140508133Y-94023538D01*
X140508124Y-94023533D01*
X140389744Y-93974499D01*
X140389738Y-93974497D01*
X140264071Y-93949500D01*
X140264069Y-93949500D01*
X140135931Y-93949500D01*
X140135929Y-93949500D01*
X140010261Y-93974497D01*
X140010255Y-93974499D01*
X139891875Y-94023533D01*
X139891866Y-94023538D01*
X139809459Y-94078602D01*
X139742782Y-94099480D01*
X139740568Y-94099500D01*
X139307676Y-94099500D01*
X139240637Y-94079815D01*
X139194882Y-94027011D01*
X139184938Y-93957853D01*
X139213963Y-93894297D01*
X139219995Y-93887819D01*
X139237285Y-93870527D01*
X139300500Y-93807314D01*
X139366392Y-93693186D01*
X139400500Y-93565893D01*
X139400500Y-93434108D01*
X139400500Y-93298626D01*
X139420185Y-93231587D01*
X139436819Y-93210945D01*
X140060945Y-92586819D01*
X140122268Y-92553334D01*
X140148626Y-92550500D01*
X142652827Y-92550500D01*
X142719866Y-92570185D01*
G37*
%TD.AperFunction*%
%TA.AperFunction,Conductor*%
G36*
X144978463Y-92570185D02*
G01*
X144999105Y-92586819D01*
X146884600Y-94472314D01*
X146977786Y-94565500D01*
X147034394Y-94598182D01*
X147060073Y-94617887D01*
X147899500Y-95457314D01*
X147992686Y-95550500D01*
X148050895Y-95584107D01*
X148052475Y-95585019D01*
X148100702Y-95635575D01*
X148114500Y-95692420D01*
X148114500Y-97825500D01*
X148094815Y-97892539D01*
X148042011Y-97938294D01*
X147990500Y-97949500D01*
X146139500Y-97949500D01*
X146072461Y-97929815D01*
X146026706Y-97877011D01*
X146015500Y-97825500D01*
X146015500Y-95190323D01*
X146015499Y-95190321D01*
X146000967Y-95117264D01*
X146000966Y-95117260D01*
X145992959Y-95105276D01*
X145945601Y-95034399D01*
X145889886Y-94997172D01*
X145862739Y-94979033D01*
X145862735Y-94979032D01*
X145789677Y-94964500D01*
X145789674Y-94964500D01*
X144740326Y-94964500D01*
X144740323Y-94964500D01*
X144667264Y-94979032D01*
X144667260Y-94979033D01*
X144584399Y-95034399D01*
X144529033Y-95117260D01*
X144529032Y-95117264D01*
X144514500Y-95190321D01*
X144514500Y-97825500D01*
X144511949Y-97834185D01*
X144513238Y-97843147D01*
X144502259Y-97867187D01*
X144494815Y-97892539D01*
X144487974Y-97898466D01*
X144484213Y-97906703D01*
X144461978Y-97920992D01*
X144442011Y-97938294D01*
X144431496Y-97940581D01*
X144425435Y-97944477D01*
X144390500Y-97949500D01*
X144339500Y-97949500D01*
X144272461Y-97929815D01*
X144226706Y-97877011D01*
X144215500Y-97825500D01*
X144215500Y-95190323D01*
X144215499Y-95190321D01*
X144200967Y-95117264D01*
X144200966Y-95117260D01*
X144192959Y-95105276D01*
X144145601Y-95034399D01*
X144089886Y-94997172D01*
X144062739Y-94979033D01*
X144062735Y-94979032D01*
X143989677Y-94964500D01*
X143989674Y-94964500D01*
X142940326Y-94964500D01*
X142940323Y-94964500D01*
X142867264Y-94979032D01*
X142867260Y-94979033D01*
X142784399Y-95034399D01*
X142729033Y-95117260D01*
X142729032Y-95117264D01*
X142714500Y-95190321D01*
X142714500Y-97825500D01*
X142711949Y-97834185D01*
X142713238Y-97843147D01*
X142702259Y-97867187D01*
X142694815Y-97892539D01*
X142687974Y-97898466D01*
X142684213Y-97906703D01*
X142661978Y-97920992D01*
X142642011Y-97938294D01*
X142631496Y-97940581D01*
X142625435Y-97944477D01*
X142590500Y-97949500D01*
X142539500Y-97949500D01*
X142472461Y-97929815D01*
X142426706Y-97877011D01*
X142415500Y-97825500D01*
X142415500Y-95190323D01*
X142415499Y-95190321D01*
X142400967Y-95117264D01*
X142400966Y-95117260D01*
X142369026Y-95069458D01*
X142345601Y-95034399D01*
X142338036Y-95029344D01*
X142293233Y-94975732D01*
X142284527Y-94906406D01*
X142314683Y-94843380D01*
X142319230Y-94838582D01*
X143391455Y-93766357D01*
X143452776Y-93732874D01*
X143454866Y-93732438D01*
X143489744Y-93725501D01*
X143608127Y-93676465D01*
X143714669Y-93605276D01*
X143805276Y-93514669D01*
X143876465Y-93408127D01*
X143925501Y-93289744D01*
X143936614Y-93233879D01*
X143950500Y-93164071D01*
X143950500Y-93035928D01*
X143925502Y-92910261D01*
X143925501Y-92910260D01*
X143925501Y-92910256D01*
X143876465Y-92791873D01*
X143876464Y-92791872D01*
X143876461Y-92791866D01*
X143844071Y-92743391D01*
X143823193Y-92676713D01*
X143841678Y-92609333D01*
X143893656Y-92562643D01*
X143947173Y-92550500D01*
X144911424Y-92550500D01*
X144978463Y-92570185D01*
G37*
%TD.AperFunction*%
%TA.AperFunction,Conductor*%
G36*
X150792539Y-93535185D02*
G01*
X150838294Y-93587989D01*
X150849500Y-93639500D01*
X150849500Y-95025500D01*
X150829815Y-95092539D01*
X150777011Y-95138294D01*
X150725500Y-95149500D01*
X149784106Y-95149500D01*
X149732875Y-95163227D01*
X149663025Y-95161563D01*
X149605163Y-95122400D01*
X149597681Y-95112343D01*
X149545601Y-95034399D01*
X149462739Y-94979033D01*
X149462735Y-94979032D01*
X149389677Y-94964500D01*
X149389674Y-94964500D01*
X148973676Y-94964500D01*
X148906637Y-94944815D01*
X148885995Y-94928181D01*
X148707316Y-94749502D01*
X148707314Y-94749500D01*
X148641421Y-94711456D01*
X148593185Y-94683607D01*
X148554566Y-94673259D01*
X148498980Y-94641166D01*
X148284995Y-94427181D01*
X148251510Y-94365858D01*
X148256494Y-94296166D01*
X148298366Y-94240233D01*
X148363830Y-94215816D01*
X148372676Y-94215500D01*
X148395724Y-94215500D01*
X148462763Y-94235185D01*
X148491578Y-94260836D01*
X148494726Y-94264672D01*
X148585327Y-94355273D01*
X148585331Y-94355276D01*
X148691866Y-94426461D01*
X148691875Y-94426466D01*
X148718692Y-94437574D01*
X148810256Y-94475501D01*
X148810260Y-94475501D01*
X148810261Y-94475502D01*
X148935928Y-94500500D01*
X148935931Y-94500500D01*
X149064071Y-94500500D01*
X149148615Y-94483682D01*
X149189744Y-94475501D01*
X149308127Y-94426465D01*
X149414669Y-94355276D01*
X149505276Y-94264669D01*
X149576465Y-94158127D01*
X149625501Y-94039744D01*
X149633682Y-93998615D01*
X149650500Y-93914071D01*
X149650500Y-93785928D01*
X149626185Y-93663692D01*
X149632412Y-93594100D01*
X149675275Y-93538923D01*
X149741164Y-93515678D01*
X149747802Y-93515500D01*
X150725500Y-93515500D01*
X150792539Y-93535185D01*
G37*
%TD.AperFunction*%
%TA.AperFunction,Conductor*%
G36*
X148370764Y-91209144D02*
G01*
X148400751Y-91215668D01*
X148405766Y-91219422D01*
X148408363Y-91220185D01*
X148429005Y-91236819D01*
X148507686Y-91315500D01*
X148621814Y-91381392D01*
X148749108Y-91415500D01*
X148890500Y-91415500D01*
X148957539Y-91435185D01*
X149003294Y-91487989D01*
X149014500Y-91539500D01*
X149014500Y-91889678D01*
X149029032Y-91962735D01*
X149029033Y-91962739D01*
X149051331Y-91996110D01*
X149055509Y-92009454D01*
X149063993Y-92020566D01*
X149065741Y-92042135D01*
X149072208Y-92062788D01*
X149068623Y-92077679D01*
X149069639Y-92090207D01*
X149060167Y-92112807D01*
X149057619Y-92123392D01*
X149054734Y-92128795D01*
X149029034Y-92167260D01*
X149025963Y-92182695D01*
X149017318Y-92198892D01*
X149005185Y-92211256D01*
X148997157Y-92226604D01*
X148981225Y-92235675D01*
X148968384Y-92248763D01*
X148951494Y-92252605D01*
X148936441Y-92261177D01*
X148907927Y-92264500D01*
X148123676Y-92264500D01*
X148056637Y-92244815D01*
X148035995Y-92228181D01*
X147219995Y-91412181D01*
X147186510Y-91350858D01*
X147191494Y-91281166D01*
X147233366Y-91225233D01*
X147298830Y-91200816D01*
X147307676Y-91200500D01*
X148341324Y-91200500D01*
X148370764Y-91209144D01*
G37*
%TD.AperFunction*%
%TA.AperFunction,Conductor*%
G36*
X144236838Y-89900620D02*
G01*
X144292772Y-89942491D01*
X144315122Y-89992608D01*
X144324498Y-90039741D01*
X144324499Y-90039744D01*
X144373533Y-90158124D01*
X144373538Y-90158133D01*
X144444723Y-90264668D01*
X144444726Y-90264672D01*
X144535327Y-90355273D01*
X144535331Y-90355276D01*
X144641866Y-90426461D01*
X144641875Y-90426466D01*
X144668692Y-90437574D01*
X144760256Y-90475501D01*
X144824455Y-90488271D01*
X144857471Y-90494839D01*
X144874227Y-90503603D01*
X144892707Y-90507624D01*
X144917745Y-90526368D01*
X144919382Y-90527224D01*
X144920961Y-90528775D01*
X144980005Y-90587819D01*
X145013490Y-90649142D01*
X145008506Y-90718834D01*
X144966634Y-90774767D01*
X144901170Y-90799184D01*
X144892324Y-90799500D01*
X139584107Y-90799500D01*
X139456812Y-90833608D01*
X139342686Y-90899500D01*
X139342685Y-90899501D01*
X139270462Y-90971724D01*
X139206972Y-91035214D01*
X139145649Y-91068698D01*
X139075957Y-91063714D01*
X139020024Y-91021842D01*
X138997674Y-90971724D01*
X138975502Y-90860261D01*
X138975501Y-90860260D01*
X138975501Y-90860256D01*
X138926465Y-90741873D01*
X138926464Y-90741872D01*
X138926461Y-90741866D01*
X138855276Y-90635331D01*
X138855273Y-90635327D01*
X138764672Y-90544726D01*
X138764668Y-90544723D01*
X138658133Y-90473538D01*
X138658124Y-90473533D01*
X138539744Y-90424499D01*
X138539738Y-90424497D01*
X138414071Y-90399500D01*
X138414069Y-90399500D01*
X138285931Y-90399500D01*
X138285929Y-90399500D01*
X138160261Y-90424497D01*
X138160251Y-90424500D01*
X138086952Y-90454862D01*
X138017483Y-90462331D01*
X137955004Y-90431056D01*
X137919352Y-90370967D01*
X137915500Y-90340301D01*
X137915500Y-90174500D01*
X137935185Y-90107461D01*
X137987989Y-90061706D01*
X138039500Y-90050500D01*
X143279271Y-90050500D01*
X143326724Y-90059939D01*
X143442756Y-90108001D01*
X143442760Y-90108001D01*
X143442761Y-90108002D01*
X143568428Y-90133000D01*
X143568431Y-90133000D01*
X143696571Y-90133000D01*
X143781115Y-90116182D01*
X143822244Y-90108001D01*
X143940627Y-90058965D01*
X144047169Y-89987776D01*
X144105825Y-89929119D01*
X144167146Y-89895636D01*
X144236838Y-89900620D01*
G37*
%TD.AperFunction*%
%TA.AperFunction,Conductor*%
G36*
X148938381Y-89074442D02*
G01*
X148969284Y-89081744D01*
X148971670Y-89084217D01*
X148974966Y-89085185D01*
X148995751Y-89109172D01*
X149017801Y-89132023D01*
X149019346Y-89136402D01*
X149020721Y-89137989D01*
X149027586Y-89159244D01*
X149029033Y-89162739D01*
X149051331Y-89196110D01*
X149072208Y-89262788D01*
X149053723Y-89330168D01*
X149051331Y-89333890D01*
X149029033Y-89367260D01*
X149029032Y-89367264D01*
X149014500Y-89440321D01*
X149014500Y-90075695D01*
X148994815Y-90142734D01*
X148942011Y-90188489D01*
X148889019Y-90196430D01*
X148889019Y-90199500D01*
X147408676Y-90199500D01*
X147341637Y-90179815D01*
X147320995Y-90163181D01*
X146678775Y-89520961D01*
X146645290Y-89459638D01*
X146644839Y-89457471D01*
X146625502Y-89360263D01*
X146625501Y-89360256D01*
X146576465Y-89241873D01*
X146576464Y-89241872D01*
X146574427Y-89236953D01*
X146566958Y-89167483D01*
X146598233Y-89105004D01*
X146658322Y-89069352D01*
X146688988Y-89065500D01*
X148907927Y-89065500D01*
X148938381Y-89074442D01*
G37*
%TD.AperFunction*%
%TA.AperFunction,Conductor*%
G36*
X152192539Y-79357685D02*
G01*
X152238294Y-79410489D01*
X152249500Y-79462000D01*
X152249500Y-81225500D01*
X152229815Y-81292539D01*
X152177011Y-81338294D01*
X152125500Y-81349500D01*
X151284108Y-81349500D01*
X151156812Y-81383608D01*
X151042686Y-81449500D01*
X151042683Y-81449502D01*
X150949502Y-81542683D01*
X150949500Y-81542686D01*
X150883608Y-81656812D01*
X150849500Y-81784108D01*
X150849500Y-83490500D01*
X150829815Y-83557539D01*
X150777011Y-83603294D01*
X150725500Y-83614500D01*
X149240323Y-83614500D01*
X149167264Y-83629032D01*
X149167260Y-83629033D01*
X149084399Y-83684399D01*
X149029033Y-83767260D01*
X149029032Y-83767264D01*
X149014500Y-83840321D01*
X149014500Y-84889678D01*
X149029032Y-84962735D01*
X149029033Y-84962739D01*
X149051331Y-84996110D01*
X149072208Y-85062788D01*
X149053723Y-85130168D01*
X149051331Y-85133890D01*
X149029033Y-85167260D01*
X149029032Y-85167264D01*
X149014500Y-85240321D01*
X149014500Y-86289678D01*
X149029032Y-86362735D01*
X149029033Y-86362739D01*
X149051331Y-86396110D01*
X149072208Y-86462788D01*
X149053723Y-86530168D01*
X149051337Y-86533879D01*
X149046708Y-86540807D01*
X149029033Y-86567260D01*
X149029032Y-86567264D01*
X149014500Y-86640321D01*
X149014500Y-87689678D01*
X149029032Y-87762735D01*
X149029033Y-87762739D01*
X149029034Y-87762740D01*
X149051329Y-87796108D01*
X149051331Y-87796110D01*
X149055509Y-87809454D01*
X149063993Y-87820566D01*
X149065741Y-87842135D01*
X149072208Y-87862788D01*
X149068623Y-87877679D01*
X149069639Y-87890207D01*
X149060167Y-87912807D01*
X149057619Y-87923392D01*
X149054734Y-87928795D01*
X149029034Y-87967260D01*
X149025963Y-87982695D01*
X149017318Y-87998892D01*
X149005185Y-88011256D01*
X148997157Y-88026604D01*
X148981225Y-88035675D01*
X148968384Y-88048763D01*
X148951494Y-88052605D01*
X148936441Y-88061177D01*
X148907927Y-88064500D01*
X144023676Y-88064500D01*
X143956637Y-88044815D01*
X143935995Y-88028181D01*
X143328775Y-87420961D01*
X143295290Y-87359638D01*
X143294839Y-87357471D01*
X143275502Y-87260263D01*
X143275502Y-87260261D01*
X143275501Y-87260256D01*
X143226465Y-87141873D01*
X143226464Y-87141872D01*
X143226461Y-87141866D01*
X143155276Y-87035331D01*
X143155273Y-87035327D01*
X143064672Y-86944726D01*
X143064668Y-86944723D01*
X142958133Y-86873538D01*
X142958124Y-86873533D01*
X142839744Y-86824499D01*
X142839738Y-86824497D01*
X142714071Y-86799500D01*
X142714069Y-86799500D01*
X142585931Y-86799500D01*
X142585929Y-86799500D01*
X142460261Y-86824497D01*
X142460255Y-86824499D01*
X142341875Y-86873533D01*
X142341866Y-86873538D01*
X142235331Y-86944723D01*
X142235327Y-86944726D01*
X142144726Y-87035327D01*
X142144723Y-87035331D01*
X142073538Y-87141866D01*
X142073533Y-87141875D01*
X142024499Y-87260255D01*
X142024497Y-87260261D01*
X141999500Y-87385928D01*
X141999500Y-87385931D01*
X141999500Y-87514069D01*
X141999500Y-87514071D01*
X141999499Y-87514071D01*
X142024497Y-87639738D01*
X142024499Y-87639744D01*
X142073533Y-87758124D01*
X142073538Y-87758133D01*
X142144723Y-87864668D01*
X142144726Y-87864672D01*
X142235327Y-87955273D01*
X142235331Y-87955276D01*
X142341866Y-88026461D01*
X142341875Y-88026466D01*
X142364108Y-88035675D01*
X142460256Y-88075501D01*
X142524455Y-88088271D01*
X142557471Y-88094839D01*
X142619382Y-88127224D01*
X142620961Y-88128775D01*
X143261801Y-88769615D01*
X143268478Y-88781844D01*
X143278940Y-88791049D01*
X143284892Y-88811903D01*
X143295286Y-88830938D01*
X143294292Y-88844837D01*
X143298116Y-88858235D01*
X143291849Y-88878995D01*
X143290302Y-88900630D01*
X143281540Y-88913148D01*
X143277925Y-88925124D01*
X143261643Y-88941573D01*
X143254611Y-88951621D01*
X143249061Y-88956356D01*
X143217831Y-88977224D01*
X143178406Y-89016648D01*
X143174684Y-89019825D01*
X143147088Y-89032175D01*
X143120553Y-89046666D01*
X143112866Y-89047492D01*
X143110910Y-89048368D01*
X143108341Y-89047978D01*
X143094193Y-89049500D01*
X138807676Y-89049500D01*
X138740637Y-89029815D01*
X138694882Y-88977011D01*
X138684938Y-88907853D01*
X138713963Y-88844297D01*
X138719995Y-88837819D01*
X140171886Y-87385928D01*
X141629040Y-85928773D01*
X141690361Y-85895290D01*
X141692528Y-85894839D01*
X141693004Y-85894744D01*
X141789744Y-85875501D01*
X141908127Y-85826465D01*
X142014669Y-85755276D01*
X142105276Y-85664669D01*
X142176465Y-85558127D01*
X142225501Y-85439744D01*
X142250500Y-85314069D01*
X142250500Y-85185931D01*
X142250500Y-85185928D01*
X142225502Y-85060261D01*
X142225501Y-85060260D01*
X142225501Y-85060256D01*
X142176465Y-84941873D01*
X142176464Y-84941872D01*
X142176461Y-84941866D01*
X142105276Y-84835331D01*
X142105273Y-84835327D01*
X142014672Y-84744726D01*
X142014668Y-84744723D01*
X141908133Y-84673538D01*
X141908124Y-84673533D01*
X141789744Y-84624499D01*
X141789738Y-84624497D01*
X141664071Y-84599500D01*
X141664069Y-84599500D01*
X141535931Y-84599500D01*
X141535929Y-84599500D01*
X141410261Y-84624497D01*
X141410251Y-84624500D01*
X141311078Y-84665579D01*
X141241609Y-84673048D01*
X141179130Y-84641772D01*
X141143478Y-84581683D01*
X141145972Y-84511858D01*
X141149065Y-84503565D01*
X141175501Y-84439744D01*
X141200500Y-84314069D01*
X141200500Y-84185931D01*
X141200500Y-84185928D01*
X141175502Y-84060261D01*
X141175501Y-84060260D01*
X141175501Y-84060256D01*
X141126465Y-83941873D01*
X141126464Y-83941872D01*
X141126461Y-83941866D01*
X141055276Y-83835331D01*
X141055273Y-83835327D01*
X140964672Y-83744726D01*
X140964668Y-83744723D01*
X140858133Y-83673538D01*
X140858124Y-83673533D01*
X140739744Y-83624499D01*
X140739738Y-83624497D01*
X140614071Y-83599500D01*
X140614069Y-83599500D01*
X140485931Y-83599500D01*
X140485929Y-83599500D01*
X140360261Y-83624497D01*
X140360255Y-83624499D01*
X140241875Y-83673533D01*
X140241866Y-83673538D01*
X140186122Y-83710786D01*
X140119444Y-83731664D01*
X140052064Y-83713179D01*
X140005374Y-83661201D01*
X140002670Y-83655137D01*
X139976466Y-83591875D01*
X139976461Y-83591866D01*
X139905276Y-83485331D01*
X139905273Y-83485327D01*
X139814672Y-83394726D01*
X139814668Y-83394723D01*
X139708133Y-83323538D01*
X139708124Y-83323533D01*
X139589744Y-83274499D01*
X139589738Y-83274497D01*
X139464071Y-83249500D01*
X139464069Y-83249500D01*
X139335931Y-83249500D01*
X139335929Y-83249500D01*
X139210261Y-83274497D01*
X139210255Y-83274499D01*
X139091875Y-83323533D01*
X139091866Y-83323538D01*
X138985331Y-83394723D01*
X138985327Y-83394726D01*
X138894726Y-83485327D01*
X138894723Y-83485331D01*
X138823538Y-83591866D01*
X138823533Y-83591875D01*
X138774499Y-83710255D01*
X138774498Y-83710260D01*
X138763670Y-83764693D01*
X138731284Y-83826603D01*
X138670568Y-83861177D01*
X138642053Y-83864500D01*
X138022073Y-83864500D01*
X137955034Y-83844815D01*
X137909279Y-83792011D01*
X137902413Y-83770755D01*
X137900966Y-83767260D01*
X137899251Y-83764693D01*
X137845601Y-83684399D01*
X137762740Y-83629034D01*
X137762739Y-83629033D01*
X137762735Y-83629032D01*
X137689677Y-83614500D01*
X137689674Y-83614500D01*
X136174500Y-83614500D01*
X136107461Y-83594815D01*
X136061706Y-83542011D01*
X136050500Y-83490500D01*
X136050500Y-83103485D01*
X136057946Y-83078125D01*
X136061710Y-83051964D01*
X136067636Y-83045125D01*
X136070185Y-83036446D01*
X136090155Y-83019141D01*
X136107469Y-82999164D01*
X136116152Y-82996615D01*
X136122989Y-82990691D01*
X136149147Y-82986929D01*
X136174510Y-82979485D01*
X136185591Y-82981689D01*
X136192147Y-82980747D01*
X136209445Y-82984511D01*
X136215813Y-82986381D01*
X136310256Y-83025501D01*
X136428854Y-83049092D01*
X136434108Y-83050500D01*
X136434115Y-83050500D01*
X136565889Y-83050500D01*
X136565892Y-83050500D01*
X136567226Y-83050142D01*
X136575125Y-83048300D01*
X136689744Y-83025501D01*
X136808127Y-82976465D01*
X136914669Y-82905276D01*
X137005276Y-82814669D01*
X137076465Y-82708127D01*
X137125501Y-82589744D01*
X137150500Y-82464069D01*
X137150500Y-82335931D01*
X137150500Y-82335928D01*
X137125502Y-82210261D01*
X137125501Y-82210260D01*
X137125501Y-82210256D01*
X137076465Y-82091873D01*
X137076464Y-82091871D01*
X137076458Y-82091861D01*
X137021398Y-82009457D01*
X137000520Y-81942780D01*
X137000500Y-81940567D01*
X137000500Y-81462000D01*
X137020185Y-81394961D01*
X137072989Y-81349206D01*
X137124500Y-81338000D01*
X137347176Y-81338000D01*
X137347177Y-81337999D01*
X137420240Y-81323466D01*
X137479110Y-81284130D01*
X137545787Y-81263253D01*
X137613167Y-81281738D01*
X137659857Y-81333717D01*
X137672000Y-81387233D01*
X137672000Y-82562178D01*
X137686532Y-82635235D01*
X137686533Y-82635239D01*
X137704905Y-82662735D01*
X137741899Y-82718101D01*
X137824760Y-82773466D01*
X137824764Y-82773467D01*
X137897821Y-82787999D01*
X137897824Y-82788000D01*
X137897826Y-82788000D01*
X139347176Y-82788000D01*
X139347177Y-82787999D01*
X139420240Y-82773466D01*
X139503101Y-82718101D01*
X139519398Y-82693709D01*
X139573009Y-82648905D01*
X139642334Y-82640198D01*
X139705362Y-82670352D01*
X139725600Y-82693707D01*
X139741899Y-82718101D01*
X139824760Y-82773466D01*
X139824764Y-82773467D01*
X139897821Y-82787999D01*
X139897824Y-82788000D01*
X139897826Y-82788000D01*
X141347176Y-82788000D01*
X141347177Y-82787999D01*
X141420240Y-82773466D01*
X141503101Y-82718101D01*
X141519398Y-82693709D01*
X141573009Y-82648905D01*
X141642334Y-82640198D01*
X141705362Y-82670352D01*
X141725600Y-82693707D01*
X141741899Y-82718101D01*
X141824760Y-82773466D01*
X141824764Y-82773467D01*
X141897821Y-82787999D01*
X141897824Y-82788000D01*
X141897826Y-82788000D01*
X143347176Y-82788000D01*
X143347177Y-82787999D01*
X143420240Y-82773466D01*
X143503101Y-82718101D01*
X143519398Y-82693709D01*
X143573009Y-82648905D01*
X143642334Y-82640198D01*
X143705362Y-82670352D01*
X143725600Y-82693707D01*
X143741899Y-82718101D01*
X143824760Y-82773466D01*
X143824764Y-82773467D01*
X143897821Y-82787999D01*
X143897824Y-82788000D01*
X143897826Y-82788000D01*
X145347176Y-82788000D01*
X145347177Y-82787999D01*
X145420240Y-82773466D01*
X145503101Y-82718101D01*
X145519398Y-82693709D01*
X145573009Y-82648905D01*
X145642334Y-82640198D01*
X145705362Y-82670352D01*
X145725600Y-82693707D01*
X145741899Y-82718101D01*
X145824760Y-82773466D01*
X145824764Y-82773467D01*
X145897821Y-82787999D01*
X145897824Y-82788000D01*
X145897826Y-82788000D01*
X147347176Y-82788000D01*
X147347177Y-82787999D01*
X147420240Y-82773466D01*
X147503101Y-82718101D01*
X147519398Y-82693709D01*
X147573009Y-82648905D01*
X147642334Y-82640198D01*
X147705362Y-82670352D01*
X147725600Y-82693707D01*
X147741899Y-82718101D01*
X147824760Y-82773466D01*
X147824764Y-82773467D01*
X147897821Y-82787999D01*
X147897824Y-82788000D01*
X147897826Y-82788000D01*
X149347176Y-82788000D01*
X149347177Y-82787999D01*
X149420240Y-82773466D01*
X149503101Y-82718101D01*
X149558466Y-82635240D01*
X149573000Y-82562174D01*
X149573000Y-80812826D01*
X149573000Y-80812823D01*
X149572999Y-80812821D01*
X149558467Y-80739764D01*
X149558466Y-80739760D01*
X149556215Y-80736391D01*
X149503101Y-80656899D01*
X149445740Y-80618572D01*
X149420239Y-80601533D01*
X149420235Y-80601532D01*
X149347177Y-80587000D01*
X149347174Y-80587000D01*
X148451813Y-80587000D01*
X148384774Y-80567315D01*
X148339019Y-80514511D01*
X148329075Y-80445353D01*
X148358100Y-80381797D01*
X148382922Y-80359898D01*
X148432963Y-80326461D01*
X148464669Y-80305276D01*
X148546014Y-80223930D01*
X148607334Y-80190446D01*
X148677026Y-80195430D01*
X148702585Y-80208510D01*
X148766866Y-80251461D01*
X148766875Y-80251466D01*
X148776076Y-80255277D01*
X148885256Y-80300501D01*
X148885260Y-80300501D01*
X148885261Y-80300502D01*
X149010928Y-80325500D01*
X149010931Y-80325500D01*
X149139071Y-80325500D01*
X149223615Y-80308682D01*
X149264744Y-80300501D01*
X149383127Y-80251465D01*
X149489669Y-80180276D01*
X149580276Y-80089669D01*
X149651465Y-79983127D01*
X149700501Y-79864744D01*
X149719839Y-79767528D01*
X149752224Y-79705617D01*
X149753719Y-79704094D01*
X150083495Y-79374319D01*
X150144818Y-79340834D01*
X150171176Y-79338000D01*
X152125500Y-79338000D01*
X152192539Y-79357685D01*
G37*
%TD.AperFunction*%
%TA.AperFunction,Conductor*%
G36*
X140888126Y-84829129D02*
G01*
X140908389Y-84826951D01*
X140922037Y-84833783D01*
X140937158Y-84835858D01*
X140952645Y-84849104D01*
X140970868Y-84858226D01*
X140978655Y-84871351D01*
X140990255Y-84881272D01*
X140996121Y-84900787D01*
X141006521Y-84918314D01*
X141005976Y-84933568D01*
X141010370Y-84948184D01*
X141005572Y-84983150D01*
X141003627Y-84989934D01*
X140974499Y-85060256D01*
X140954161Y-85162497D01*
X140952742Y-85167449D01*
X140927701Y-85209962D01*
X140922774Y-85219383D01*
X140921840Y-85219914D01*
X140921224Y-85220961D01*
X138114005Y-88028181D01*
X138052682Y-88061666D01*
X138026324Y-88064500D01*
X138022073Y-88064500D01*
X137955034Y-88044815D01*
X137909279Y-87992011D01*
X137902413Y-87970755D01*
X137900967Y-87967262D01*
X137900966Y-87967260D01*
X137878667Y-87933887D01*
X137857791Y-87867214D01*
X137876275Y-87799834D01*
X137878628Y-87796170D01*
X137900966Y-87762740D01*
X137915500Y-87689674D01*
X137915500Y-86640326D01*
X137915500Y-86640323D01*
X137915499Y-86640321D01*
X137900967Y-86567264D01*
X137900967Y-86567262D01*
X137900966Y-86567260D01*
X137878667Y-86533887D01*
X137857791Y-86467214D01*
X137868243Y-86415127D01*
X137872619Y-86405163D01*
X137900966Y-86362740D01*
X137909000Y-86322349D01*
X137914448Y-86309949D01*
X137928574Y-86293161D01*
X137938744Y-86273720D01*
X137951022Y-86266484D01*
X137959434Y-86256488D01*
X137977437Y-86250917D01*
X137995882Y-86240047D01*
X138028186Y-86231392D01*
X138142314Y-86165500D01*
X138705995Y-85601819D01*
X138767318Y-85568334D01*
X138793676Y-85565500D01*
X139502972Y-85565500D01*
X139502974Y-85565500D01*
X139630268Y-85531392D01*
X139744396Y-85465500D01*
X140291819Y-84918075D01*
X140353140Y-84884592D01*
X140403690Y-84884141D01*
X140485928Y-84900500D01*
X140485931Y-84900500D01*
X140614071Y-84900500D01*
X140710732Y-84881272D01*
X140739744Y-84875501D01*
X140838922Y-84834419D01*
X140854094Y-84832788D01*
X140867937Y-84826359D01*
X140888126Y-84829129D01*
G37*
%TD.AperFunction*%
%TA.AperFunction,Conductor*%
G36*
X137734804Y-77024790D02*
G01*
X137781232Y-77054046D01*
X138863181Y-78135995D01*
X138896666Y-78197318D01*
X138899500Y-78223676D01*
X138899500Y-79236236D01*
X138879815Y-79303275D01*
X138827011Y-79349030D01*
X138757853Y-79358974D01*
X138706609Y-79339338D01*
X138608133Y-79273538D01*
X138608124Y-79273533D01*
X138489744Y-79224499D01*
X138489738Y-79224497D01*
X138392527Y-79205160D01*
X138330616Y-79172774D01*
X138329038Y-79171224D01*
X137609319Y-78451505D01*
X137575834Y-78390182D01*
X137573000Y-78363824D01*
X137573000Y-77662823D01*
X137572999Y-77662821D01*
X137558467Y-77589764D01*
X137558466Y-77589760D01*
X137503101Y-77506899D01*
X137478709Y-77490601D01*
X137433905Y-77436991D01*
X137425198Y-77367666D01*
X137455352Y-77304638D01*
X137478710Y-77284398D01*
X137503101Y-77268101D01*
X137558466Y-77185240D01*
X137558467Y-77185235D01*
X137571934Y-77117536D01*
X137604319Y-77055625D01*
X137665035Y-77021051D01*
X137734804Y-77024790D01*
G37*
%TD.AperFunction*%
%TA.AperFunction,Conductor*%
G36*
X149625007Y-73135319D02*
G01*
X149680941Y-73177191D01*
X149684776Y-73182610D01*
X149732973Y-73254742D01*
X149741899Y-73268101D01*
X149770029Y-73286896D01*
X149773589Y-73289669D01*
X149791461Y-73314518D01*
X149811094Y-73338011D01*
X149811672Y-73342620D01*
X149814385Y-73346391D01*
X149815985Y-73376959D01*
X149819801Y-73407336D01*
X149817796Y-73411526D01*
X149818039Y-73416165D01*
X149802857Y-73442750D01*
X149789646Y-73470363D01*
X149784583Y-73474749D01*
X149783391Y-73476838D01*
X149780333Y-73478432D01*
X149766291Y-73490600D01*
X149741899Y-73506899D01*
X149686533Y-73589760D01*
X149686532Y-73589764D01*
X149672000Y-73662821D01*
X149672000Y-75112178D01*
X149686532Y-75185235D01*
X149686533Y-75185239D01*
X149686534Y-75185240D01*
X149741899Y-75268101D01*
X149766290Y-75284398D01*
X149811094Y-75338011D01*
X149819801Y-75407336D01*
X149789646Y-75470363D01*
X149766290Y-75490602D01*
X149741899Y-75506899D01*
X149686533Y-75589760D01*
X149686532Y-75589764D01*
X149672000Y-75662821D01*
X149672000Y-77112178D01*
X149686532Y-77185235D01*
X149686533Y-77185239D01*
X149686534Y-77185240D01*
X149741899Y-77268101D01*
X149766290Y-77284398D01*
X149811094Y-77338011D01*
X149819801Y-77407336D01*
X149789646Y-77470363D01*
X149766291Y-77490600D01*
X149741899Y-77506899D01*
X149686533Y-77589760D01*
X149686532Y-77589764D01*
X149672000Y-77662821D01*
X149672000Y-78318824D01*
X149652315Y-78385863D01*
X149635681Y-78406505D01*
X149045961Y-78996224D01*
X148984638Y-79029709D01*
X148982473Y-79030160D01*
X148885260Y-79049497D01*
X148885255Y-79049499D01*
X148766875Y-79098533D01*
X148766863Y-79098540D01*
X148743389Y-79114225D01*
X148676712Y-79135102D01*
X148609332Y-79116617D01*
X148562642Y-79064637D01*
X148550500Y-79011122D01*
X148550500Y-74158676D01*
X148570185Y-74091637D01*
X148586819Y-74070995D01*
X149026000Y-73631814D01*
X149493995Y-73163818D01*
X149555316Y-73130335D01*
X149625007Y-73135319D01*
G37*
%TD.AperFunction*%
%TA.AperFunction,Conductor*%
G36*
X138445863Y-72907685D02*
G01*
X138466505Y-72924319D01*
X141113181Y-75570995D01*
X141146666Y-75632318D01*
X141149500Y-75658676D01*
X141149500Y-77592324D01*
X141129815Y-77659363D01*
X141077011Y-77705118D01*
X141007853Y-77715062D01*
X140944297Y-77686037D01*
X140937819Y-77680005D01*
X137609319Y-74351505D01*
X137575834Y-74290182D01*
X137573000Y-74263824D01*
X137573000Y-73662823D01*
X137572999Y-73662821D01*
X137558467Y-73589764D01*
X137558466Y-73589760D01*
X137503101Y-73506899D01*
X137478709Y-73490601D01*
X137433905Y-73436991D01*
X137425198Y-73367666D01*
X137455352Y-73304638D01*
X137478707Y-73284399D01*
X137503101Y-73268101D01*
X137558466Y-73185240D01*
X137573000Y-73112174D01*
X137573000Y-73012000D01*
X137592685Y-72944961D01*
X137645489Y-72899206D01*
X137697000Y-72888000D01*
X138378824Y-72888000D01*
X138445863Y-72907685D01*
G37*
%TD.AperFunction*%
%TA.AperFunction,Conductor*%
G36*
X149590757Y-65403363D02*
G01*
X149600843Y-65402097D01*
X149623717Y-65413041D01*
X149648045Y-65420185D01*
X149654700Y-65427865D01*
X149663870Y-65432253D01*
X149677196Y-65453828D01*
X149693800Y-65472989D01*
X149695246Y-65483048D01*
X149700588Y-65491696D01*
X149700135Y-65517047D01*
X149703744Y-65542147D01*
X149699488Y-65553252D01*
X149699340Y-65561555D01*
X149690978Y-65579030D01*
X149686532Y-65589764D01*
X149672000Y-65662821D01*
X149672000Y-66368823D01*
X149652315Y-66435862D01*
X149635681Y-66456504D01*
X144575244Y-71516940D01*
X144575245Y-71516941D01*
X144499500Y-71592686D01*
X144433608Y-71706812D01*
X144399500Y-71834108D01*
X144399500Y-74842323D01*
X144393261Y-74863567D01*
X144391683Y-74885653D01*
X144383609Y-74896437D01*
X144379815Y-74909362D01*
X144363082Y-74923860D01*
X144349813Y-74941588D01*
X144337190Y-74946296D01*
X144327011Y-74955117D01*
X144305097Y-74958267D01*
X144284350Y-74966007D01*
X144271186Y-74963143D01*
X144257853Y-74965061D01*
X144237712Y-74955862D01*
X144216076Y-74951157D01*
X144198348Y-74937886D01*
X144194297Y-74936036D01*
X144187821Y-74930007D01*
X144181674Y-74923860D01*
X144157314Y-74899500D01*
X144157311Y-74899498D01*
X137609319Y-68351505D01*
X137575834Y-68290182D01*
X137573000Y-68263824D01*
X137573000Y-67662823D01*
X137572999Y-67662821D01*
X137558467Y-67589764D01*
X137558466Y-67589760D01*
X137503101Y-67506899D01*
X137478709Y-67490601D01*
X137433905Y-67436991D01*
X137425198Y-67367666D01*
X137455352Y-67304638D01*
X137478707Y-67284399D01*
X137503101Y-67268101D01*
X137558466Y-67185240D01*
X137573000Y-67112174D01*
X137573000Y-65662826D01*
X137573000Y-65662823D01*
X137572999Y-65662821D01*
X137558467Y-65589764D01*
X137558466Y-65589763D01*
X137558466Y-65589760D01*
X137558464Y-65589757D01*
X137553793Y-65578479D01*
X137555944Y-65577587D01*
X137540014Y-65526715D01*
X137558498Y-65459335D01*
X137610476Y-65412644D01*
X137663994Y-65400500D01*
X149581006Y-65400500D01*
X149590757Y-65403363D01*
G37*
%TD.AperFunction*%
%TA.AperFunction,Conductor*%
G36*
X149594782Y-69025544D02*
G01*
X149650715Y-69067416D01*
X149673065Y-69117534D01*
X149686532Y-69185236D01*
X149686533Y-69185239D01*
X149686534Y-69185240D01*
X149741899Y-69268101D01*
X149766290Y-69284398D01*
X149811094Y-69338011D01*
X149819801Y-69407336D01*
X149789646Y-69470363D01*
X149766290Y-69490602D01*
X149741899Y-69506899D01*
X149686533Y-69589760D01*
X149686532Y-69589764D01*
X149672000Y-69662821D01*
X149672000Y-70443824D01*
X149652315Y-70510863D01*
X149635681Y-70531505D01*
X146762181Y-73405005D01*
X146700858Y-73438490D01*
X146631166Y-73433506D01*
X146575233Y-73391634D01*
X146550816Y-73326170D01*
X146550500Y-73317324D01*
X146550500Y-72018675D01*
X146570185Y-71951636D01*
X146586819Y-71930994D01*
X148022627Y-70495186D01*
X149463769Y-69054043D01*
X149525090Y-69020560D01*
X149594782Y-69025544D01*
G37*
%TD.AperFunction*%
%TD*%
M02*
