%TF.GenerationSoftware,KiCad,Pcbnew,10.0.1*%
%TF.CreationDate,2026-05-04T16:09:43+02:00*%
%TF.ProjectId,T1UHL-ESP12_board,54315548-4c2d-4455-9350-31325f626f61,rev?*%
%TF.SameCoordinates,Original*%
%TF.FileFunction,Copper,L2,Bot*%
%TF.FilePolarity,Positive*%
%FSLAX46Y46*%
G04 Gerber Fmt 4.6, Leading zero omitted, Abs format (unit mm)*
G04 Created by KiCad (PCBNEW 10.0.1) date 2026-05-04 16:09:43*
%MOMM*%
%LPD*%
G01*
G04 APERTURE LIST*
%TA.AperFunction,ViaPad*%
%ADD10C,0.800000*%
%TD*%
%TA.AperFunction,Conductor*%
%ADD11C,0.500000*%
%TD*%
G04 APERTURE END LIST*
D10*
%TO.N,GND*%
X148550000Y-89650000D03*
X146500000Y-86750000D03*
X146500000Y-85700000D03*
X146500000Y-83400000D03*
X143350000Y-85650000D03*
X143400000Y-83500000D03*
X143150000Y-69250000D03*
X142000000Y-68100000D03*
X145550000Y-67300000D03*
X144050000Y-66150000D03*
X142350000Y-66300000D03*
X140600000Y-66200000D03*
X149000000Y-70400000D03*
X147150000Y-72200000D03*
X140600000Y-76350000D03*
X140050000Y-75250000D03*
X138800000Y-74750000D03*
X138650000Y-73800000D03*
X141750000Y-88500000D03*
X139950000Y-88500000D03*
X138250000Y-78300000D03*
X149050000Y-77500000D03*
X149000000Y-75750000D03*
X148050000Y-71450000D03*
X143150000Y-67600000D03*
X144600000Y-68600000D03*
X146800000Y-66400000D03*
X139150000Y-66550000D03*
X140050000Y-67900000D03*
X141300000Y-69850000D03*
X143050000Y-71200000D03*
X148200000Y-91700000D03*
X142600000Y-90450000D03*
X140150000Y-90450000D03*
X139250000Y-86150000D03*
X137450000Y-83100000D03*
X150300000Y-81800000D03*
X141200000Y-87300000D03*
X150200000Y-94400000D03*
X141500000Y-93150000D03*
X140350000Y-93150000D03*
X145550000Y-94250000D03*
%TO.N,VCC*%
X136500000Y-82400000D03*
%TO.N,RX2*%
X138350000Y-91050000D03*
%TO.N,P24*%
X140200000Y-94600000D03*
%TO.N,P26*%
X143300000Y-93100000D03*
%TO.N,VCC*%
X136600000Y-94350000D03*
%TO.N,TX2*%
X149000000Y-93850000D03*
%TO.N,ADC*%
X143632500Y-89482500D03*
%TO.N,RX*%
X146000000Y-89550000D03*
%TO.N,TX*%
X144950000Y-89850000D03*
%TO.N,EN*%
X142650000Y-87450000D03*
%TO.N,P22*%
X141600000Y-85250000D03*
%TO.N,P16*%
X140550000Y-84250000D03*
%TO.N,P14*%
X139400000Y-83900000D03*
%TO.N,TX2*%
X149075000Y-79675000D03*
%TO.N,P24*%
X148050000Y-79800000D03*
%TO.N,P26*%
X147050000Y-80000000D03*
%TO.N,RX*%
X146050000Y-79900000D03*
%TO.N,TX*%
X144900000Y-79750000D03*
%TO.N,ADC*%
X143850000Y-79750000D03*
%TO.N,EN*%
X142750000Y-79700000D03*
%TO.N,P22*%
X141650000Y-79750000D03*
%TO.N,P16*%
X140600000Y-79800000D03*
%TO.N,P14*%
X139400000Y-79800000D03*
%TO.N,RX2*%
X138300000Y-79850000D03*
%TD*%
%TO.N,P24*%
D11*
X143800000Y-94600000D02*
X140200000Y-94600000D01*
X147550000Y-90850000D02*
X143800000Y-94600000D01*
X147550000Y-88439950D02*
X147550000Y-90850000D01*
X148050000Y-87939950D02*
X147550000Y-88439950D01*
X147950000Y-79910050D02*
X148050000Y-80010051D01*
X147950000Y-79900000D02*
X147950000Y-79910050D01*
X148050000Y-80010051D02*
X148050000Y-87939950D01*
X148050000Y-79800000D02*
X147950000Y-79900000D01*
%TO.N,P26*%
X143700000Y-93100000D02*
X143300000Y-93100000D01*
X146800000Y-90000000D02*
X143700000Y-93100000D01*
X146800000Y-89952082D02*
X146800000Y-90000000D01*
X146800000Y-89147918D02*
X146850000Y-89197918D01*
X147350000Y-87650000D02*
X146800000Y-88200000D01*
X147350000Y-80300000D02*
X147350000Y-87650000D01*
X146800000Y-88200000D02*
X146800000Y-89147918D01*
X146850000Y-89197918D02*
X146850000Y-89902082D01*
X147050000Y-80000000D02*
X147350000Y-80300000D01*
X146850000Y-89902082D02*
X146800000Y-89952082D01*
%TO.N,EN*%
X142500000Y-80102082D02*
X142500000Y-79950000D01*
X142500000Y-79950000D02*
X142750000Y-79700000D01*
X142450000Y-87250000D02*
X142450000Y-80152082D01*
X142650000Y-87450000D02*
X142450000Y-87250000D01*
X142450000Y-80152082D02*
X142500000Y-80102082D01*
%TO.N,ADC*%
X144050000Y-79950000D02*
X143850000Y-79750000D01*
X144050000Y-80102082D02*
X144050000Y-79950000D01*
X144250000Y-88865000D02*
X144250000Y-80302082D01*
X144250000Y-80302082D02*
X144050000Y-80102082D01*
X143632500Y-89482500D02*
X144250000Y-88865000D01*
%TO.N,RX*%
X145650000Y-89200000D02*
X146000000Y-89550000D01*
X145650000Y-80300000D02*
X145650000Y-89200000D01*
X146050000Y-79900000D02*
X145650000Y-80300000D01*
%TO.N,TX2*%
X149150000Y-82450000D02*
X150350000Y-83650000D01*
X149150000Y-79750000D02*
X149150000Y-82450000D01*
X150350000Y-83650000D02*
X150350000Y-92500000D01*
X150350000Y-92500000D02*
X149000000Y-93850000D01*
X149075000Y-79675000D02*
X149150000Y-79750000D01*
%TO.N,VCC*%
X136600000Y-82500000D02*
X136600000Y-94350000D01*
X136500000Y-82400000D02*
X136600000Y-82500000D01*
%TO.N,RX2*%
X138300000Y-91000000D02*
X138350000Y-91050000D01*
X138300000Y-79850000D02*
X138300000Y-91000000D01*
%TO.N,P14*%
X139400000Y-83900000D02*
X139400000Y-79800000D01*
%TO.N,P16*%
X140550000Y-79850000D02*
X140600000Y-79800000D01*
X140550000Y-84250000D02*
X140550000Y-79850000D01*
%TO.N,P22*%
X141600000Y-79800000D02*
X141650000Y-79750000D01*
X141600000Y-85250000D02*
X141600000Y-79800000D01*
%TO.N,TX*%
X144950000Y-89850000D02*
X144950000Y-79800000D01*
X144950000Y-79800000D02*
X144900000Y-79750000D01*
%TD*%
%TA.AperFunction,Conductor*%
%TO.N,GND*%
G36*
X152192539Y-65420185D02*
G01*
X152238294Y-65472989D01*
X152249500Y-65524500D01*
X152249500Y-81225500D01*
X152229815Y-81292539D01*
X152177011Y-81338294D01*
X152125500Y-81349500D01*
X151284108Y-81349500D01*
X151156812Y-81383608D01*
X151042686Y-81449500D01*
X151042683Y-81449502D01*
X150949502Y-81542683D01*
X150949500Y-81542686D01*
X150883608Y-81656812D01*
X150849500Y-81784108D01*
X150849500Y-83142324D01*
X150829815Y-83209363D01*
X150777011Y-83255118D01*
X150707853Y-83265062D01*
X150644297Y-83236037D01*
X150637819Y-83230005D01*
X149686819Y-82279005D01*
X149653334Y-82217682D01*
X149650500Y-82191324D01*
X149650500Y-80010121D01*
X149659939Y-79962668D01*
X149700501Y-79864744D01*
X149725500Y-79739069D01*
X149725500Y-79610931D01*
X149725500Y-79610928D01*
X149700502Y-79485261D01*
X149700501Y-79485260D01*
X149700501Y-79485256D01*
X149659109Y-79385327D01*
X149651466Y-79366875D01*
X149651461Y-79366866D01*
X149580276Y-79260331D01*
X149580273Y-79260327D01*
X149489672Y-79169726D01*
X149489668Y-79169723D01*
X149383133Y-79098538D01*
X149383124Y-79098533D01*
X149264744Y-79049499D01*
X149264738Y-79049497D01*
X149139071Y-79024500D01*
X149139069Y-79024500D01*
X149010931Y-79024500D01*
X149010929Y-79024500D01*
X148885261Y-79049497D01*
X148885255Y-79049499D01*
X148766875Y-79098533D01*
X148766866Y-79098538D01*
X148660331Y-79169723D01*
X148578985Y-79251069D01*
X148517661Y-79284553D01*
X148447970Y-79279569D01*
X148422413Y-79266489D01*
X148358133Y-79223538D01*
X148358124Y-79223533D01*
X148239744Y-79174499D01*
X148239738Y-79174497D01*
X148114071Y-79149500D01*
X148114069Y-79149500D01*
X147985931Y-79149500D01*
X147985929Y-79149500D01*
X147860261Y-79174497D01*
X147860255Y-79174499D01*
X147741875Y-79223533D01*
X147741866Y-79223538D01*
X147635331Y-79294723D01*
X147635327Y-79294726D01*
X147544726Y-79385327D01*
X147544720Y-79385335D01*
X147538368Y-79394841D01*
X147484754Y-79439644D01*
X147415428Y-79448348D01*
X147366375Y-79429046D01*
X147358131Y-79423537D01*
X147358124Y-79423533D01*
X147239744Y-79374499D01*
X147239738Y-79374497D01*
X147114071Y-79349500D01*
X147114069Y-79349500D01*
X146985931Y-79349500D01*
X146985929Y-79349500D01*
X146860261Y-79374497D01*
X146860255Y-79374499D01*
X146741875Y-79423533D01*
X146741868Y-79423537D01*
X146677585Y-79466490D01*
X146610908Y-79487367D01*
X146543528Y-79468882D01*
X146521014Y-79451068D01*
X146464672Y-79394726D01*
X146464668Y-79394723D01*
X146358133Y-79323538D01*
X146358124Y-79323533D01*
X146239744Y-79274499D01*
X146239738Y-79274497D01*
X146114071Y-79249500D01*
X146114069Y-79249500D01*
X145985931Y-79249500D01*
X145985929Y-79249500D01*
X145860261Y-79274497D01*
X145860255Y-79274499D01*
X145741875Y-79323533D01*
X145741866Y-79323538D01*
X145635331Y-79394723D01*
X145635325Y-79394728D01*
X145628048Y-79402005D01*
X145566724Y-79435487D01*
X145497032Y-79430500D01*
X145441101Y-79388626D01*
X145437269Y-79383211D01*
X145405276Y-79335331D01*
X145405273Y-79335327D01*
X145314672Y-79244726D01*
X145314668Y-79244723D01*
X145208133Y-79173538D01*
X145208124Y-79173533D01*
X145089744Y-79124499D01*
X145089738Y-79124497D01*
X144964071Y-79099500D01*
X144964069Y-79099500D01*
X144835931Y-79099500D01*
X144835929Y-79099500D01*
X144710261Y-79124497D01*
X144710255Y-79124499D01*
X144591875Y-79173533D01*
X144591866Y-79173538D01*
X144485331Y-79244723D01*
X144485327Y-79244726D01*
X144462681Y-79267373D01*
X144401358Y-79300858D01*
X144331666Y-79295874D01*
X144287319Y-79267373D01*
X144264672Y-79244726D01*
X144264668Y-79244723D01*
X144158133Y-79173538D01*
X144158124Y-79173533D01*
X144039744Y-79124499D01*
X144039738Y-79124497D01*
X143914071Y-79099500D01*
X143914069Y-79099500D01*
X143785931Y-79099500D01*
X143785929Y-79099500D01*
X143660261Y-79124497D01*
X143660255Y-79124499D01*
X143541875Y-79173533D01*
X143541866Y-79173538D01*
X143435331Y-79244723D01*
X143435327Y-79244726D01*
X143412681Y-79267373D01*
X143351358Y-79300858D01*
X143281666Y-79295874D01*
X143237319Y-79267373D01*
X143164672Y-79194726D01*
X143164668Y-79194723D01*
X143058133Y-79123538D01*
X143058124Y-79123533D01*
X142939744Y-79074499D01*
X142939738Y-79074497D01*
X142814071Y-79049500D01*
X142814069Y-79049500D01*
X142685931Y-79049500D01*
X142685929Y-79049500D01*
X142560261Y-79074497D01*
X142560255Y-79074499D01*
X142441875Y-79123533D01*
X142441866Y-79123538D01*
X142335331Y-79194723D01*
X142335327Y-79194726D01*
X142262681Y-79267373D01*
X142201358Y-79300858D01*
X142131666Y-79295874D01*
X142087319Y-79267373D01*
X142064672Y-79244726D01*
X142064668Y-79244723D01*
X141958133Y-79173538D01*
X141958124Y-79173533D01*
X141839744Y-79124499D01*
X141839738Y-79124497D01*
X141714071Y-79099500D01*
X141714069Y-79099500D01*
X141585931Y-79099500D01*
X141585929Y-79099500D01*
X141460261Y-79124497D01*
X141460255Y-79124499D01*
X141341875Y-79173533D01*
X141341866Y-79173538D01*
X141235331Y-79244723D01*
X141235326Y-79244727D01*
X141187679Y-79292374D01*
X141126356Y-79325858D01*
X141056664Y-79320873D01*
X141020283Y-79297486D01*
X141019379Y-79298589D01*
X141014668Y-79294723D01*
X140908133Y-79223538D01*
X140908124Y-79223533D01*
X140789744Y-79174499D01*
X140789738Y-79174497D01*
X140664071Y-79149500D01*
X140664069Y-79149500D01*
X140535931Y-79149500D01*
X140535929Y-79149500D01*
X140410261Y-79174497D01*
X140410255Y-79174499D01*
X140291875Y-79223533D01*
X140291866Y-79223538D01*
X140185331Y-79294723D01*
X140185327Y-79294726D01*
X140090416Y-79389638D01*
X140089239Y-79388461D01*
X140038097Y-79423292D01*
X139968252Y-79425156D01*
X139909590Y-79389631D01*
X139909584Y-79389638D01*
X139909556Y-79389610D01*
X139908487Y-79388963D01*
X139905749Y-79385803D01*
X139814672Y-79294726D01*
X139814668Y-79294723D01*
X139708133Y-79223538D01*
X139708124Y-79223533D01*
X139589744Y-79174499D01*
X139589738Y-79174497D01*
X139464071Y-79149500D01*
X139464069Y-79149500D01*
X139335931Y-79149500D01*
X139335929Y-79149500D01*
X139210261Y-79174497D01*
X139210255Y-79174499D01*
X139091875Y-79223533D01*
X139091866Y-79223538D01*
X138985331Y-79294723D01*
X138985327Y-79294726D01*
X138912681Y-79367373D01*
X138851358Y-79400858D01*
X138781666Y-79395874D01*
X138737319Y-79367373D01*
X138714672Y-79344726D01*
X138714668Y-79344723D01*
X138608133Y-79273538D01*
X138608124Y-79273533D01*
X138489744Y-79224499D01*
X138489738Y-79224497D01*
X138364071Y-79199500D01*
X138364069Y-79199500D01*
X138235931Y-79199500D01*
X138235929Y-79199500D01*
X138110261Y-79224497D01*
X138110255Y-79224499D01*
X137991875Y-79273533D01*
X137991866Y-79273538D01*
X137885331Y-79344723D01*
X137885327Y-79344726D01*
X137794726Y-79435327D01*
X137794723Y-79435331D01*
X137723538Y-79541866D01*
X137723533Y-79541875D01*
X137674499Y-79660255D01*
X137674497Y-79660261D01*
X137649500Y-79785928D01*
X137649500Y-79785931D01*
X137649500Y-79914069D01*
X137649500Y-79914071D01*
X137649499Y-79914071D01*
X137674497Y-80039738D01*
X137674499Y-80039744D01*
X137723533Y-80158124D01*
X137723538Y-80158133D01*
X137778602Y-80240541D01*
X137799480Y-80307218D01*
X137799500Y-80309432D01*
X137799500Y-90665398D01*
X137779815Y-90732437D01*
X137778604Y-90734286D01*
X137773534Y-90741872D01*
X137724499Y-90860255D01*
X137724497Y-90860261D01*
X137699500Y-90985928D01*
X137699500Y-90985931D01*
X137699500Y-91114069D01*
X137699500Y-91114071D01*
X137699499Y-91114071D01*
X137724497Y-91239738D01*
X137724499Y-91239744D01*
X137773533Y-91358124D01*
X137773538Y-91358133D01*
X137844723Y-91464668D01*
X137844726Y-91464672D01*
X137935327Y-91555273D01*
X137935331Y-91555276D01*
X138041866Y-91626461D01*
X138041872Y-91626464D01*
X138041873Y-91626465D01*
X138160256Y-91675501D01*
X138160260Y-91675501D01*
X138160261Y-91675502D01*
X138285928Y-91700500D01*
X138285931Y-91700500D01*
X138414071Y-91700500D01*
X138498615Y-91683682D01*
X138539744Y-91675501D01*
X138658127Y-91626465D01*
X138764669Y-91555276D01*
X138855276Y-91464669D01*
X138926465Y-91358127D01*
X138975501Y-91239744D01*
X138983682Y-91198615D01*
X139000500Y-91114071D01*
X139000500Y-90985928D01*
X138975502Y-90860261D01*
X138975501Y-90860260D01*
X138975501Y-90860256D01*
X138926465Y-90741873D01*
X138926464Y-90741872D01*
X138926461Y-90741866D01*
X138855276Y-90635331D01*
X138855273Y-90635327D01*
X138836819Y-90616873D01*
X138803334Y-90555550D01*
X138800500Y-90529192D01*
X138800500Y-84513763D01*
X138820185Y-84446724D01*
X138872989Y-84400969D01*
X138942147Y-84391025D01*
X138993389Y-84410660D01*
X139091873Y-84476465D01*
X139210256Y-84525501D01*
X139210260Y-84525501D01*
X139210261Y-84525502D01*
X139335928Y-84550500D01*
X139335931Y-84550500D01*
X139464071Y-84550500D01*
X139548615Y-84533682D01*
X139589744Y-84525501D01*
X139708127Y-84476465D01*
X139708132Y-84476461D01*
X139708135Y-84476460D01*
X139763877Y-84439214D01*
X139830554Y-84418335D01*
X139897935Y-84436819D01*
X139944625Y-84488797D01*
X139947330Y-84494863D01*
X139973531Y-84558120D01*
X139973538Y-84558133D01*
X140044723Y-84664668D01*
X140044726Y-84664672D01*
X140135327Y-84755273D01*
X140135331Y-84755276D01*
X140241866Y-84826461D01*
X140241872Y-84826464D01*
X140241873Y-84826465D01*
X140360256Y-84875501D01*
X140360260Y-84875501D01*
X140360261Y-84875502D01*
X140485928Y-84900500D01*
X140485931Y-84900500D01*
X140614071Y-84900500D01*
X140698615Y-84883682D01*
X140739744Y-84875501D01*
X140838922Y-84834419D01*
X140908389Y-84826951D01*
X140970868Y-84858226D01*
X141006521Y-84918314D01*
X141004028Y-84988139D01*
X141000935Y-84996432D01*
X140974499Y-85060256D01*
X140974497Y-85060261D01*
X140949500Y-85185928D01*
X140949500Y-85185931D01*
X140949500Y-85314069D01*
X140949500Y-85314071D01*
X140949499Y-85314071D01*
X140974497Y-85439738D01*
X140974499Y-85439744D01*
X141023533Y-85558124D01*
X141023538Y-85558133D01*
X141094723Y-85664668D01*
X141094726Y-85664672D01*
X141185327Y-85755273D01*
X141185331Y-85755276D01*
X141291866Y-85826461D01*
X141291872Y-85826464D01*
X141291873Y-85826465D01*
X141410256Y-85875501D01*
X141410260Y-85875501D01*
X141410261Y-85875502D01*
X141535928Y-85900500D01*
X141535931Y-85900500D01*
X141664071Y-85900500D01*
X141795718Y-85874313D01*
X141795957Y-85875517D01*
X141859366Y-85874948D01*
X141918481Y-85912194D01*
X141948075Y-85975486D01*
X141949500Y-85994234D01*
X141949500Y-87315891D01*
X141983608Y-87443186D01*
X141986718Y-87450693D01*
X141985381Y-87451246D01*
X141999500Y-87503936D01*
X141999500Y-87514069D01*
X141999500Y-87514071D01*
X141999499Y-87514071D01*
X142024497Y-87639738D01*
X142024499Y-87639744D01*
X142073533Y-87758124D01*
X142073538Y-87758133D01*
X142144723Y-87864668D01*
X142144726Y-87864672D01*
X142235327Y-87955273D01*
X142235331Y-87955276D01*
X142341866Y-88026461D01*
X142341872Y-88026464D01*
X142341873Y-88026465D01*
X142460256Y-88075501D01*
X142460260Y-88075501D01*
X142460261Y-88075502D01*
X142585928Y-88100500D01*
X142585931Y-88100500D01*
X142714071Y-88100500D01*
X142798615Y-88083682D01*
X142839744Y-88075501D01*
X142958127Y-88026465D01*
X143064669Y-87955276D01*
X143155276Y-87864669D01*
X143226465Y-87758127D01*
X143275501Y-87639744D01*
X143300500Y-87514069D01*
X143300500Y-87385931D01*
X143300500Y-87385928D01*
X143275502Y-87260261D01*
X143275501Y-87260260D01*
X143275501Y-87260256D01*
X143226465Y-87141873D01*
X143226464Y-87141872D01*
X143226461Y-87141866D01*
X143155276Y-87035331D01*
X143155273Y-87035327D01*
X143064672Y-86944726D01*
X143064668Y-86944723D01*
X143005609Y-86905261D01*
X142960804Y-86851649D01*
X142950500Y-86802159D01*
X142950500Y-80403899D01*
X142970185Y-80336860D01*
X143005744Y-80300707D01*
X143015837Y-80293981D01*
X143058127Y-80276465D01*
X143164669Y-80205276D01*
X143196015Y-80173929D01*
X143206243Y-80167115D01*
X143228331Y-80160230D01*
X143248636Y-80149142D01*
X143261057Y-80150029D01*
X143272947Y-80146324D01*
X143295251Y-80152474D01*
X143318328Y-80154124D01*
X143331175Y-80162380D01*
X143340303Y-80164897D01*
X143347374Y-80172790D01*
X143362680Y-80182626D01*
X143435327Y-80255273D01*
X143435331Y-80255276D01*
X143541866Y-80326461D01*
X143541879Y-80326468D01*
X143581509Y-80342883D01*
X143626910Y-80375260D01*
X143635196Y-80384622D01*
X143649500Y-80409396D01*
X143715849Y-80475745D01*
X143718353Y-80478574D01*
X143731656Y-80506910D01*
X143746666Y-80534399D01*
X143747291Y-80540214D01*
X143748045Y-80541820D01*
X143747723Y-80544235D01*
X143749500Y-80560758D01*
X143749500Y-88606324D01*
X143729815Y-88673363D01*
X143713185Y-88694000D01*
X143603461Y-88803725D01*
X143542138Y-88837209D01*
X143539973Y-88837660D01*
X143442760Y-88856997D01*
X143442755Y-88856999D01*
X143324375Y-88906033D01*
X143324366Y-88906038D01*
X143217831Y-88977223D01*
X143217827Y-88977226D01*
X143127226Y-89067827D01*
X143127223Y-89067831D01*
X143056038Y-89174366D01*
X143056033Y-89174375D01*
X143006999Y-89292755D01*
X143006997Y-89292761D01*
X142982000Y-89418428D01*
X142982000Y-89418431D01*
X142982000Y-89546569D01*
X142982000Y-89546571D01*
X142981999Y-89546571D01*
X143006997Y-89672238D01*
X143006999Y-89672244D01*
X143056033Y-89790624D01*
X143056038Y-89790633D01*
X143127223Y-89897168D01*
X143127226Y-89897172D01*
X143217827Y-89987773D01*
X143217831Y-89987776D01*
X143324366Y-90058961D01*
X143324372Y-90058964D01*
X143324373Y-90058965D01*
X143442756Y-90108001D01*
X143442760Y-90108001D01*
X143442761Y-90108002D01*
X143568428Y-90133000D01*
X143568431Y-90133000D01*
X143696571Y-90133000D01*
X143815120Y-90109418D01*
X143822244Y-90108001D01*
X143940627Y-90058965D01*
X144047169Y-89987776D01*
X144105825Y-89929119D01*
X144167146Y-89895636D01*
X144236838Y-89900620D01*
X144292772Y-89942491D01*
X144315122Y-89992608D01*
X144324498Y-90039741D01*
X144324499Y-90039744D01*
X144373533Y-90158124D01*
X144373538Y-90158133D01*
X144444723Y-90264668D01*
X144444726Y-90264672D01*
X144535327Y-90355273D01*
X144535331Y-90355276D01*
X144641866Y-90426461D01*
X144641872Y-90426464D01*
X144641873Y-90426465D01*
X144760256Y-90475501D01*
X144760260Y-90475501D01*
X144760261Y-90475502D01*
X144885928Y-90500500D01*
X144885931Y-90500500D01*
X145014071Y-90500500D01*
X145098615Y-90483682D01*
X145139744Y-90475501D01*
X145258127Y-90426465D01*
X145364669Y-90355276D01*
X145455276Y-90264669D01*
X145523256Y-90162929D01*
X145576865Y-90118127D01*
X145646190Y-90109418D01*
X145685753Y-90124985D01*
X145686498Y-90123592D01*
X145691868Y-90126461D01*
X145691873Y-90126465D01*
X145703295Y-90131196D01*
X145714059Y-90135655D01*
X145768462Y-90179496D01*
X145790527Y-90245790D01*
X145773248Y-90313490D01*
X145754287Y-90337897D01*
X143638799Y-92453385D01*
X143577476Y-92486870D01*
X143507784Y-92481886D01*
X143503670Y-92480267D01*
X143489744Y-92474499D01*
X143489737Y-92474497D01*
X143364071Y-92449500D01*
X143364069Y-92449500D01*
X143235931Y-92449500D01*
X143235929Y-92449500D01*
X143110261Y-92474497D01*
X143110255Y-92474499D01*
X142991875Y-92523533D01*
X142991866Y-92523538D01*
X142885331Y-92594723D01*
X142885327Y-92594726D01*
X142794726Y-92685327D01*
X142794723Y-92685331D01*
X142723538Y-92791866D01*
X142723533Y-92791875D01*
X142674499Y-92910255D01*
X142674497Y-92910261D01*
X142649500Y-93035928D01*
X142649500Y-93035931D01*
X142649500Y-93164069D01*
X142649500Y-93164071D01*
X142649499Y-93164071D01*
X142674497Y-93289738D01*
X142674499Y-93289744D01*
X142723533Y-93408124D01*
X142723538Y-93408133D01*
X142794723Y-93514668D01*
X142794726Y-93514672D01*
X142885327Y-93605273D01*
X142885331Y-93605276D01*
X142991866Y-93676461D01*
X142991872Y-93676464D01*
X142991873Y-93676465D01*
X143110256Y-93725501D01*
X143110260Y-93725501D01*
X143110261Y-93725502D01*
X143235928Y-93750500D01*
X143235931Y-93750500D01*
X143364071Y-93750500D01*
X143448615Y-93733682D01*
X143489744Y-93725501D01*
X143608127Y-93676465D01*
X143690541Y-93621398D01*
X143704006Y-93616559D01*
X143712705Y-93609641D01*
X143735888Y-93605105D01*
X143746957Y-93601129D01*
X143753177Y-93600500D01*
X143765892Y-93600500D01*
X143773598Y-93598435D01*
X143783548Y-93597429D01*
X143808450Y-93602084D01*
X143833773Y-93602686D01*
X143842210Y-93608396D01*
X143852228Y-93610269D01*
X143870661Y-93627650D01*
X143891638Y-93641846D01*
X143895648Y-93651211D01*
X143903063Y-93658202D01*
X143909173Y-93682790D01*
X143919145Y-93706073D01*
X143917456Y-93716119D01*
X143919914Y-93726009D01*
X143911761Y-93749996D01*
X143907562Y-93774976D01*
X143899353Y-93786503D01*
X143897430Y-93792163D01*
X143892571Y-93796027D01*
X143883704Y-93808481D01*
X143629005Y-94063181D01*
X143567682Y-94096666D01*
X143541324Y-94099500D01*
X140659432Y-94099500D01*
X140592393Y-94079815D01*
X140590541Y-94078602D01*
X140508133Y-94023538D01*
X140508124Y-94023533D01*
X140389744Y-93974499D01*
X140389738Y-93974497D01*
X140264071Y-93949500D01*
X140264069Y-93949500D01*
X140135931Y-93949500D01*
X140135929Y-93949500D01*
X140010261Y-93974497D01*
X140010255Y-93974499D01*
X139891875Y-94023533D01*
X139891866Y-94023538D01*
X139785331Y-94094723D01*
X139785327Y-94094726D01*
X139694726Y-94185327D01*
X139694723Y-94185331D01*
X139623538Y-94291866D01*
X139623533Y-94291875D01*
X139574499Y-94410255D01*
X139574497Y-94410261D01*
X139549500Y-94535928D01*
X139549500Y-94535931D01*
X139549500Y-94664069D01*
X139549500Y-94664071D01*
X139549499Y-94664071D01*
X139574497Y-94789738D01*
X139574499Y-94789744D01*
X139623533Y-94908124D01*
X139623538Y-94908133D01*
X139694723Y-95014668D01*
X139694726Y-95014672D01*
X139785327Y-95105273D01*
X139785331Y-95105276D01*
X139891866Y-95176461D01*
X139891872Y-95176464D01*
X139891873Y-95176465D01*
X140010256Y-95225501D01*
X140010260Y-95225501D01*
X140010261Y-95225502D01*
X140135928Y-95250500D01*
X140135931Y-95250500D01*
X140264071Y-95250500D01*
X140348615Y-95233682D01*
X140389744Y-95225501D01*
X140508127Y-95176465D01*
X140590541Y-95121398D01*
X140657218Y-95100520D01*
X140659432Y-95100500D01*
X143865890Y-95100500D01*
X143865892Y-95100500D01*
X143993186Y-95066392D01*
X144107314Y-95000500D01*
X147950500Y-91157314D01*
X148016392Y-91043186D01*
X148050500Y-90915892D01*
X148050500Y-90784107D01*
X148050500Y-88698626D01*
X148070185Y-88631587D01*
X148086819Y-88610945D01*
X148091440Y-88606324D01*
X148450500Y-88247264D01*
X148516392Y-88133136D01*
X148550500Y-88005842D01*
X148550500Y-87874057D01*
X148550500Y-82857675D01*
X148570185Y-82790636D01*
X148622989Y-82744881D01*
X148692147Y-82734937D01*
X148755703Y-82763962D01*
X148762166Y-82769980D01*
X149334873Y-83342686D01*
X149813181Y-83820994D01*
X149846666Y-83882317D01*
X149849500Y-83908675D01*
X149849500Y-92241324D01*
X149829815Y-92308363D01*
X149813181Y-92329005D01*
X148970961Y-93171224D01*
X148909638Y-93204709D01*
X148907473Y-93205160D01*
X148810260Y-93224497D01*
X148810255Y-93224499D01*
X148691875Y-93273533D01*
X148691866Y-93273538D01*
X148585331Y-93344723D01*
X148585327Y-93344726D01*
X148494726Y-93435327D01*
X148494723Y-93435331D01*
X148423538Y-93541866D01*
X148423533Y-93541875D01*
X148374499Y-93660255D01*
X148374497Y-93660261D01*
X148349500Y-93785928D01*
X148349500Y-93785931D01*
X148349500Y-93914069D01*
X148349500Y-93914071D01*
X148349499Y-93914071D01*
X148374497Y-94039738D01*
X148374499Y-94039744D01*
X148423533Y-94158124D01*
X148423538Y-94158133D01*
X148494723Y-94264668D01*
X148494726Y-94264672D01*
X148585327Y-94355273D01*
X148585331Y-94355276D01*
X148691866Y-94426461D01*
X148691872Y-94426464D01*
X148691873Y-94426465D01*
X148810256Y-94475501D01*
X148810260Y-94475501D01*
X148810261Y-94475502D01*
X148935928Y-94500500D01*
X148935931Y-94500500D01*
X149064071Y-94500500D01*
X149148615Y-94483682D01*
X149189744Y-94475501D01*
X149308127Y-94426465D01*
X149414669Y-94355276D01*
X149505276Y-94264669D01*
X149576465Y-94158127D01*
X149625501Y-94039744D01*
X149644839Y-93942526D01*
X149677224Y-93880616D01*
X149678721Y-93879091D01*
X150637819Y-92919992D01*
X150699142Y-92886508D01*
X150768834Y-92891492D01*
X150824767Y-92933364D01*
X150849184Y-92998828D01*
X150849500Y-93007674D01*
X150849500Y-95025500D01*
X150829815Y-95092539D01*
X150777011Y-95138294D01*
X150725500Y-95149500D01*
X149784108Y-95149500D01*
X149656812Y-95183608D01*
X149542686Y-95249500D01*
X149542683Y-95249502D01*
X149449502Y-95342683D01*
X149449500Y-95342686D01*
X149383608Y-95456812D01*
X149349500Y-95584108D01*
X149349500Y-97825500D01*
X149329815Y-97892539D01*
X149277011Y-97938294D01*
X149225500Y-97949500D01*
X137724500Y-97949500D01*
X137657461Y-97929815D01*
X137611706Y-97877011D01*
X137600500Y-97825500D01*
X137600500Y-95684110D01*
X137600500Y-95684108D01*
X137566392Y-95556814D01*
X137500500Y-95442686D01*
X137407314Y-95349500D01*
X137350250Y-95316554D01*
X137293187Y-95283608D01*
X137229539Y-95266554D01*
X137165892Y-95249500D01*
X137165891Y-95249500D01*
X136174500Y-95249500D01*
X136107461Y-95229815D01*
X136061706Y-95177011D01*
X136050500Y-95125500D01*
X136050500Y-94997172D01*
X136070185Y-94930133D01*
X136122989Y-94884378D01*
X136192147Y-94874434D01*
X136243392Y-94894071D01*
X136291864Y-94926460D01*
X136291872Y-94926464D01*
X136291873Y-94926465D01*
X136410256Y-94975501D01*
X136410260Y-94975501D01*
X136410261Y-94975502D01*
X136535928Y-95000500D01*
X136535931Y-95000500D01*
X136664071Y-95000500D01*
X136748615Y-94983682D01*
X136789744Y-94975501D01*
X136908127Y-94926465D01*
X137014669Y-94855276D01*
X137105276Y-94764669D01*
X137176465Y-94658127D01*
X137225501Y-94539744D01*
X137248034Y-94426466D01*
X137250500Y-94414071D01*
X137250500Y-94285928D01*
X137225502Y-94160261D01*
X137225501Y-94160260D01*
X137225501Y-94160256D01*
X137176465Y-94041873D01*
X137176464Y-94041871D01*
X137176458Y-94041861D01*
X137121398Y-93959457D01*
X137100520Y-93892780D01*
X137100500Y-93890567D01*
X137100500Y-82674766D01*
X137109939Y-82627313D01*
X137125501Y-82589744D01*
X137133682Y-82548615D01*
X137150500Y-82464071D01*
X137150500Y-82335928D01*
X137125502Y-82210261D01*
X137125501Y-82210260D01*
X137125501Y-82210256D01*
X137076465Y-82091873D01*
X137076464Y-82091872D01*
X137076461Y-82091866D01*
X137005276Y-81985331D01*
X137005273Y-81985327D01*
X136914672Y-81894726D01*
X136914668Y-81894723D01*
X136808133Y-81823538D01*
X136808124Y-81823533D01*
X136689744Y-81774499D01*
X136689738Y-81774497D01*
X136564071Y-81749500D01*
X136564069Y-81749500D01*
X136435931Y-81749500D01*
X136435929Y-81749500D01*
X136310261Y-81774497D01*
X136310251Y-81774500D01*
X136192704Y-81823190D01*
X136123235Y-81830659D01*
X136060756Y-81799384D01*
X136025477Y-81740723D01*
X136016392Y-81706814D01*
X135950500Y-81592686D01*
X135857314Y-81499500D01*
X135800250Y-81466554D01*
X135743187Y-81433608D01*
X135679539Y-81416554D01*
X135615892Y-81399500D01*
X135615891Y-81399500D01*
X134974500Y-81399500D01*
X134907461Y-81379815D01*
X134861706Y-81327011D01*
X134850500Y-81275500D01*
X134850500Y-65524500D01*
X134870185Y-65457461D01*
X134922989Y-65411706D01*
X134974500Y-65400500D01*
X152125500Y-65400500D01*
X152192539Y-65420185D01*
G37*
%TD.AperFunction*%
%TA.AperFunction,Conductor*%
G36*
X146496878Y-80414768D02*
G01*
X146504832Y-80413352D01*
X146530087Y-80423878D01*
X146556470Y-80431116D01*
X146566509Y-80439060D01*
X146569324Y-80440233D01*
X146570930Y-80442558D01*
X146578985Y-80448931D01*
X146635327Y-80505273D01*
X146635335Y-80505279D01*
X146741862Y-80576458D01*
X146741866Y-80576460D01*
X146741873Y-80576465D01*
X146772952Y-80589338D01*
X146827355Y-80633178D01*
X146849421Y-80699472D01*
X146849500Y-80703899D01*
X146849500Y-87391324D01*
X146829815Y-87458363D01*
X146813181Y-87479005D01*
X146399502Y-87892683D01*
X146399500Y-87892686D01*
X146381887Y-87923193D01*
X146331319Y-87971408D01*
X146262712Y-87984630D01*
X146197848Y-87958662D01*
X146157320Y-87901748D01*
X146150500Y-87861192D01*
X146150500Y-80644537D01*
X146170185Y-80577498D01*
X146219241Y-80533531D01*
X146232462Y-80526949D01*
X146239744Y-80525501D01*
X146358127Y-80476465D01*
X146428977Y-80429124D01*
X146436045Y-80425606D01*
X146462979Y-80420807D01*
X146489089Y-80412632D01*
X146496878Y-80414768D01*
G37*
%TD.AperFunction*%
%TD*%
M02*
