M48
; DRILL file KiCad 10.0.1 date 2026-05-03T20:39:49
; FORMAT={-:-/ absolute / metric / decimal}
; #@! TF.CreationDate,2026-05-03T20:39:49+02:00
; #@! TF.GenerationSoftware,Kicad,Pcbnew,10.0.1
; #@! TF.FileFunction,Plated,1,2,PTH
FMAT,2
METRIC
; #@! TA.AperFunction,Plated,PTH,ViaDrill
T1C0.500
%
G90
G05
T1
X162.2Y-74.1
X162.85Y-75.65
X162.85Y-80.05
X163.5Y-78.5
X163.9Y-81.5
X164.1Y-74.1
X165.05Y-79.6
X165.1Y-72.1
X165.25Y-70.2
X165.35Y-59.4
X165.55Y-65.25
X165.6Y-61.8
X165.7Y-63.5
X166.312Y-72.206
X166.35Y-83.95
X166.95Y-66.45
X166.95Y-86.6
X167.2Y-61.8
X167.25Y-81.6
X167.3Y-72.05
X167.3Y-82.85
X167.7Y-59.4
X168.15Y-64.75
X168.35Y-72.1
X168.35Y-75.5
X168.7Y-84.45
X168.7Y-86.6
X169.35Y-72.1
X169.4Y-63.45
X169.4Y-75.35
X169.4Y-79.85
X169.8Y-82.8
X170.05Y-84.45
X170.15Y-59.35
X170.35Y-81.1
X170.35Y-72.1
X170.6Y-62.45
X171.349Y-72.153
X171.35Y-75.4
X171.4Y-78.8
X172.05Y-57.75
X172.1Y-59.4
X172.35Y-72.1
X172.4Y-84.8
X172.7Y-67.85
X173.1Y-60.4
X173.45Y-72.1
X173.5Y-66.95
X173.55Y-58.3
X173.55Y-80.95
X173.7Y-86.8
X173.95Y-59.2
X174.4Y-66.1
X174.5Y-72.1
X175.2Y-57.8
X176.15Y-80.0
X176.3Y-61.4
X176.4Y-75.5
X176.6Y-78.45
X177.6Y-74.1
X178.75Y-74.1
M30
