%TF.GenerationSoftware,KiCad,Pcbnew,10.0.1*%
%TF.CreationDate,2026-05-03T20:39:54+02:00*%
%TF.ProjectId,TYWE1S-ESP12_board,54595745-3153-42d4-9553-5031325f626f,rev?*%
%TF.SameCoordinates,Original*%
%TF.FileFunction,Paste,Top*%
%TF.FilePolarity,Positive*%
%FSLAX46Y46*%
G04 Gerber Fmt 4.6, Leading zero omitted, Abs format (unit mm)*
G04 Created by KiCad (PCBNEW 10.0.1) date 2026-05-03 20:39:54*
%MOMM*%
%LPD*%
G01*
G04 APERTURE LIST*
%ADD10R,2.000000X0.900000*%
%ADD11R,2.500000X1.400000*%
%ADD12R,1.400000X1.700000*%
G04 APERTURE END LIST*
D10*
%TO.C,U2*%
X162850000Y-75650000D03*
X178650000Y-75550000D03*
X178650000Y-77050000D03*
X178650000Y-78550000D03*
X178650000Y-80050000D03*
X178650000Y-81550000D03*
X178650000Y-83050000D03*
X178650000Y-84550000D03*
X178650000Y-86050000D03*
X178650000Y-87550000D03*
X162850000Y-87550000D03*
X162850000Y-86050000D03*
X162850000Y-84550000D03*
X162850000Y-83050000D03*
X162850000Y-81550000D03*
X162850000Y-80050000D03*
X162850000Y-78550000D03*
X162850000Y-77050000D03*
%TD*%
D11*
%TO.C,U1*%
X178250000Y-58400000D03*
X178250000Y-60400000D03*
X178250000Y-62400000D03*
X178250000Y-64400000D03*
X178250000Y-66400000D03*
X178250000Y-68400000D03*
X178250000Y-70400000D03*
X178250000Y-72400000D03*
D12*
X175700000Y-73700000D03*
X173700000Y-73700000D03*
X171700000Y-73700000D03*
X169700000Y-73700000D03*
X167700000Y-73700000D03*
X165700000Y-73700000D03*
D11*
X163150000Y-72400000D03*
X163150000Y-70400000D03*
X163150000Y-68400000D03*
X163150000Y-66400000D03*
X163150000Y-64400000D03*
X163150000Y-62400000D03*
X163150000Y-60400000D03*
X163150000Y-58400000D03*
%TD*%
M02*
