%TF.GenerationSoftware,KiCad,Pcbnew,10.0.3*%
%TF.CreationDate,2026-06-07T23:13:39+02:00*%
%TF.ProjectId,T1UHL-ESP12_board,54315548-4c2d-4455-9350-31325f626f61,rev?*%
%TF.SameCoordinates,Original*%
%TF.FileFunction,Legend,Top*%
%TF.FilePolarity,Positive*%
%FSLAX46Y46*%
G04 Gerber Fmt 4.6, Leading zero omitted, Abs format (unit mm)*
G04 Created by KiCad (PCBNEW 10.0.3) date 2026-06-07 23:13:39*
%MOMM*%
%LPD*%
G01*
G04 APERTURE LIST*
%ADD10C,0.100000*%
%ADD11C,0.150000*%
%ADD12C,0.250000*%
%ADD13C,0.400000*%
G04 APERTURE END LIST*
D10*
X147001027Y-105554919D02*
X147572455Y-105554919D01*
X147286741Y-106554919D02*
X147286741Y-105554919D01*
X148429598Y-106554919D02*
X147858170Y-106554919D01*
X148143884Y-106554919D02*
X148143884Y-105554919D01*
X148143884Y-105554919D02*
X148048646Y-105697776D01*
X148048646Y-105697776D02*
X147953408Y-105793014D01*
X147953408Y-105793014D02*
X147858170Y-105840633D01*
X148858170Y-106173966D02*
X149620075Y-106173966D01*
X150096265Y-105554919D02*
X150096265Y-106364442D01*
X150096265Y-106364442D02*
X150143884Y-106459680D01*
X150143884Y-106459680D02*
X150191503Y-106507300D01*
X150191503Y-106507300D02*
X150286741Y-106554919D01*
X150286741Y-106554919D02*
X150477217Y-106554919D01*
X150477217Y-106554919D02*
X150572455Y-106507300D01*
X150572455Y-106507300D02*
X150620074Y-106459680D01*
X150620074Y-106459680D02*
X150667693Y-106364442D01*
X150667693Y-106364442D02*
X150667693Y-105554919D01*
X151143884Y-106173966D02*
X151905789Y-106173966D01*
X152381979Y-106554919D02*
X152381979Y-105554919D01*
X152381979Y-106031109D02*
X152953407Y-106031109D01*
X152953407Y-106554919D02*
X152953407Y-105554919D01*
X153905788Y-106554919D02*
X153429598Y-106554919D01*
X153429598Y-106554919D02*
X153429598Y-105554919D01*
D11*
X149128095Y-102968319D02*
X149128095Y-103777842D01*
X149128095Y-103777842D02*
X149175714Y-103873080D01*
X149175714Y-103873080D02*
X149223333Y-103920700D01*
X149223333Y-103920700D02*
X149318571Y-103968319D01*
X149318571Y-103968319D02*
X149509047Y-103968319D01*
X149509047Y-103968319D02*
X149604285Y-103920700D01*
X149604285Y-103920700D02*
X149651904Y-103873080D01*
X149651904Y-103873080D02*
X149699523Y-103777842D01*
X149699523Y-103777842D02*
X149699523Y-102968319D01*
X150128095Y-103063557D02*
X150175714Y-103015938D01*
X150175714Y-103015938D02*
X150270952Y-102968319D01*
X150270952Y-102968319D02*
X150509047Y-102968319D01*
X150509047Y-102968319D02*
X150604285Y-103015938D01*
X150604285Y-103015938D02*
X150651904Y-103063557D01*
X150651904Y-103063557D02*
X150699523Y-103158795D01*
X150699523Y-103158795D02*
X150699523Y-103254033D01*
X150699523Y-103254033D02*
X150651904Y-103396890D01*
X150651904Y-103396890D02*
X150080476Y-103968319D01*
X150080476Y-103968319D02*
X150699523Y-103968319D01*
%TO.C,U2*%
D12*
X141990000Y-106682500D02*
X141990000Y-101412500D01*
X141990000Y-101412500D02*
X157790000Y-101412500D01*
X157790000Y-101412500D02*
X157790000Y-106682500D01*
X143660000Y-121712500D02*
X143490000Y-121712500D01*
X143490000Y-121712500D02*
X143490000Y-118912500D01*
X143490000Y-118912500D02*
X141990000Y-118912500D01*
X141990000Y-118912500D02*
X141990000Y-116742500D01*
X145460000Y-121712500D02*
X145320000Y-121712500D01*
X147260000Y-121712500D02*
X147120000Y-121712500D01*
X149060000Y-121712500D02*
X148920000Y-121712500D01*
X150860000Y-121712500D02*
X150720000Y-121712500D01*
X152660000Y-121712500D02*
X152520000Y-121712500D01*
X154460000Y-121712500D02*
X154320000Y-121712500D01*
X157790000Y-116742500D02*
X157790000Y-118812500D01*
X157790000Y-118812500D02*
X156290000Y-118812500D01*
X156290000Y-118812500D02*
X156290000Y-121712500D01*
X156290000Y-121712500D02*
X156120000Y-121712500D01*
D13*
X141200000Y-106192500D02*
G75*
G02*
X140800000Y-106192500I-200000J0D01*
G01*
X140800000Y-106192500D02*
G75*
G02*
X141200000Y-106192500I200000J0D01*
G01*
%TD*%
M02*
