M48
; DRILL file KiCad 10.0.3 date 2026-06-07T23:13:30
; FORMAT={-:-/ absolute / metric / decimal}
; #@! TF.CreationDate,2026-06-07T23:13:30+02:00
; #@! TF.GenerationSoftware,Kicad,Pcbnew,10.0.3
; #@! TF.FileFunction,Plated,1,2,PTH
FMAT,2
METRIC
; #@! TA.AperFunction,Plated,PTH,ViaDrill
T1C0.500
%
G90
G05
T1
X141.58Y-121.57
X142.88Y-121.6
X144.2Y-105.96
X144.2Y-107.85
X144.36Y-111.75
X144.96Y-118.86
X145.3Y-115.82
X145.72Y-105.54
X146.19Y-114.535
X146.23Y-117.82
X146.711Y-115.413
X146.93Y-107.03
X146.93Y-108.86
X146.97Y-111.86
X147.04Y-113.56
X147.19Y-110.36
X147.38Y-117.93
X147.97Y-108.02
X149.13Y-105.23
X149.5Y-115.72
X150.3Y-113.87
X150.71Y-111.65
X150.85Y-110.41
X151.33Y-114.72
X151.58Y-108.33
X151.72Y-117.95
X152.0Y-106.47
X152.31Y-110.24
X152.34Y-111.43
X153.17Y-117.99
X153.69Y-108.33
X153.85Y-110.12
X153.93Y-116.86
X154.34Y-105.34
X155.07Y-111.91
X155.145Y-118.875
X155.27Y-116.95
X155.615Y-108.325
X156.65Y-121.48
X157.26Y-111.712
X157.86Y-121.48
M30
