%TF.GenerationSoftware,KiCad,Pcbnew,10.0.3*%
%TF.CreationDate,2026-06-07T23:13:39+02:00*%
%TF.ProjectId,T1UHL-ESP12_board,54315548-4c2d-4455-9350-31325f626f61,rev?*%
%TF.SameCoordinates,Original*%
%TF.FileFunction,Copper,L1,Top*%
%TF.FilePolarity,Positive*%
%FSLAX46Y46*%
G04 Gerber Fmt 4.6, Leading zero omitted, Abs format (unit mm)*
G04 Created by KiCad (PCBNEW 10.0.3) date 2026-06-07 23:13:39*
%MOMM*%
%LPD*%
G01*
G04 APERTURE LIST*
%TA.AperFunction,SMDPad,CuDef*%
%ADD10R,2.000000X1.000000*%
%TD*%
%TA.AperFunction,SMDPad,CuDef*%
%ADD11R,1.000000X3.200000*%
%TD*%
%TA.AperFunction,ViaPad*%
%ADD12C,0.800000*%
%TD*%
%TA.AperFunction,Conductor*%
%ADD13C,0.500000*%
%TD*%
G04 APERTURE END LIST*
D10*
%TO.P,U2,21,P15_21*%
%TO.N,P14*%
X157260000Y-107512500D03*
%TO.P,U2,20,P17_20*%
%TO.N,P16*%
X157260000Y-108912500D03*
%TO.P,U2,19,P21_19*%
%TO.N,unconnected-(U2-P21-Pad19)*%
X157260000Y-110312500D03*
%TO.P,U2,18,CEN_18*%
%TO.N,P22*%
X157260000Y-111712500D03*
%TO.P,U2,17,P28_17*%
%TO.N,ADC*%
X157260000Y-113112500D03*
%TO.P,U2,16,RX1_16*%
%TO.N,RX2*%
X157260000Y-114512500D03*
%TO.P,U2,15,TX1_15*%
%TO.N,TX2*%
X157260000Y-115912500D03*
D11*
%TO.P,U2,14,3V3_14*%
%TO.N,P24*%
X155290000Y-120612500D03*
%TO.P,U2,13,GND_13*%
%TO.N,unconnected-(U2-GND-Pad13)*%
X153490000Y-120612500D03*
%TO.P,U2,12,P8_12*%
%TO.N,P26*%
X151690000Y-120612500D03*
%TO.P,U2,11,P6_11*%
%TO.N,unconnected-(U2-P6-Pad11)*%
X149890000Y-120612500D03*
%TO.P,U2,10,P26_10*%
%TO.N,unconnected-(U2-P26-Pad10)*%
X148090000Y-120612500D03*
%TO.P,U2,9,P9_9*%
%TO.N,GND*%
X146290000Y-120612500D03*
%TO.P,U2,8,P24_8*%
%TO.N,VCC*%
X144490000Y-120612500D03*
D10*
%TO.P,U2,7,TX2_7*%
%TO.N,TX*%
X142520000Y-115912500D03*
%TO.P,U2,6,RX2_6*%
%TO.N,RX*%
X142520000Y-114512500D03*
%TO.P,U2,5,ADC_5*%
%TO.N,unconnected-(U2-ADC-Pad5)*%
X142520000Y-113112500D03*
%TO.P,U2,4,P22_4*%
%TO.N,EN*%
X142520000Y-111712500D03*
%TO.P,U2,3,P23_3*%
%TO.N,unconnected-(U2-P23-Pad3)*%
X142520000Y-110312500D03*
%TO.P,U2,2,P16_2*%
%TO.N,unconnected-(U2-P16-Pad2)*%
X142520000Y-108912500D03*
%TO.P,U2,1,P14_1*%
%TO.N,unconnected-(U2-P14-Pad1)*%
X142520000Y-107512500D03*
%TD*%
D12*
%TO.N,GND*%
X155070000Y-111910000D03*
X155270000Y-116950000D03*
X153690000Y-108330000D03*
X151580000Y-108330000D03*
X157860000Y-121480000D03*
X156650000Y-121480000D03*
X152000000Y-106470000D03*
X149130000Y-105230000D03*
X154340000Y-105340000D03*
X145720000Y-105540000D03*
X146930000Y-107030000D03*
X147970000Y-108020000D03*
X146930000Y-108860000D03*
X147190000Y-110360000D03*
X152340000Y-111430000D03*
X152310000Y-110240000D03*
X150850000Y-110410000D03*
X150710000Y-111650000D03*
X151330000Y-114720000D03*
X145300000Y-115820000D03*
X142880000Y-121600000D03*
X141580000Y-121570000D03*
X147380000Y-117930000D03*
X146230000Y-117820000D03*
%TO.N,P26*%
X147040000Y-113560000D03*
X146711224Y-115413306D03*
%TO.N,P24*%
X151720000Y-117950000D03*
X155145000Y-118875000D03*
%TO.N,VCC*%
X144960000Y-118860000D03*
%TO.N,TX2*%
X153930000Y-116860000D03*
%TO.N,RX2*%
X153170000Y-117990000D03*
%TO.N,P14*%
X149500000Y-115720000D03*
%TO.N,P16*%
X150300000Y-113870000D03*
%TO.N,P22*%
X157260000Y-111712500D03*
%TO.N,ADC*%
X153850000Y-110120000D03*
X155615000Y-108325000D03*
%TO.N,P24*%
X146190000Y-114534530D03*
%TO.N,P26*%
X146970000Y-111860000D03*
%TO.N,TX*%
X144200000Y-105960000D03*
%TO.N,RX*%
X144200000Y-107850000D03*
%TO.N,EN*%
X144360000Y-111750000D03*
%TD*%
%TO.N,P26*%
D13*
X146711224Y-115413306D02*
X146711224Y-115601224D01*
X146711224Y-115601224D02*
X148540000Y-117430000D01*
X148540000Y-117430000D02*
X149607500Y-117430000D01*
X149607500Y-117430000D02*
X151690000Y-119512500D01*
X151690000Y-119512500D02*
X151690000Y-120612500D01*
%TO.N,P24*%
X146190000Y-114534530D02*
X147034530Y-114534530D01*
X147034530Y-114534530D02*
X149230000Y-116730000D01*
X149230000Y-116730000D02*
X150500000Y-116730000D01*
X150500000Y-116730000D02*
X151720000Y-117950000D01*
%TO.N,P26*%
X147040000Y-113560000D02*
X147040000Y-111930000D01*
X147040000Y-111930000D02*
X146970000Y-111860000D01*
%TO.N,P24*%
X155145000Y-118875000D02*
X155100000Y-118830000D01*
X155290000Y-119020000D02*
X155145000Y-118875000D01*
X155290000Y-120612500D02*
X155290000Y-119020000D01*
%TO.N,VCC*%
X144960000Y-118860000D02*
X144580000Y-118860000D01*
X144580000Y-118860000D02*
X144490000Y-118950000D01*
X144490000Y-118950000D02*
X144490000Y-120612500D01*
%TO.N,TX2*%
X154877500Y-115912500D02*
X153930000Y-116860000D01*
X157260000Y-115912500D02*
X154877500Y-115912500D01*
%TO.N,RX2*%
X152300000Y-117200000D02*
X153090000Y-117990000D01*
X153090000Y-117990000D02*
X153170000Y-117990000D01*
X157260000Y-114512500D02*
X153097500Y-114512500D01*
X153097500Y-114512500D02*
X152300000Y-115310000D01*
X152300000Y-115310000D02*
X152300000Y-117200000D01*
%TO.N,ADC*%
X153850000Y-112580000D02*
X154420000Y-113150000D01*
X153850000Y-110120000D02*
X153850000Y-112580000D01*
X154457500Y-113112500D02*
X157260000Y-113112500D01*
X154420000Y-113150000D02*
X154457500Y-113112500D01*
%TO.N,P16*%
X156992500Y-109180000D02*
X150680000Y-109180000D01*
X150680000Y-109180000D02*
X150600000Y-109100000D01*
X157260000Y-108912500D02*
X156992500Y-109180000D01*
X149580000Y-113230000D02*
X150220000Y-113870000D01*
X150600000Y-109100000D02*
X149580000Y-110120000D01*
X150220000Y-113870000D02*
X150300000Y-113870000D01*
X149580000Y-110120000D02*
X149580000Y-113230000D01*
%TO.N,P14*%
X148480000Y-114700000D02*
X149500000Y-115720000D01*
X148480000Y-109290000D02*
X148480000Y-114700000D01*
X150295000Y-107475000D02*
X148480000Y-109290000D01*
X157222500Y-107475000D02*
X150295000Y-107475000D01*
X157260000Y-107512500D02*
X157222500Y-107475000D01*
%TO.N,TX*%
X145910000Y-107670000D02*
X144200000Y-105960000D01*
X143609949Y-115912500D02*
X145910000Y-113612449D01*
X145910000Y-113612449D02*
X145910000Y-107670000D01*
X142520000Y-115912500D02*
X143609949Y-115912500D01*
%TO.N,RX*%
X145210000Y-108860000D02*
X144200000Y-107850000D01*
X145210000Y-113322500D02*
X145210000Y-108860000D01*
X144020000Y-114512500D02*
X145210000Y-113322500D01*
X142520000Y-114512500D02*
X144020000Y-114512500D01*
%TO.N,EN*%
X144322500Y-111712500D02*
X144360000Y-111750000D01*
X142520000Y-111712500D02*
X144322500Y-111712500D01*
%TD*%
%TA.AperFunction,Conductor*%
%TO.N,GND*%
G36*
X159002539Y-104700185D02*
G01*
X159048294Y-104752989D01*
X159059500Y-104804500D01*
X159059500Y-122185500D01*
X159039815Y-122252539D01*
X158987011Y-122298294D01*
X158935500Y-122309500D01*
X156114500Y-122309500D01*
X156047461Y-122289815D01*
X156001706Y-122237011D01*
X155990500Y-122185500D01*
X155990500Y-118992749D01*
X155990499Y-118992747D01*
X155978868Y-118934270D01*
X155978867Y-118934269D01*
X155934552Y-118867947D01*
X155868230Y-118823632D01*
X155868229Y-118823631D01*
X155822053Y-118814447D01*
X155760142Y-118782063D01*
X155726470Y-118724925D01*
X155704577Y-118643216D01*
X155683551Y-118606797D01*
X155625524Y-118506290D01*
X155625518Y-118506282D01*
X155513717Y-118394481D01*
X155513709Y-118394475D01*
X155376790Y-118315426D01*
X155376786Y-118315424D01*
X155376784Y-118315423D01*
X155224057Y-118274500D01*
X155065943Y-118274500D01*
X154913216Y-118315423D01*
X154913209Y-118315426D01*
X154776290Y-118394475D01*
X154776282Y-118394481D01*
X154664481Y-118506282D01*
X154664475Y-118506290D01*
X154585426Y-118643209D01*
X154585423Y-118643216D01*
X154544500Y-118795943D01*
X154544500Y-118954057D01*
X154581404Y-119091784D01*
X154585275Y-119106231D01*
X154589500Y-119138324D01*
X154589500Y-122185500D01*
X154586949Y-122194185D01*
X154588238Y-122203147D01*
X154577259Y-122227187D01*
X154569815Y-122252539D01*
X154562974Y-122258466D01*
X154559213Y-122266703D01*
X154536978Y-122280992D01*
X154517011Y-122298294D01*
X154506496Y-122300581D01*
X154500435Y-122304477D01*
X154465500Y-122309500D01*
X154314500Y-122309500D01*
X154247461Y-122289815D01*
X154201706Y-122237011D01*
X154190500Y-122185500D01*
X154190500Y-118992749D01*
X154190499Y-118992747D01*
X154178868Y-118934270D01*
X154178867Y-118934269D01*
X154134552Y-118867947D01*
X154068230Y-118823632D01*
X154068229Y-118823631D01*
X154009752Y-118812000D01*
X154009748Y-118812000D01*
X153364280Y-118812000D01*
X153297241Y-118792315D01*
X153251486Y-118739511D01*
X153241542Y-118670353D01*
X153270567Y-118606797D01*
X153329345Y-118569023D01*
X153332153Y-118568234D01*
X153401784Y-118549577D01*
X153538716Y-118470520D01*
X153650520Y-118358716D01*
X153729577Y-118221784D01*
X153770500Y-118069057D01*
X153770500Y-117910943D01*
X153729577Y-117758216D01*
X153653702Y-117626796D01*
X153637230Y-117558898D01*
X153660083Y-117492871D01*
X153715004Y-117449680D01*
X153784557Y-117443039D01*
X153793175Y-117445021D01*
X153850943Y-117460500D01*
X153850945Y-117460500D01*
X154009055Y-117460500D01*
X154009057Y-117460500D01*
X154161784Y-117419577D01*
X154298716Y-117340520D01*
X154410520Y-117228716D01*
X154489577Y-117091784D01*
X154530500Y-116939057D01*
X154530500Y-116939044D01*
X154531441Y-116931901D01*
X154559707Y-116868003D01*
X154566688Y-116860414D01*
X155027784Y-116399319D01*
X155089107Y-116365834D01*
X155115465Y-116363000D01*
X155943961Y-116363000D01*
X156011000Y-116382685D01*
X156056755Y-116435489D01*
X156065578Y-116462808D01*
X156071132Y-116490729D01*
X156071132Y-116490730D01*
X156115447Y-116557052D01*
X156181769Y-116601367D01*
X156181770Y-116601368D01*
X156240247Y-116612999D01*
X156240250Y-116613000D01*
X156240252Y-116613000D01*
X158279750Y-116613000D01*
X158279751Y-116612999D01*
X158294568Y-116610052D01*
X158338229Y-116601368D01*
X158338229Y-116601367D01*
X158338231Y-116601367D01*
X158404552Y-116557052D01*
X158448867Y-116490731D01*
X158448867Y-116490729D01*
X158448868Y-116490729D01*
X158460499Y-116432252D01*
X158460500Y-116432250D01*
X158460500Y-115392749D01*
X158460499Y-115392747D01*
X158448868Y-115334270D01*
X158448867Y-115334268D01*
X158413535Y-115281392D01*
X158392656Y-115214715D01*
X158411140Y-115147335D01*
X158413535Y-115143608D01*
X158418541Y-115136117D01*
X158448867Y-115090731D01*
X158448867Y-115090730D01*
X158448868Y-115090729D01*
X158460273Y-115033389D01*
X158460500Y-115032248D01*
X158460500Y-113992752D01*
X158460500Y-113992749D01*
X158460499Y-113992747D01*
X158448868Y-113934270D01*
X158448867Y-113934268D01*
X158413535Y-113881392D01*
X158392656Y-113814715D01*
X158411140Y-113747335D01*
X158413535Y-113743608D01*
X158448867Y-113690731D01*
X158448868Y-113690729D01*
X158457552Y-113647068D01*
X158460500Y-113632248D01*
X158460500Y-112592752D01*
X158460500Y-112592749D01*
X158460499Y-112592747D01*
X158448868Y-112534270D01*
X158448867Y-112534268D01*
X158413535Y-112481392D01*
X158392656Y-112414715D01*
X158411140Y-112347335D01*
X158413535Y-112343608D01*
X158448867Y-112290731D01*
X158448868Y-112290729D01*
X158460499Y-112232252D01*
X158460500Y-112232250D01*
X158460500Y-111192749D01*
X158460499Y-111192747D01*
X158448868Y-111134270D01*
X158448867Y-111134268D01*
X158413535Y-111081392D01*
X158392656Y-111014715D01*
X158411140Y-110947335D01*
X158413535Y-110943608D01*
X158448867Y-110890731D01*
X158448868Y-110890729D01*
X158460499Y-110832252D01*
X158460500Y-110832250D01*
X158460500Y-109792749D01*
X158460499Y-109792747D01*
X158448868Y-109734270D01*
X158448867Y-109734268D01*
X158413535Y-109681392D01*
X158392656Y-109614715D01*
X158411140Y-109547335D01*
X158413535Y-109543608D01*
X158448867Y-109490731D01*
X158448868Y-109490729D01*
X158457552Y-109447068D01*
X158460500Y-109432248D01*
X158460500Y-108392752D01*
X158460500Y-108392749D01*
X158460499Y-108392747D01*
X158448868Y-108334270D01*
X158448867Y-108334268D01*
X158413535Y-108281392D01*
X158392656Y-108214715D01*
X158411140Y-108147335D01*
X158413535Y-108143608D01*
X158448867Y-108090731D01*
X158448868Y-108090729D01*
X158460499Y-108032252D01*
X158460500Y-108032250D01*
X158460500Y-106992749D01*
X158460499Y-106992747D01*
X158448868Y-106934270D01*
X158448867Y-106934269D01*
X158404552Y-106867947D01*
X158338230Y-106823632D01*
X158338229Y-106823631D01*
X158279752Y-106812000D01*
X158279748Y-106812000D01*
X156240252Y-106812000D01*
X156240247Y-106812000D01*
X156181770Y-106823631D01*
X156181769Y-106823632D01*
X156115447Y-106867947D01*
X156071132Y-106934269D01*
X156066458Y-106945554D01*
X156062897Y-106944079D01*
X156040638Y-106986617D01*
X155979917Y-107021181D01*
X155951420Y-107024500D01*
X150235691Y-107024500D01*
X150149758Y-107047525D01*
X150121113Y-107055201D01*
X150018386Y-107114509D01*
X150018384Y-107114511D01*
X148119513Y-109013383D01*
X148119511Y-109013386D01*
X148060199Y-109116114D01*
X148054708Y-109136612D01*
X148054708Y-109136613D01*
X148029500Y-109230691D01*
X148029500Y-114593034D01*
X148009815Y-114660073D01*
X147957011Y-114705828D01*
X147887853Y-114715772D01*
X147824297Y-114686747D01*
X147817819Y-114680715D01*
X147376477Y-114239373D01*
X147342992Y-114178050D01*
X147347976Y-114108358D01*
X147389848Y-114052425D01*
X147402150Y-114044310D01*
X147408716Y-114040520D01*
X147520520Y-113928716D01*
X147599577Y-113791784D01*
X147640500Y-113639057D01*
X147640500Y-113480943D01*
X147599577Y-113328216D01*
X147565678Y-113269500D01*
X147520524Y-113191290D01*
X147520521Y-113191287D01*
X147520520Y-113191284D01*
X147520517Y-113191281D01*
X147516125Y-113185557D01*
X147490930Y-113120388D01*
X147490500Y-113110069D01*
X147490500Y-112192692D01*
X147507114Y-112130690D01*
X147529576Y-112091786D01*
X147529577Y-112091784D01*
X147570500Y-111939057D01*
X147570500Y-111780943D01*
X147529577Y-111628216D01*
X147529573Y-111628209D01*
X147450524Y-111491290D01*
X147450518Y-111491282D01*
X147338717Y-111379481D01*
X147338709Y-111379475D01*
X147201790Y-111300426D01*
X147201786Y-111300424D01*
X147201784Y-111300423D01*
X147049057Y-111259500D01*
X146890943Y-111259500D01*
X146738216Y-111300423D01*
X146738209Y-111300426D01*
X146601290Y-111379475D01*
X146601282Y-111379481D01*
X146572181Y-111408583D01*
X146510858Y-111442068D01*
X146441166Y-111437084D01*
X146385233Y-111395212D01*
X146360816Y-111329748D01*
X146360500Y-111320902D01*
X146360500Y-107610693D01*
X146360500Y-107610691D01*
X146329799Y-107496114D01*
X146329799Y-107496113D01*
X146270489Y-107393386D01*
X144836700Y-105959597D01*
X144803215Y-105898274D01*
X144801442Y-105888099D01*
X144800500Y-105880945D01*
X144800500Y-105880943D01*
X144759577Y-105728216D01*
X144759573Y-105728209D01*
X144680524Y-105591290D01*
X144680518Y-105591282D01*
X144568717Y-105479481D01*
X144568709Y-105479475D01*
X144431790Y-105400426D01*
X144431786Y-105400424D01*
X144431784Y-105400423D01*
X144279057Y-105359500D01*
X144120943Y-105359500D01*
X143968216Y-105400423D01*
X143968209Y-105400426D01*
X143831290Y-105479475D01*
X143831282Y-105479481D01*
X143719481Y-105591282D01*
X143719475Y-105591290D01*
X143640426Y-105728209D01*
X143640423Y-105728216D01*
X143599500Y-105880943D01*
X143599500Y-106039056D01*
X143640423Y-106191783D01*
X143640426Y-106191790D01*
X143719475Y-106328709D01*
X143719479Y-106328714D01*
X143719480Y-106328716D01*
X143831284Y-106440520D01*
X143831286Y-106440521D01*
X143831290Y-106440524D01*
X143968209Y-106519573D01*
X143968216Y-106519577D01*
X144120943Y-106560500D01*
X144120945Y-106560500D01*
X144128099Y-106561442D01*
X144191996Y-106589707D01*
X144199597Y-106596700D01*
X145423181Y-107820284D01*
X145456666Y-107881607D01*
X145459500Y-107907965D01*
X145459500Y-108173034D01*
X145439815Y-108240073D01*
X145387011Y-108285828D01*
X145317853Y-108295772D01*
X145254297Y-108266747D01*
X145247819Y-108260715D01*
X144836700Y-107849596D01*
X144803215Y-107788273D01*
X144801442Y-107778100D01*
X144800500Y-107770944D01*
X144800500Y-107770943D01*
X144759577Y-107618216D01*
X144755234Y-107610693D01*
X144680524Y-107481290D01*
X144680518Y-107481282D01*
X144568717Y-107369481D01*
X144568709Y-107369475D01*
X144431790Y-107290426D01*
X144431786Y-107290424D01*
X144431784Y-107290423D01*
X144279057Y-107249500D01*
X144120943Y-107249500D01*
X143968216Y-107290423D01*
X143968215Y-107290423D01*
X143906499Y-107326055D01*
X143838599Y-107342527D01*
X143772572Y-107319674D01*
X143729382Y-107264752D01*
X143720500Y-107218667D01*
X143720500Y-106992749D01*
X143720499Y-106992747D01*
X143708868Y-106934270D01*
X143708867Y-106934269D01*
X143664552Y-106867947D01*
X143598230Y-106823632D01*
X143598229Y-106823631D01*
X143539752Y-106812000D01*
X143539748Y-106812000D01*
X141500252Y-106812000D01*
X141500247Y-106812000D01*
X141441770Y-106823631D01*
X141441769Y-106823632D01*
X141375447Y-106867947D01*
X141331132Y-106934269D01*
X141331131Y-106934270D01*
X141319500Y-106992747D01*
X141319500Y-108032252D01*
X141331131Y-108090729D01*
X141331132Y-108090730D01*
X141366465Y-108143609D01*
X141387343Y-108210286D01*
X141368859Y-108277666D01*
X141366465Y-108281391D01*
X141331132Y-108334269D01*
X141331131Y-108334270D01*
X141319500Y-108392747D01*
X141319500Y-109432252D01*
X141331131Y-109490729D01*
X141331132Y-109490730D01*
X141366465Y-109543609D01*
X141387343Y-109610286D01*
X141368859Y-109677666D01*
X141366465Y-109681391D01*
X141331132Y-109734269D01*
X141331131Y-109734270D01*
X141319500Y-109792747D01*
X141319500Y-110832252D01*
X141331131Y-110890729D01*
X141331132Y-110890730D01*
X141366465Y-110943609D01*
X141387343Y-111010286D01*
X141368859Y-111077666D01*
X141366465Y-111081391D01*
X141331132Y-111134269D01*
X141331131Y-111134270D01*
X141319500Y-111192747D01*
X141319500Y-112232252D01*
X141331131Y-112290729D01*
X141331132Y-112290730D01*
X141366465Y-112343609D01*
X141387343Y-112410286D01*
X141368859Y-112477666D01*
X141366465Y-112481391D01*
X141331132Y-112534269D01*
X141331131Y-112534270D01*
X141319500Y-112592747D01*
X141319500Y-113632252D01*
X141331131Y-113690729D01*
X141331132Y-113690730D01*
X141366465Y-113743609D01*
X141387343Y-113810286D01*
X141368859Y-113877666D01*
X141366465Y-113881391D01*
X141331132Y-113934269D01*
X141331131Y-113934270D01*
X141319500Y-113992747D01*
X141319500Y-115032252D01*
X141331131Y-115090729D01*
X141331132Y-115090730D01*
X141366465Y-115143609D01*
X141387343Y-115210286D01*
X141368859Y-115277666D01*
X141366465Y-115281391D01*
X141331132Y-115334269D01*
X141331131Y-115334270D01*
X141319500Y-115392747D01*
X141319500Y-116432252D01*
X141331131Y-116490729D01*
X141331132Y-116490730D01*
X141375447Y-116557052D01*
X141441769Y-116601367D01*
X141441770Y-116601368D01*
X141500247Y-116612999D01*
X141500250Y-116613000D01*
X141500252Y-116613000D01*
X143539750Y-116613000D01*
X143539751Y-116612999D01*
X143554568Y-116610052D01*
X143598229Y-116601368D01*
X143598229Y-116601367D01*
X143598231Y-116601367D01*
X143664552Y-116557052D01*
X143708867Y-116490731D01*
X143708867Y-116490729D01*
X143708868Y-116490729D01*
X143720499Y-116432256D01*
X143720874Y-116428445D01*
X143721629Y-116426573D01*
X143721689Y-116426274D01*
X143721745Y-116426285D01*
X143747027Y-116363654D01*
X143782279Y-116333196D01*
X143783829Y-116332300D01*
X143783836Y-116332299D01*
X143886563Y-116272989D01*
X145429731Y-114729820D01*
X145491052Y-114696337D01*
X145560744Y-114701321D01*
X145616677Y-114743193D01*
X145625964Y-114759503D01*
X145626359Y-114759276D01*
X145709475Y-114903239D01*
X145709479Y-114903244D01*
X145709480Y-114903246D01*
X145821284Y-115015050D01*
X145821286Y-115015051D01*
X145821290Y-115015054D01*
X145958209Y-115094103D01*
X145958216Y-115094107D01*
X146040770Y-115116227D01*
X146100429Y-115152591D01*
X146130958Y-115215438D01*
X146128449Y-115268094D01*
X146110724Y-115334249D01*
X146110724Y-115492363D01*
X146150537Y-115640945D01*
X146151647Y-115645089D01*
X146151650Y-115645096D01*
X146230699Y-115782015D01*
X146230703Y-115782020D01*
X146230704Y-115782022D01*
X146342508Y-115893826D01*
X146385663Y-115918741D01*
X146411344Y-115938447D01*
X148263386Y-117790490D01*
X148366113Y-117849799D01*
X148390321Y-117856284D01*
X148390324Y-117856286D01*
X148390325Y-117856286D01*
X148420447Y-117864357D01*
X148480691Y-117880500D01*
X149369535Y-117880500D01*
X149436574Y-117900185D01*
X149457216Y-117916819D01*
X150140715Y-118600319D01*
X150174200Y-118661642D01*
X150169216Y-118731334D01*
X150127344Y-118787267D01*
X150061880Y-118811684D01*
X150053034Y-118812000D01*
X149370247Y-118812000D01*
X149311770Y-118823631D01*
X149311769Y-118823632D01*
X149245447Y-118867947D01*
X149201132Y-118934269D01*
X149201131Y-118934270D01*
X149189500Y-118992747D01*
X149189500Y-122185500D01*
X149186949Y-122194185D01*
X149188238Y-122203147D01*
X149177259Y-122227187D01*
X149169815Y-122252539D01*
X149162974Y-122258466D01*
X149159213Y-122266703D01*
X149136978Y-122280992D01*
X149117011Y-122298294D01*
X149106496Y-122300581D01*
X149100435Y-122304477D01*
X149065500Y-122309500D01*
X148914500Y-122309500D01*
X148847461Y-122289815D01*
X148801706Y-122237011D01*
X148790500Y-122185500D01*
X148790500Y-118992749D01*
X148790499Y-118992747D01*
X148778868Y-118934270D01*
X148778867Y-118934269D01*
X148734552Y-118867947D01*
X148668230Y-118823632D01*
X148668229Y-118823631D01*
X148609752Y-118812000D01*
X148609748Y-118812000D01*
X147570252Y-118812000D01*
X147570247Y-118812000D01*
X147511770Y-118823631D01*
X147511769Y-118823632D01*
X147435293Y-118874733D01*
X147432823Y-118871036D01*
X147392244Y-118893050D01*
X147322567Y-118887874D01*
X147266749Y-118845849D01*
X147250038Y-118815145D01*
X147233354Y-118770413D01*
X147233350Y-118770406D01*
X147147190Y-118655312D01*
X147147187Y-118655309D01*
X147032093Y-118569149D01*
X147032086Y-118569145D01*
X146897379Y-118518903D01*
X146897372Y-118518901D01*
X146837844Y-118512500D01*
X146540000Y-118512500D01*
X146540000Y-120488500D01*
X146520315Y-120555539D01*
X146467511Y-120601294D01*
X146416000Y-120612500D01*
X146164000Y-120612500D01*
X146096961Y-120592815D01*
X146051206Y-120540011D01*
X146040000Y-120488500D01*
X146040000Y-118512500D01*
X145742155Y-118512500D01*
X145682627Y-118518901D01*
X145682617Y-118518903D01*
X145594811Y-118551653D01*
X145525120Y-118556637D01*
X145463797Y-118523151D01*
X145444090Y-118497468D01*
X145440520Y-118491284D01*
X145328717Y-118379481D01*
X145328709Y-118379475D01*
X145191790Y-118300426D01*
X145191786Y-118300424D01*
X145191784Y-118300423D01*
X145039057Y-118259500D01*
X144880943Y-118259500D01*
X144728216Y-118300423D01*
X144728209Y-118300426D01*
X144591283Y-118379479D01*
X144585036Y-118384273D01*
X144525745Y-118408834D01*
X144520695Y-118409499D01*
X144442243Y-118430519D01*
X144442244Y-118430520D01*
X144406111Y-118440201D01*
X144303386Y-118499511D01*
X144303383Y-118499513D01*
X144129513Y-118673383D01*
X144129511Y-118673386D01*
X144085276Y-118750001D01*
X144034711Y-118798216D01*
X143977891Y-118812000D01*
X143970247Y-118812000D01*
X143911770Y-118823631D01*
X143911769Y-118823632D01*
X143845447Y-118867947D01*
X143801132Y-118934269D01*
X143801131Y-118934270D01*
X143789500Y-118992747D01*
X143789500Y-122185500D01*
X143769815Y-122252539D01*
X143717011Y-122298294D01*
X143665500Y-122309500D01*
X140934500Y-122309500D01*
X140867461Y-122289815D01*
X140821706Y-122237011D01*
X140810500Y-122185500D01*
X140810500Y-104804500D01*
X140830185Y-104737461D01*
X140882989Y-104691706D01*
X140934500Y-104680500D01*
X158935500Y-104680500D01*
X159002539Y-104700185D01*
G37*
%TD.AperFunction*%
%TA.AperFunction,Conductor*%
G36*
X153291480Y-109650185D02*
G01*
X153337235Y-109702989D01*
X153347179Y-109772147D01*
X153331828Y-109816500D01*
X153290424Y-109888213D01*
X153290423Y-109888216D01*
X153249500Y-110040943D01*
X153249500Y-110199056D01*
X153290423Y-110351783D01*
X153290426Y-110351790D01*
X153369473Y-110488706D01*
X153369477Y-110488712D01*
X153369480Y-110488716D01*
X153369482Y-110488718D01*
X153373872Y-110494438D01*
X153399069Y-110559606D01*
X153399500Y-110569930D01*
X153399500Y-112639309D01*
X153400549Y-112643223D01*
X153423712Y-112729672D01*
X153430200Y-112753885D01*
X153430200Y-112753886D01*
X153430201Y-112753887D01*
X153489511Y-112856614D01*
X154143386Y-113510490D01*
X154143388Y-113510491D01*
X154143392Y-113510494D01*
X154217257Y-113553140D01*
X154217261Y-113553141D01*
X154246113Y-113569799D01*
X154246111Y-113569799D01*
X154307511Y-113586249D01*
X154360691Y-113600499D01*
X154360694Y-113600499D01*
X154479306Y-113600499D01*
X154479309Y-113600499D01*
X154593887Y-113569799D01*
X154593889Y-113569797D01*
X154601737Y-113567695D01*
X154602223Y-113569510D01*
X154634965Y-113563000D01*
X155943961Y-113563000D01*
X156011000Y-113582685D01*
X156056040Y-113633950D01*
X156062592Y-113647792D01*
X156071133Y-113690731D01*
X156111535Y-113751196D01*
X156115442Y-113759450D01*
X156119521Y-113785307D01*
X156127343Y-113810286D01*
X156124879Y-113819266D01*
X156126331Y-113828466D01*
X156115783Y-113852423D01*
X156108859Y-113877666D01*
X156106465Y-113881391D01*
X156071132Y-113934269D01*
X156071132Y-113934270D01*
X156065578Y-113962192D01*
X156033193Y-114024103D01*
X155972477Y-114058677D01*
X155943961Y-114062000D01*
X153038191Y-114062000D01*
X152923614Y-114092701D01*
X152923612Y-114092701D01*
X152923612Y-114092702D01*
X152907882Y-114101784D01*
X152907881Y-114101784D01*
X152820889Y-114152008D01*
X152820884Y-114152012D01*
X151939513Y-115033383D01*
X151939509Y-115033389D01*
X151880201Y-115136112D01*
X151880200Y-115136117D01*
X151849500Y-115250691D01*
X151849500Y-117143035D01*
X151829815Y-117210074D01*
X151777011Y-117255829D01*
X151707853Y-117265773D01*
X151644297Y-117236748D01*
X151637819Y-117230716D01*
X150776616Y-116369513D01*
X150776614Y-116369511D01*
X150673887Y-116310201D01*
X150637394Y-116300423D01*
X150637391Y-116300422D01*
X150604390Y-116291579D01*
X150559309Y-116279500D01*
X150559308Y-116279500D01*
X150085145Y-116279500D01*
X150018106Y-116259815D01*
X149972351Y-116207011D01*
X149962407Y-116137853D01*
X149977758Y-116093500D01*
X149980520Y-116088716D01*
X150059577Y-115951784D01*
X150100500Y-115799057D01*
X150100500Y-115640943D01*
X150059577Y-115488216D01*
X150022562Y-115424103D01*
X149980524Y-115351290D01*
X149980518Y-115351282D01*
X149868717Y-115239481D01*
X149868709Y-115239475D01*
X149731790Y-115160426D01*
X149731786Y-115160424D01*
X149731784Y-115160423D01*
X149579057Y-115119500D01*
X149579050Y-115119498D01*
X149571893Y-115118556D01*
X149507997Y-115090287D01*
X149500403Y-115083299D01*
X148966819Y-114549715D01*
X148933334Y-114488392D01*
X148930500Y-114462034D01*
X148930500Y-113468808D01*
X148950185Y-113401769D01*
X149002989Y-113356014D01*
X149072147Y-113346070D01*
X149135703Y-113375095D01*
X149161886Y-113406806D01*
X149219511Y-113506614D01*
X149219513Y-113506616D01*
X149689748Y-113976851D01*
X149721841Y-114032437D01*
X149724631Y-114042850D01*
X149740423Y-114101785D01*
X149740426Y-114101790D01*
X149819475Y-114238709D01*
X149819479Y-114238714D01*
X149819480Y-114238716D01*
X149931284Y-114350520D01*
X149931286Y-114350521D01*
X149931290Y-114350524D01*
X150068209Y-114429573D01*
X150068216Y-114429577D01*
X150220943Y-114470500D01*
X150220945Y-114470500D01*
X150379055Y-114470500D01*
X150379057Y-114470500D01*
X150531784Y-114429577D01*
X150668716Y-114350520D01*
X150780520Y-114238716D01*
X150859577Y-114101784D01*
X150900500Y-113949057D01*
X150900500Y-113790943D01*
X150859577Y-113638216D01*
X150837801Y-113600498D01*
X150780524Y-113501290D01*
X150780518Y-113501282D01*
X150668717Y-113389481D01*
X150668709Y-113389475D01*
X150531790Y-113310426D01*
X150531786Y-113310424D01*
X150531784Y-113310423D01*
X150379057Y-113269500D01*
X150379056Y-113269500D01*
X150307966Y-113269500D01*
X150278525Y-113260855D01*
X150248539Y-113254332D01*
X150243523Y-113250577D01*
X150240927Y-113249815D01*
X150220285Y-113233181D01*
X150066819Y-113079715D01*
X150033334Y-113018392D01*
X150030500Y-112992034D01*
X150030500Y-110357965D01*
X150050185Y-110290926D01*
X150066819Y-110270284D01*
X150670285Y-109666819D01*
X150731608Y-109633334D01*
X150757966Y-109630500D01*
X153224441Y-109630500D01*
X153291480Y-109650185D01*
G37*
%TD.AperFunction*%
%TA.AperFunction,Conductor*%
G36*
X156007718Y-109650185D02*
G01*
X156053473Y-109702989D01*
X156063417Y-109772147D01*
X156062297Y-109778690D01*
X156059500Y-109792752D01*
X156059500Y-110832252D01*
X156071131Y-110890729D01*
X156071132Y-110890730D01*
X156106465Y-110943609D01*
X156127343Y-111010286D01*
X156108859Y-111077666D01*
X156106465Y-111081391D01*
X156071132Y-111134269D01*
X156071131Y-111134270D01*
X156059500Y-111192747D01*
X156059500Y-112232252D01*
X156071131Y-112290729D01*
X156071132Y-112290730D01*
X156106465Y-112343609D01*
X156127343Y-112410286D01*
X156115442Y-112465550D01*
X156111535Y-112473803D01*
X156071133Y-112534269D01*
X156062592Y-112577207D01*
X156056040Y-112591050D01*
X156042575Y-112606165D01*
X156033193Y-112624103D01*
X156019809Y-112631723D01*
X156009567Y-112643223D01*
X155990069Y-112648659D01*
X155972477Y-112658677D01*
X155943961Y-112662000D01*
X154620466Y-112662000D01*
X154553427Y-112642315D01*
X154532785Y-112625681D01*
X154336819Y-112429715D01*
X154303334Y-112368392D01*
X154300500Y-112342034D01*
X154300500Y-110569930D01*
X154320185Y-110502891D01*
X154326128Y-110494438D01*
X154330512Y-110488723D01*
X154330520Y-110488716D01*
X154409577Y-110351784D01*
X154450500Y-110199057D01*
X154450500Y-110040943D01*
X154409577Y-109888216D01*
X154368171Y-109816499D01*
X154351699Y-109748600D01*
X154374552Y-109682573D01*
X154429473Y-109639382D01*
X154475559Y-109630500D01*
X155940679Y-109630500D01*
X156007718Y-109650185D01*
G37*
%TD.AperFunction*%
%TA.AperFunction,Conductor*%
G36*
X154970770Y-107934736D02*
G01*
X155002578Y-107942852D01*
X155004147Y-107944537D01*
X155006353Y-107945185D01*
X155027817Y-107969956D01*
X155050193Y-107993985D01*
X155050602Y-107996251D01*
X155052108Y-107997989D01*
X155056775Y-108030447D01*
X155062605Y-108062743D01*
X155061846Y-108065716D01*
X155062052Y-108067147D01*
X155057087Y-108085247D01*
X155057527Y-108085365D01*
X155014500Y-108245943D01*
X155014500Y-108404056D01*
X155055424Y-108556790D01*
X155055948Y-108558053D01*
X155056071Y-108559203D01*
X155057527Y-108564635D01*
X155056679Y-108564862D01*
X155063414Y-108627522D01*
X155032136Y-108690000D01*
X154972045Y-108725650D01*
X154941385Y-108729500D01*
X150892501Y-108729500D01*
X150830501Y-108712887D01*
X150773885Y-108680200D01*
X150773885Y-108680199D01*
X150659310Y-108649501D01*
X150659309Y-108649501D01*
X150540691Y-108649501D01*
X150540689Y-108649501D01*
X150426114Y-108680199D01*
X150426110Y-108680201D01*
X150323392Y-108739505D01*
X150323384Y-108739511D01*
X149219513Y-109843383D01*
X149219511Y-109843386D01*
X149197684Y-109881192D01*
X149161887Y-109943193D01*
X149111319Y-109991408D01*
X149042712Y-110004630D01*
X148977848Y-109978662D01*
X148937320Y-109921748D01*
X148930500Y-109881192D01*
X148930500Y-109527965D01*
X148950185Y-109460926D01*
X148966819Y-109440284D01*
X150445285Y-107961819D01*
X150506608Y-107928334D01*
X150532966Y-107925500D01*
X154939314Y-107925500D01*
X154970770Y-107934736D01*
G37*
%TD.AperFunction*%
%TD*%
M02*
