%TF.GenerationSoftware,KiCad,Pcbnew,10.0.3*%
%TF.CreationDate,2026-06-07T23:13:39+02:00*%
%TF.ProjectId,T1UHL-ESP12_board,54315548-4c2d-4455-9350-31325f626f61,rev?*%
%TF.SameCoordinates,Original*%
%TF.FileFunction,Legend,Bot*%
%TF.FilePolarity,Positive*%
%FSLAX46Y46*%
G04 Gerber Fmt 4.6, Leading zero omitted, Abs format (unit mm)*
G04 Created by KiCad (PCBNEW 10.0.3) date 2026-06-07 23:13:39*
%MOMM*%
%LPD*%
G01*
G04 APERTURE LIST*
%ADD10C,0.100000*%
%ADD11C,0.150000*%
%ADD12C,0.250000*%
%ADD13C,0.060000*%
G04 APERTURE END LIST*
D10*
X152726115Y-106018609D02*
X152392782Y-106018609D01*
X152249925Y-106542419D02*
X152726115Y-106542419D01*
X152726115Y-106542419D02*
X152726115Y-105542419D01*
X152726115Y-105542419D02*
X152249925Y-105542419D01*
X151868972Y-106494800D02*
X151726115Y-106542419D01*
X151726115Y-106542419D02*
X151488020Y-106542419D01*
X151488020Y-106542419D02*
X151392782Y-106494800D01*
X151392782Y-106494800D02*
X151345163Y-106447180D01*
X151345163Y-106447180D02*
X151297544Y-106351942D01*
X151297544Y-106351942D02*
X151297544Y-106256704D01*
X151297544Y-106256704D02*
X151345163Y-106161466D01*
X151345163Y-106161466D02*
X151392782Y-106113847D01*
X151392782Y-106113847D02*
X151488020Y-106066228D01*
X151488020Y-106066228D02*
X151678496Y-106018609D01*
X151678496Y-106018609D02*
X151773734Y-105970990D01*
X151773734Y-105970990D02*
X151821353Y-105923371D01*
X151821353Y-105923371D02*
X151868972Y-105828133D01*
X151868972Y-105828133D02*
X151868972Y-105732895D01*
X151868972Y-105732895D02*
X151821353Y-105637657D01*
X151821353Y-105637657D02*
X151773734Y-105590038D01*
X151773734Y-105590038D02*
X151678496Y-105542419D01*
X151678496Y-105542419D02*
X151440401Y-105542419D01*
X151440401Y-105542419D02*
X151297544Y-105590038D01*
X150868972Y-106542419D02*
X150868972Y-105542419D01*
X150868972Y-105542419D02*
X150488020Y-105542419D01*
X150488020Y-105542419D02*
X150392782Y-105590038D01*
X150392782Y-105590038D02*
X150345163Y-105637657D01*
X150345163Y-105637657D02*
X150297544Y-105732895D01*
X150297544Y-105732895D02*
X150297544Y-105875752D01*
X150297544Y-105875752D02*
X150345163Y-105970990D01*
X150345163Y-105970990D02*
X150392782Y-106018609D01*
X150392782Y-106018609D02*
X150488020Y-106066228D01*
X150488020Y-106066228D02*
X150868972Y-106066228D01*
X149345163Y-106542419D02*
X149916591Y-106542419D01*
X149630877Y-106542419D02*
X149630877Y-105542419D01*
X149630877Y-105542419D02*
X149726115Y-105685276D01*
X149726115Y-105685276D02*
X149821353Y-105780514D01*
X149821353Y-105780514D02*
X149916591Y-105828133D01*
X148964210Y-105637657D02*
X148916591Y-105590038D01*
X148916591Y-105590038D02*
X148821353Y-105542419D01*
X148821353Y-105542419D02*
X148583258Y-105542419D01*
X148583258Y-105542419D02*
X148488020Y-105590038D01*
X148488020Y-105590038D02*
X148440401Y-105637657D01*
X148440401Y-105637657D02*
X148392782Y-105732895D01*
X148392782Y-105732895D02*
X148392782Y-105828133D01*
X148392782Y-105828133D02*
X148440401Y-105970990D01*
X148440401Y-105970990D02*
X149011829Y-106542419D01*
X149011829Y-106542419D02*
X148392782Y-106542419D01*
X147630877Y-106018609D02*
X147964210Y-106018609D01*
X147964210Y-106542419D02*
X147964210Y-105542419D01*
X147964210Y-105542419D02*
X147488020Y-105542419D01*
D11*
X137803819Y-112618095D02*
X138613342Y-112618095D01*
X138613342Y-112618095D02*
X138708580Y-112665714D01*
X138708580Y-112665714D02*
X138756200Y-112713333D01*
X138756200Y-112713333D02*
X138803819Y-112808571D01*
X138803819Y-112808571D02*
X138803819Y-112999047D01*
X138803819Y-112999047D02*
X138756200Y-113094285D01*
X138756200Y-113094285D02*
X138708580Y-113141904D01*
X138708580Y-113141904D02*
X138613342Y-113189523D01*
X138613342Y-113189523D02*
X137803819Y-113189523D01*
X138803819Y-114189523D02*
X138803819Y-113618095D01*
X138803819Y-113903809D02*
X137803819Y-113903809D01*
X137803819Y-113903809D02*
X137946676Y-113808571D01*
X137946676Y-113808571D02*
X138041914Y-113713333D01*
X138041914Y-113713333D02*
X138089533Y-113618095D01*
%TO.C,U1*%
D12*
X141900000Y-97230000D02*
X141900000Y-104800000D01*
X141900000Y-106660000D02*
X141900000Y-106800000D01*
X141900000Y-108660000D02*
X141900000Y-108800000D01*
X141900000Y-110660000D02*
X141900000Y-110800000D01*
X141900000Y-112660000D02*
X141900000Y-112800000D01*
X141900000Y-114660000D02*
X141900000Y-114800000D01*
X141900000Y-116660000D02*
X141900000Y-116800000D01*
X141900000Y-118660000D02*
X141900000Y-118800000D01*
X141900000Y-120660000D02*
X141900000Y-121230000D01*
X141900000Y-121230000D02*
X143970000Y-121230000D01*
X143900000Y-106230000D02*
X155900000Y-106230000D01*
X143900000Y-119230000D02*
X143900000Y-106230000D01*
X144900000Y-103230000D02*
X154900000Y-103230000D01*
X145830000Y-121230000D02*
X145970000Y-121230000D01*
X147830000Y-121230000D02*
X147970000Y-121230000D01*
X148900000Y-98230000D02*
X142900000Y-98230000D01*
X148900000Y-101230000D02*
X148900000Y-98230000D01*
X149830000Y-121230000D02*
X149970000Y-121230000D01*
X149900000Y-98230000D02*
X149900000Y-101230000D01*
X149900000Y-101230000D02*
X148900000Y-101230000D01*
X150900000Y-98230000D02*
X149900000Y-98230000D01*
X150900000Y-101230000D02*
X150900000Y-98230000D01*
X151830000Y-121230000D02*
X151970000Y-121230000D01*
X151900000Y-98230000D02*
X151900000Y-101230000D01*
X151900000Y-101230000D02*
X150900000Y-101230000D01*
X152900000Y-98230000D02*
X151900000Y-98230000D01*
X152900000Y-101230000D02*
X152900000Y-98230000D01*
X153830000Y-121230000D02*
X153970000Y-121230000D01*
X153900000Y-98230000D02*
X153900000Y-101230000D01*
X153900000Y-101230000D02*
X152900000Y-101230000D01*
X154900000Y-98230000D02*
X153900000Y-98230000D01*
X154900000Y-103230000D02*
X154900000Y-98230000D01*
X155830000Y-121230000D02*
X157900000Y-121230000D01*
X155900000Y-106230000D02*
X155900000Y-119230000D01*
X155900000Y-119230000D02*
X143900000Y-119230000D01*
X156900000Y-104230000D02*
X142900000Y-104230000D01*
X157900000Y-97230000D02*
X141900000Y-97230000D01*
X157900000Y-104800000D02*
X157900000Y-97230000D01*
X157900000Y-106800000D02*
X157900000Y-106660000D01*
X157900000Y-108800000D02*
X157900000Y-108660000D01*
X157900000Y-110800000D02*
X157900000Y-110660000D01*
X157900000Y-112800000D02*
X157900000Y-112660000D01*
X157900000Y-114800000D02*
X157900000Y-114660000D01*
X157900000Y-116800000D02*
X157900000Y-116660000D01*
X157900000Y-118800000D02*
X157900000Y-118660000D01*
X157900000Y-121230000D02*
X157900000Y-120660000D01*
D13*
X157930000Y-97230000D02*
G75*
G02*
X157870000Y-97230000I-30000J0D01*
G01*
X157870000Y-97230000D02*
G75*
G02*
X157930000Y-97230000I30000J0D01*
G01*
D12*
X158820000Y-104240000D02*
G75*
G02*
X158260000Y-104240000I-280000J0D01*
G01*
X158260000Y-104240000D02*
G75*
G02*
X158820000Y-104240000I280000J0D01*
G01*
%TD*%
M02*
